<?xml version="1.0" encoding="UTF-8"?> <svg xmlns="http://www.w3.org/2000/svg" id="Event_Registration" version="1.1" viewBox="0 0 1162.5 1162.5"><defs><style> .st0 { fill: none; stroke: #00aeef; stroke-width: 37px; } .st0, .st1, .st2, .st3, .st4 { stroke-linecap: round; stroke-linejoin: round; } .st1, .st2, .st3, .st5, .st4 { fill-rule: evenodd; } .st1, .st2, .st3, .st4 { stroke: #000; } .st1, .st2, .st4 { stroke-width: 28.01px; } .st1, .st5 { fill: #00649d; } .st2 { fill: #00aeef; } .st3 { fill: #9ed6f4; stroke-width: 30px; } .st4 { fill: #fff; } </style></defs><path class="st2" d="M1065.96,419.83c41.93,0,76.2,34.32,76.2,76.27v557.58c0,41.95-34.28,76.28-76.2,76.28h-436.57c-41.99,0-76.32-34.33-76.32-76.28V496.09c0-41.95,34.33-76.27,76.32-76.27h436.57Z"></path><path class="st4" d="M638.41,193.69c-27.36,0-49.69-22.29-49.69-49.75V35.69H38.91c-10.46,0-18.98,8.53-18.98,18.99v949c0,10.46,8.52,18.99,18.98,18.99h466.91V492.09c0-64.09,59.43-118.52,123.57-118.52l117.29,2v-181.88h-108.28Z"></path><path class="st3" d="M350.12,106.4c-89.61,0-162.25,72.64-162.25,162.25s72.64,162.26,162.25,162.26,162.26-72.65,162.26-162.26-72.65-162.25-162.26-162.25"></path><path class="st5" d="M370.25,366.41v4.92c0,11.11-9,20.13-20.12,20.13s-20.13-9.01-20.13-20.13v-5.34c-25.05-6.11-45.03-23.28-51.42-48.9-2.64-10.78,3.93-21.65,14.71-24.3,10.76-2.64,21.65,3.93,24.29,14.71,3.77,15.14,19.98,21.16,34.2,20.83,1.37-.03,3.17-.19,5.39-.45,9.01-1.09,25.24-5.45,24.97-17.05-.01-.19-.07-.8-.2-1.83-1.82-15.01-22.74-19.12-34.87-21.12-31.54-5.17-61.87-20.49-63.61-56.44-1.45-29.82,18.98-52.18,46.56-59.79v-5.66c0-11.12,9.01-20.13,20.13-20.13s20.12,9,20.12,20.13v5.39c19.38,5.18,36.92,18.1,46.2,40.21,4.29,10.25-.53,22.04-10.78,26.34-10.24,4.3-22.04-.52-26.33-10.78-6.11-14.54-21.42-20.42-36.24-17.44-9.99,2.01-20.14,8.43-19.58,19.84.64,13.18,19.71,17.03,29.97,18.71,32.48,5.34,63.91,19.3,68.36,56.03.19,1.5.3,3.39.36,5.61.74,31.37-23.69,50.44-51.97,56.53"></path><line class="st0" x1="163.99" y1="602.5" x2="383.89" y2="602.5"></line><line class="st0" x1="163.99" y1="819.4" x2="383.89" y2="819.4"></line><line class="st0" x1="124.89" y1="711" x2="423.09" y2="711"></line><path class="st1" d="M1041.96,1002.93v-22.79c0-9.65-7.86-17.54-17.5-17.54h-65.62c-9.64,0-17.51,7.88-17.51,17.54v22.79c0,9.66,7.86,17.54,17.51,17.54h65.62c9.64,0,17.5-7.87,17.5-17.54Z"></path><path class="st1" d="M755.59,873.73v-22.39c0-9.49-7.76-17.22-17.19-17.22h-64.36c-9.54,0-17.19,7.74-17.19,17.22v22.39c0,9.48,7.65,17.21,17.19,17.21h64.36c9.43,0,17.19-7.74,17.19-17.21Z"></path><path class="st1" d="M755.59,752.96v-22.39c0-9.48-7.76-17.21-17.19-17.21h-64.36c-9.54,0-17.19,7.74-17.19,17.21v22.39c0,9.49,7.65,17.22,17.19,17.22h64.36c9.43,0,17.19-7.74,17.19-17.22Z"></path><path class="st1" d="M956.84,834.12c-9.43,0-17.19,7.74-17.19,17.22v22.39c0,9.48,7.76,17.21,17.19,17.21h64.36c9.54,0,17.29-7.74,17.29-17.21v-22.39c0-9.49-7.76-17.22-17.29-17.22h-64.36Z"></path><path class="st1" d="M798.25,752.96c0,9.49,7.76,17.22,17.19,17.22h64.36c9.54,0,17.3-7.74,17.3-17.22v-22.39c0-9.48-7.76-17.21-17.3-17.21h-64.36c-9.43,0-17.19,7.74-17.19,17.21v22.39Z"></path><path class="st1" d="M939.65,752.96c0,9.49,7.76,17.22,17.19,17.22h64.36c9.54,0,17.29-7.74,17.29-17.22v-22.39c0-9.48-7.76-17.21-17.29-17.21h-64.36c-9.43,0-17.19,7.74-17.19,17.21v22.39Z"></path><path class="st1" d="M755.59,994.49v-22.39c0-9.49-7.76-17.22-17.19-17.22h-64.36c-9.54,0-17.19,7.74-17.19,17.22v22.39c0,9.49,7.65,17.22,17.19,17.22h64.36c9.43,0,17.19-7.74,17.19-17.22Z"></path><path class="st1" d="M897.94,1002.93v-22.79c0-9.65-7.86-17.54-17.5-17.54h-65.51c-9.75,0-17.61,7.88-17.61,17.54v22.79c0,9.66,7.86,17.54,17.61,17.54h65.51c9.64,0,17.5-7.87,17.5-17.54Z"></path><path class="st1" d="M815.44,834.12c-9.43,0-17.19,7.74-17.19,17.22v22.39c0,9.48,7.76,17.21,17.19,17.21h64.36c9.54,0,17.3-7.74,17.3-17.21v-22.39c0-9.49-7.76-17.22-17.3-17.22h-64.36Z"></path><path class="st4" d="M1054.32,614.12v-67.6c0-9.49-7.76-17.22-17.3-17.22h-378.81c-9.54,0-17.19,7.74-17.19,17.22v67.6c0,9.49,7.65,17.22,17.19,17.22h378.81c9.54,0,17.3-7.74,17.3-17.22Z"></path><path class="st2" d="M628.97,37.34v106.62c0,5.22,4.3,9.49,9.43,9.49h106.71c-.94-2.01-2.31-3.87-3.98-5.56l-106.6-106.63c-1.68-1.69-3.56-3-5.56-3.92"></path></svg> 