<?xml version="1.0" encoding="UTF-8"?> <svg xmlns="http://www.w3.org/2000/svg" xmlns:xlink="http://www.w3.org/1999/xlink" version="1.1" id="Layer_1" x="0px" y="0px" viewBox="0 0 60 60" style="enable-background:new 0 0 60 60;" xml:space="preserve"> <style type="text/css"> .st0{fill:#FFFFFF;} </style> <path class="st0" d="M45.4,42.1c0.1-0.1,0.2-0.1,0.2-0.2c1.5-1.6,3-3.1,4.5-4.7c0.1-0.1,0.3-0.2,0.5-0.2c1.8,0,3.5,0,5.3,0 c0.5,0,1-0.1,1.4-0.5c0.5-0.4,0.7-1,0.7-1.7c0-5.9,0-16.7,0-22.6c0-0.3,0-0.7,0-1c0-0.4-0.2-0.8-0.5-1.1c-0.4-0.5-1-0.7-1.6-0.7 c-7.1,0-14.2,0-21.3,0c-2.4,0-4.9,0-7.3,0c-1.2,0-2.1,0.9-2.1,2c0,6.2,0,17.3,0,23.5c0,0.3,0.1,0.7,0.2,0.9c0.4,0.7,1,1.1,1.9,1.1 c1.7,0,3.5,0,5.2,0c0.2,0,0.3,0.1,0.3,0.3c0,0.4,0,0.8,0,1.2c0,0.3-0.1,0.3-0.3,0.3c-1.8,0-3.5,0-5.3,0c-0.9,0-1.7-0.3-2.4-0.9 c-0.9-0.8-1.4-1.7-1.4-3c0-3.8,0-12.7,0-16.5v-0.4h-0.4c-6.3,0-12.7,0-19,0C3,18.2,2,19,2,20.2c0,6.2,0,17.3,0,23.5 c0,0.2,0,0.4,0.1,0.6c0.3,1,1,1.4,2,1.4c6.5,0,12.9,0,19.4,0c0.3,0,0.5,0.1,0.7,0.3c1.5,1.5,2.9,3.1,4.4,4.6 c0.1,0.1,0.1,0.1,0.2,0.2v-5h0.3c1.2,0,2.4,0,3.6,0c1.2,0,2.1-0.9,2.1-2.1c0-6.1,0-17.2,0-23.4c0-1.2-1-2.1-2.1-2.1 c-1.7,0-3.4,0-5.1,0h-0.3c0-0.6,0-1.1,0-1.6c0-0.2,0.1-0.3,0.3-0.3c1.8,0,3.6,0,5.4,0c0.6,0,1.3,0.1,1.8,0.5c1.3,0.8,2,1.9,2,3.5 c0,3.8,0,12.6,0,16.4c0,0.3,0,0.3,0.3,0.3c2.7,0,5.5,0,8.2,0c0.3,0,0.3,0,0.3,0.3c0,1.5,0,2.9,0,4.4V42.1z M43.6,47v-8.1 c-0.1,0-0.2,0-0.3,0c-2.1,0-4.3,0-6.4,0c-0.2,0-0.3,0.1-0.3,0.3c0,1.6,0,3.1,0,4.7c0,1.1-0.4,2-1.2,2.7c-0.8,0.7-1.7,1.1-2.7,1.1 c-0.6,0-1.2,0-1.7,0h-0.3v8.1c-0.4-0.4-0.8-0.7-1.1-1.1c-1.2-1.2-2.3-2.4-3.5-3.6c-1-1.1-2.1-2.1-3.1-3.2c-0.1-0.2-0.3-0.2-0.5-0.2 c-6.1,0-12.2,0-18.3,0c-1.5,0-2.6-0.6-3.4-1.9c-0.4-0.6-0.6-1.2-0.6-1.9c0-6.2,0-17.4,0-23.6c0-1.8,1.2-3.3,3-3.7 c0.3-0.1,0.7-0.1,1.1-0.1c6.2,0,12.5,0,18.7,0h0.5V16c0-1.5,0-3.1,0-4.6c0-1.2,0.5-2.2,1.5-2.9c0.7-0.6,1.6-0.8,2.5-0.8 c9.5,0,19,0,28.5,0c1.8,0,3.3,1.1,3.8,2.8c0.1,0.3,0.1,0.7,0.1,1.1c0,6.2,0,17.4,0,23.5c0,1.5-0.7,2.6-1.9,3.4 c-0.6,0.4-1.2,0.5-1.9,0.5c-1.3,0-2.6,0-3.9,0c-0.5,0-0.7,0.2-1,0.5c-1.6,1.6-3.1,3.3-4.7,4.9c-0.8,0.9-1.7,1.7-2.5,2.6 c-0.1,0.1-0.1,0.2-0.1,0.2C43.7,47,43.6,47,43.6,47"></path> <path class="st0" d="M16.1,35.2c0.1-0.1,0.2-0.2,0.3-0.3c0.9-1.5,1.2-3.1,0.7-4.7c-0.5-2-1.8-3.4-4-3.9c-1.6-0.3-2.9,0.1-4.1,1.1 c-1.8,1.5-2.5,4.6-1.2,6.9c0.7,1.4,1.8,2.3,3.3,2.7c1.2,0.3,2.3,0.2,3.4-0.4c-0.7-0.8-1.4-1.5-2.1-2.3c0.2,0,0.3,0,0.5,0 c0.7,0,1.4,0,2.1,0c0.3,0,0.5,0.1,0.7,0.3C15.7,34.8,15.9,34.9,16.1,35.2 M19.6,39h-0.5c-0.6,0-1.3,0-1.9,0c-0.3,0-0.5-0.1-0.7-0.3 c0,0-0.1-0.1-0.1-0.1c-0.5-0.5-0.3-0.5-0.9-0.1c-1.5,0.7-3,1-4.6,0.7c-2.4-0.5-4.1-1.9-5.2-4.1c-0.7-1.5-0.9-3-0.7-4.6 c0.4-2.4,1.6-4.2,3.6-5.5c1.3-0.8,2.7-1,4.1-0.9c2.9,0.3,4.9,1.8,6.1,4.5c0.7,1.8,0.8,3.6,0.3,5.4c-0.3,1-0.8,1.8-1.4,2.6 c0,0.1,0,0.2,0,0.3c0.6,0.7,1.3,1.3,1.9,2C19.6,39,19.6,39,19.6,39"></path> <path class="st0" d="M48.1,18.9c0,0-0.1,0-0.1,0c-0.7,1.8-1.3,3.7-2,5.5H50C49.4,22.5,48.7,20.7,48.1,18.9 M41,31 c0.4-1,0.7-1.9,1.1-2.9c0.7-1.8,1.3-3.5,2-5.3c0.4-1,0.8-2.1,1.2-3.1c0.5-1.3,0.9-2.5,1.4-3.8c0.1-0.3,0.3-0.4,0.6-0.4 c0.6,0,1.1,0,1.7,0c0.1,0,0.3,0.1,0.4,0.3c0.4,1.1,0.8,2.2,1.2,3.2c0.4,1,0.8,2,1.1,3c0.6,1.5,1.1,3.1,1.7,4.6 c0.5,1.4,1,2.7,1.5,4.1c0,0.1,0,0.1,0,0.3c-0.8,0-1.6,0-2.4,0c-0.1,0-0.2-0.1-0.2-0.2c-0.4-1.2-0.9-2.4-1.3-3.6 c-0.2-0.6-0.2-0.6-0.8-0.6c-1.6,0-3.2,0-4.7,0c-0.3,0-0.4,0.1-0.6,0.4c-0.4,1.2-0.9,2.4-1.3,3.6c-0.1,0.3-0.3,0.4-0.6,0.4 C42.4,31,41.8,31,41,31"></path> </svg> 