<?xml version="1.0" encoding="UTF-8"?> <svg xmlns="http://www.w3.org/2000/svg" xmlns:xlink="http://www.w3.org/1999/xlink" version="1.1" id="Layer_1" x="0px" y="0px" viewBox="0 0 60 60" style="enable-background:new 0 0 60 60;" xml:space="preserve"> <style type="text/css"> .st0{fill:#FFFFFF;} .st1{fill:none;stroke:#FFFFFF;stroke-width:1.5535;stroke-linecap:round;stroke-linejoin:round;stroke-miterlimit:10;} </style> <path class="st0" d="M2.5,46.4c-0.3,0-0.5,0.1-0.5,0.4c0,1,0-0.1,0,0.9c0,0.8,0.2,0.9,1,1c0.2,0,0.4,0,0.6,0c7.4,0,21.1,0,28.5,0v0 c2.4,0,4.8,0,7.2,0c5.2,0,10.3,0,15.5,0c0.8,0,1.2-0.4,1.2-1.2c0-0.8,0,0.6,0-0.1c0-1,0-1-1.1-1L2.5,46.4z M49.4,44.7 c0.2,0,0.6,0,0.6,0c0.5,0,0.7-0.2,0.7-0.7c0-3,0-5.9,0-8.9c0-0.2,0-0.4,0-0.6c0-0.1,0-0.2,0-0.3c0.1-0.3,0.6-0.5,1.3-0.3 c0.3,0.1,0.5,0.3,0.5,0.6c0,2.9,0,5.8,0,8.8c0,0.4,0,0.7,0.1,1.1c0,0.3,0.2,0.4,0.5,0.4c0,0,3.9,0,4.3,0c0.2,0,0.4,0.1,0.4,0.3 c0,1.8,0,1.4,0,3.2c0,0.5-0.3,1.1-0.6,1.5c-0.2,0.2-0.4,0.3-0.6,0.5c-0.2,0.1-0.8,0.3-0.9,0.3c-4.9,0-9.9,0-14.8,0 c-2.8,0-5.7,0-8.5,0v0c-7.5,0-21.4,0-28.9,0c-0.3,0-0.7,0-1-0.1c-0.5,0-1.2-0.3-1.5-0.7c-0.2-0.2-0.5-0.5-0.5-1.4c0-1.8,0-1.5,0-3.3 c0-0.2,0.1-0.4,0.4-0.4L49.4,44.7z"></path> <path class="st0" d="M44.7,11.3L44.7,11.3c-3.6,0-7.2,0-10.8,0c-0.7,0-2.6-0.1-2.6,2.6c0,6.7,0,13.4,0,20.2c0,0.2,0,0.4,0,0.6 c0,0.1,0.2,0.3,0.3,0.3c0.1,0,0.2-0.1,0.3-0.2c0.1-0.1,0.3-0.2,0.4-0.4c0.4-0.4,4-3.6,4.5-4c0.4-0.4,0.8-0.6,1.4-0.6 c5.7,0,11.4,0,17.1,0c0.9,0,1.7-0.3,2.2-1.2c0.3-0.5,0.4-0.9,0.4-1.5c0-4.1,0-8.2,0-12.3c0-0.8,0-1.6-0.5-2.4c-0.3-0.5-0.5-1-2.1-1 C51.9,11.3,48.3,11.3,44.7,11.3 M29.6,14c0-4.5,3.7-4.4,4.5-4.4c0.5,0,1,0,1.4,0c6.7,0,13.4,0,20.1,0c0.9,0,1.8,0.2,2.4,0.7 c0.5,0.3,1,0.8,1.3,1.4c0.5,1,0.5,2,0.5,3.1c0,4.1,0,8.2,0,12.3c0,0.8-0.2,1.5-0.6,2.2c-0.3,0.7-0.8,1.1-1.3,1.4 c-0.7,0.5-1.5,0.7-2.5,0.7c-4.7,0-9.3,0-14,0c-0.8,0-1.6,0-2.4,0c-0.8-0.1-1.2,0.5-1.7,0.9c-0.2,0.2-3.7,3.3-4,3.7 c-0.2,0.2-0.5,0.4-0.8,0.7c-0.8,0.7-1.6,1.4-2.4,2.1c-0.1,0.1-0.2,0.1-0.3,0.1c-0.1-0.1-0.2-0.2-0.2-0.4c0-0.6,0-1.3,0-1.9 C29.5,33.1,29.5,18,29.6,14"></path> <path class="st0" d="M6,29.4c0-4.1,0-8.1,0-12.2c0-0.4,0.2-0.8,0.3-1.3c0.2-0.7,0.7-1.1,1.2-1.4c0.1,0,0.2-0.1,0.4-0.1 c0.7,0,1.4-0.1,2.2-0.1c5.3,0,11.8,0,17,0c1.1,0,0.9-0.1,0.9,1c0,0.8,0,0.8-0.8,0.8c-5.6,0-12.4,0-18,0c-0.1,0-0.2,0-0.3,0 c-0.8,0-1.2,0.4-1.2,1.2c0,8.2,0,18.8,0,26.9c0,0.7-0.1,0.8-0.8,0.8c-0.1,0-0.1,0-0.2,0C6,45,6,45,6,44.2C6,40.1,6,33.5,6,29.4 L6,29.4z"></path> <path class="st0" d="M39.9,20c0,1-0.8,1.7-1.8,1.7c-1,0-1.7-0.8-1.7-1.7c0-1,0.8-1.7,1.7-1.7C39.2,18.3,39.9,19.1,39.9,20"></path> <path class="st0" d="M46.4,20c0,1-0.8,1.7-1.8,1.7c-1,0-1.7-0.8-1.7-1.7c0-1,0.8-1.7,1.7-1.7C45.6,18.3,46.4,19.1,46.4,20"></path> <path class="st0" d="M52.7,20c0,1-0.8,1.7-1.8,1.7c-1,0-1.7-0.8-1.7-1.7c0-1,0.8-1.7,1.7-1.7C52,18.3,52.7,19.1,52.7,20"></path> <path class="st0" d="M22.6,28.3c0-2.5-1.7-4.4-3.9-4.4c-2.1,0-3.9,2-3.9,4.4c0,2.5,1.7,4.4,3.9,4.4C20.9,32.7,22.6,30.8,22.6,28.3 M18.8,34.4c-2.9,0-5.3-2.7-5.3-6.1s2.4-6.1,5.3-6.1c2.9,0,5.3,2.7,5.3,6.1S21.7,34.4,18.8,34.4"></path> <path class="st1" d="M26.4,41.6c0,0,0.3-6-5.7-8.4 M11.3,41.6c0,0-0.3-6,5.7-8.4"></path> </svg> 