<?xml version="1.0" encoding="UTF-8"?> <svg xmlns="http://www.w3.org/2000/svg" xmlns:xlink="http://www.w3.org/1999/xlink" version="1.1" id="Layer_1" x="0px" y="0px" viewBox="0 0 60 60" style="enable-background:new 0 0 60 60;" xml:space="preserve"> <style type="text/css"> .st0{fill:#FFFFFF;} </style> <path class="st0" d="M51.3,34.6c0,7.5,0,15,0,22.5c0,1.7-1.2,2.6-2.6,2.6c-11.9,0-23.7,0-35.6,0c-1.1,0-2-0.5-2.4-1.5 c-0.1-0.3-0.2-0.7-0.2-1.1c0-7.1,0-14.1,0-21.2c0-8,0-15.9,0-23.9c0-1,0.4-1.8,1.3-2.3c0.3-0.2,0.7-0.3,1.1-0.3c1.4,0,2.8,0,4.2,0 c0.2,0,0.3,0.1,0.3,0.3c0,0.5,0,1.1,0,1.6c0,0.3-0.1,0.4-0.4,0.4c-1.2,0-2.5,0-3.7,0c-0.3,0-1,0.1-1,0.5c0,9.8,0,19.6,0,29.5 c0,5.1,0,10.1,0,15.2c0,0.5,0.5,1.1,1.1,1.1c11.7,0,23.4,0,35.1,0c0.4,0,1-0.6,1-1c0-11.6,0-23.2,0-34.8c0-3.3,0-6.5,0-9.8 c0-0.5-0.5-0.5-1.1-0.5c-1.2,0-2.4,0-3.6,0c-0.3,0-0.4-0.1-0.4-0.4c0-0.6,0-1.1,0-1.7c0-0.2,0.1-0.3,0.3-0.3c1.4,0,2.9,0,4.3,0 c1.2,0,2.3,1,2.3,2.5c0,3.8,0,7.6,0,11.4C51.3,27.1,51.3,30.9,51.3,34.6"></path> <path class="st0" d="M44.7,22.2c0,1,0,0.9,0,1.8c0,0.1-0.1,0.2-0.2,0.2c-0.1,0-0.2,0-0.2,0c-4.4,0-8.8,0-13.3,0 c-0.4,0-0.5-0.1-0.5-0.5c0-0.8,0-0.5,0-1.3c0-0.3,0.1-0.3,0.3-0.3c4.5,0,9,0,13.6,0C44.5,22.2,44.6,22.2,44.7,22.2"></path> <path class="st0" d="M37.6,34.3c2.2,0,4.5,0,6.7,0c0.3,0,0.4,0.1,0.4,0.4c0,0.8,0,0.5,0,1.3c0,0.3-0.1,0.4-0.4,0.4 c-2.7,0-5.4,0-8.1,0c-1.8,0-3.5,0-5.3,0c-0.3,0-0.4-0.1-0.4-0.4c0-0.8,0-0.5,0-1.3c0-0.3,0.1-0.4,0.4-0.4 C33.2,34.3,35.4,34.3,37.6,34.3L37.6,34.3z"></path> <path class="st0" d="M37.6,48.8c-2.2,0-4.4,0-6.7,0c-0.3,0-0.4-0.1-0.4-0.4c0-0.8,0-0.5,0-1.3c0-0.2,0.1-0.3,0.3-0.3 c4.4,0,8.9,0,13.3,0c0.4,0,0.6,0.2,0.6,0.6c0,0.7,0,0.4,0,1.1c0,0.3-0.1,0.4-0.4,0.4C42.1,48.8,39.8,48.8,37.6,48.8"></path> <path class="st0" d="M25.8,20.4c-0.1,0.2-0.2,0.5-0.4,0.7c-1.8,1.8-3.6,3.6-5.4,5.4c-0.2,0.2-0.4,0.2-0.6,0 c-0.8-0.8-1.6-1.6-2.4-2.4c-0.4-0.4-0.4-0.9-0.1-1.4c0.3-0.4,0.8-0.6,1.3-0.4c0.3,0.1,0.5,0.4,0.7,0.6c0.2,0.2,0.4,0.4,0.6,0.6 c0.1,0.2,0.3,0.2,0.5,0c1.2-1.3,2.5-2.5,3.7-3.8c0.5-0.5,1-0.6,1.5-0.4C25.6,19.5,25.8,19.9,25.8,20.4"></path> <path class="st0" d="M25.9,32.4c-0.2,0.3-0.3,0.6-0.6,0.8c-1.4,1.5-2.9,2.9-4.3,4.3c-0.3,0.3-0.6,0.6-0.9,0.9 c-0.2,0.2-0.4,0.2-0.6,0c-0.8-0.8-1.7-1.6-2.5-2.5c-0.4-0.5-0.4-1.1,0.1-1.5c0.4-0.3,1-0.4,1.5,0c0.3,0.3,0.6,0.6,0.9,0.9 c0.2,0.2,0.3,0.2,0.5,0c1.3-1.3,2.6-2.6,3.9-3.9c0.3-0.3,0.7-0.5,1.2-0.3C25.5,31.6,25.8,31.9,25.9,32.4 C25.8,32.4,25.9,32.4,25.9,32.4"></path> <path class="st0" d="M25.9,44.9c-0.2,0.3-0.3,0.6-0.5,0.8c-1.4,1.5-2.9,2.9-4.3,4.3c-0.3,0.3-0.6,0.6-1,1c-0.2,0.2-0.4,0.2-0.6,0 c-0.8-0.8-1.6-1.6-2.4-2.5c-0.5-0.5-0.4-1.1,0.1-1.5c0.3-0.3,1-0.4,1.5,0.1c0.3,0.3,0.7,0.6,1,1c0.2,0.2,0.3,0.2,0.5,0 c1.3-1.3,2.6-2.6,3.9-3.9c0.3-0.3,0.7-0.4,1.2-0.2C25.6,44,25.8,44.4,25.9,44.9"></path> <path class="st0" d="M40.8,11.3V8.7c0-0.4-0.3-0.8-0.8-0.8H21.6c-0.4,0-0.8,0.3-0.8,0.8v2.6c0,0.4,0.3,0.8,0.8,0.8h18.5 C40.5,12.1,40.8,11.7,40.8,11.3 M30.9,2.4c-1.2-0.1-1.9,1-1.8,1.8c0,0.9,0.9,1.8,1.8,1.8c1.1,0,1.8-0.8,1.8-1.8 C32.7,3.5,32,2.4,30.9,2.4 M30.9,13.6c-3.3,0-6.6,0-10,0c-1,0-1.7-0.7-1.7-1.7c0-1.2,0-2.4,0-3.6c-0.1-1,0.8-1.7,1.7-1.7 c1.2,0,2.4,0,3.6,0c0.3,0,0.5,0,0.5-0.4c0.1-1.3,0.6-2.5,1.4-3.5c1.2-1.6,2.8-2.4,4.8-2.3c2.6,0.1,4.7,2.2,5.3,4.7 c0.1,0.4,0.2,0.8,0.2,1.3c0,0.3,0.1,0.3,0.4,0.3c1.2,0,2.4,0,3.6,0c0.7,0,1.3,0.3,1.6,1c0.1,0.2,0.1,0.4,0.1,0.6c0,1.3,0,2.6,0,3.8 c0,0.9-0.7,1.6-1.6,1.6C37.5,13.6,34.2,13.6,30.9,13.6"></path> </svg> 