<?xml version="1.0" encoding="UTF-8"?> <svg xmlns="http://www.w3.org/2000/svg" xmlns:xlink="http://www.w3.org/1999/xlink" version="1.1" id="Layer_1" x="0px" y="0px" viewBox="0 0 60 60" style="enable-background:new 0 0 60 60;" xml:space="preserve"> <style type="text/css"> .st0{fill:#FFFFFF;} </style> <path class="st0" d="M35.4,58.3c0.2-0.5,0.4-1,0.6-1.5c0.7-1.3,1.7-2.3,3-3.1c0.7-0.5,1.5-0.9,2.3-1c1-0.1,2-0.1,3-0.2 c1.4,0,2.7,0,4.1-0.3c1.2-0.3,1.9-0.8,1.9-2.1c0-1.3-0.2-2.5-0.4-3.7c-0.2-0.8,0-1.6,0.6-2.2c0.2-0.2,0.3-0.3,0.4-0.5 c0.1-0.1,0.2-0.3,0.1-0.5c0-0.1-0.3-0.1-0.4-0.1c-0.4,0-0.7-0.3-0.7-0.7c0-0.5,0.1-0.7,0.6-0.9c0.3-0.1,0.7-0.2,1-0.3 c0.3-0.1,0.3-0.3,0.3-0.5c-0.2-0.7-0.3-1.5-0.5-2.2c-0.1-0.9,0.4-1.5,1.2-1.7c0.8-0.2,1.6-0.4,2.4-0.7c0.6-0.2,0.8-0.6,0.6-1.2 c-0.4-0.8-0.8-1.6-1.2-2.3c-1.1-1.7-2.3-3.4-3.5-5.1c-0.7-1-1-2-0.9-3.2c0.2-1.6,0.2-3.2,0.2-4.8c0-1.8-0.2-3.5-0.6-5.2 c-0.4-1.5-1-3-1.8-4.4C46.5,8,45,6.6,43.2,5.4c-1.8-1.2-3.7-2-5.7-2.5c-1-0.2-1.9-0.4-2.9-0.6c-1.5-0.2-2.9-0.4-4.4-0.4 c-3.1-0.1-6.1,0.1-9.1,0.7c-1.5,0.3-3,0.7-4.5,1.2c-1.3,0.5-2.6,1.1-3.9,1.7C11,6.4,9.4,7.6,8.1,9c-2.6,2.7-4,5.9-4.1,9.6 c0,0.9,0,1.9,0.1,2.8c0.1,1.4,0.3,2.8,0.5,4.2c0.2,1.2,0.6,2.3,0.9,3.4c0.9,2.7,2.2,5.2,3.8,7.5c1,1.4,2.1,2.9,2.7,4.6 c0.6,1.5,1,3.1,1.2,4.8c0.2,2,0.1,3.9-0.2,5.8c-0.3,1.5-0.7,3-1.2,4.5c-0.2,0.5-0.4,1-0.6,1.6C19.2,58,27.3,58.2,35.4,58.3 M28.8,0.3c1.6,0.1,3.2,0.2,4.7,0.3c1.4,0.2,2.7,0.4,4.1,0.7c2.2,0.5,4.2,1.3,6.1,2.5c2.3,1.4,4.1,3.3,5.4,5.6 c0.7,1.3,1.3,2.7,1.6,4.1c0.5,1.9,0.7,3.8,0.7,5.8c0,1.7,0,3.4-0.2,5.2c-0.1,0.7,0.2,1.4,0.6,1.9c0.9,1.3,1.9,2.6,2.7,3.9 c0.8,1.2,1.5,2.4,2.1,3.6c0.4,0.7,0.6,1.6,0.1,2.4c-0.3,0.5-0.8,0.9-1.3,1.1c-0.7,0.3-1.5,0.5-2.2,0.7c-0.3,0.1-0.4,0.2-0.4,0.5 c0.1,0.6,0.3,1.1,0.4,1.7c0.1,0.5,0.2,1-0.1,1.5c-0.1,0.2-0.3,0.3-0.5,0.5c-0.1,0.1-0.1,0.2-0.1,0.2c0.3,0.9,0,1.7-0.6,2.2 c-0.6,0.6-0.5,1.3-0.4,2c0.1,1,0.3,2.1,0.3,3.1c0,0.6-0.1,1.3-0.3,1.9c-0.3,0.8-0.9,1.3-1.7,1.6c-1.4,0.6-2.8,0.6-4.3,0.7 c-0.8,0-1.7,0-2.5,0c-1.4-0.1-2.7,0.5-3.8,1.3c-0.9,0.7-1.6,1.4-2,2.4c-0.2,0.4-0.3,0.8-0.3,1.2c-0.1,0.6-0.3,0.8-0.9,0.8 c-3.3-0.1-6.5-0.1-9.8-0.2c-4-0.1-7.9-0.2-11.9-0.2c-1.4,0-2.8-0.1-4.2-0.1c-0.6,0-1-0.6-0.7-1.2c0.6-1.2,1.1-2.4,1.5-3.6 c0.7-2.1,1.1-4.2,1-6.4c0-1.1-0.2-2.2-0.3-3.2c-0.2-1.5-0.7-3-1.4-4.3c-0.5-1-1.2-1.8-1.8-2.8c-0.9-1.4-1.8-2.7-2.6-4.1 c-0.6-1-1-2.1-1.4-3.1c-0.4-1-0.7-2-1-3c-0.4-1.8-0.7-3.6-0.8-5.4c-0.1-1.6-0.2-3.1,0-4.7c0.2-1.6,0.6-3.2,1.2-4.7 C5,9.9,7,7.6,9.5,5.8c1.5-1.1,3.1-2,4.8-2.7c1.5-0.6,3.1-1.1,4.6-1.5c2.4-0.7,4.8-1,7.2-1.1c0.9,0,1.8,0,2.6,0 C28.8,0.4,28.8,0.4,28.8,0.3"></path> <path class="st0" d="M28.1,32c3.6-0.2,7.6-3.4,7.6-8.4c-0.1-4.9-4.1-8-7.6-8.2V32z M28,37.3C28.1,37.3,28.1,37.3,28,37.3 c0.1-0.1,0.2-0.2,0.3-0.3c0.2-0.3,0.3-0.6,0.5-0.9c0.3-0.5,0.8-0.7,1.4-0.8c0.6-0.1,1.1-0.1,1.5,0.3c0.4,0.3,0.8,0.6,1.2,0.9 c0.1,0.1,0.3,0.1,0.4,0c0.4-0.2,0.9-0.5,1.3-0.7c0.2-0.1,0.2-0.2,0.2-0.4c0-0.6,0-1.2,0-1.8c0-0.4,0.2-0.7,0.4-0.9 c0.2-0.2,0.4-0.4,0.6-0.5c0.4-0.3,0.8-0.4,1.3-0.4c0.5,0.1,1,0.1,1.5,0.1c0.1,0,0.3-0.1,0.3-0.1c0.3-0.4,0.5-0.8,0.8-1.3 c0.1-0.1,0.1-0.3,0-0.5c-0.2-0.3-0.4-0.6-0.6-1c-0.3-0.4-0.6-0.8-0.5-1.4c0.1-0.4,0.2-0.8,0.4-1.2c0.1-0.2,0.3-0.4,0.5-0.6 c0.5-0.3,1-0.5,1.6-0.7c0.1-0.1,0.3-0.2,0.3-0.4c0.1-0.4,0-0.8,0.1-1.2c0-0.4-0.1-0.6-0.4-0.7c-0.4-0.1-0.7-0.3-1-0.5 c-0.7-0.3-0.9-0.9-1.1-1.6c-0.1-0.6-0.1-1,0.3-1.5c0.3-0.4,0.6-0.9,0.9-1.3c0.1-0.1,0.1-0.2,0-0.3c-0.2-0.4-0.4-0.9-0.7-1.3 c-0.1-0.2-0.2-0.3-0.5-0.2c-0.5,0-1,0-1.5,0c-0.3,0-0.6,0-0.8-0.1c-1-0.6-1.5-1.4-1.3-2.4c0-0.1,0-0.3,0-0.4 c0.3-0.8-0.1-1.3-0.8-1.7c0,0-0.1,0-0.1-0.1c-0.4-0.4-0.8-0.3-1.2,0c-0.1,0.1-0.3,0.2-0.4,0.3c-0.7,0.5-1.3,0.8-2.2,0.4 c0,0,0,0-0.1,0c-0.5-0.1-0.9-0.3-1.1-0.8c-0.2-0.5-0.5-0.9-0.6-1.4c-0.1-0.4-0.4-0.4-0.7-0.4v4.2c0.3,0.1,0.6,0.1,0.9,0.2 c1.4,0.3,2.7,0.8,3.9,1.6c1.4,0.9,2.4,2.2,3.2,3.6c0.5,1,0.9,2.1,1,3.2c0.1,1.4,0.1,2.9-0.4,4.3c-0.5,1.5-1.3,2.8-2.4,4 c-1.6,1.6-3.6,2.6-5.9,2.8c-0.2,0-0.3,0.1-0.3,0.3c0,0.4,0,0.7,0,1.1C28,35.8,28,36.5,28,37.3 M26.5,23.7c0-4.9,0-9.7,0-14.6 c0-0.4,0.1-0.7,0.4-0.9c0.1,0,0.1-0.1,0.2-0.1c0.5,0,1,0,1.6,0c0.7,0.1,1.2,0.6,1.5,1.2c0.2,0.4,0.3,0.8,0.5,1.2 c0.1,0.3,0.6,0.4,0.9,0.3c0.4-0.3,0.8-0.5,1.2-0.8c0.6-0.5,1.3-0.4,1.9,0c0.5,0.3,1,0.6,1.4,0.9c0.6,0.4,0.9,0.9,0.8,1.6 c-0.1,0.5-0.1,1-0.1,1.5c0,0.4,0.3,0.7,0.7,0.7c0.5,0,1,0,1.5-0.1c0.7,0,1.2,0.2,1.5,0.8c0.3,0.6,0.7,1.2,1,1.8 c0.3,0.6,0.2,1.2-0.2,1.8c-0.2,0.3-0.5,0.7-0.7,1c-0.4,0.5-0.3,0.9,0.3,1.2c0.5,0.3,1,0.5,1.4,0.8c0.5,0.3,0.7,0.7,0.7,1.3 c0,0.5,0,1.1,0,1.6c0,0.9-0.4,1.5-1.3,1.8c-0.4,0.1-0.8,0.3-1.1,0.5c-0.4,0.2-0.5,0.7-0.3,1c0.3,0.4,0.5,0.8,0.8,1.2 c0.3,0.5,0.4,1.1,0.1,1.7c-0.4,0.6-0.7,1.2-1.1,1.8c-0.3,0.5-0.8,0.6-1.4,0.6c-0.5,0-1-0.1-1.6-0.1c-0.3,0-0.7,0.3-0.7,0.6 c0,0.5,0,1,0.1,1.5c0,0.7-0.2,1.2-0.7,1.5c-0.6,0.4-1.3,0.7-2,1c-0.5,0.2-1,0.1-1.4-0.2c-0.4-0.3-0.8-0.6-1.3-0.9 c-0.4-0.3-0.8-0.1-1,0.3c-0.2,0.5-0.5,1-0.7,1.4c-0.2,0.4-0.6,0.7-1.1,0.7c-0.3,0-0.6,0-0.8,0c-0.4,0-0.7-0.3-0.8-0.7 c0-0.1,0-0.2,0-0.3C26.5,33.4,26.5,28.6,26.5,23.7z"></path> <path class="st0" d="M12.2,20.6c1.7-1,3.4-1.1,5-0.2c1.6,0.9,2.5,2.3,2.5,4.2c0,0.4-0.3,0.8-0.7,0.8c-0.4,0-0.7-0.3-0.8-0.8 c0-0.3,0-0.7-0.1-1c-0.6-1.7-2.4-2.7-3.9-2.3c-1.4,0.4-2.4,1.4-2.6,2.8c-0.2,1.3,0.5,2.7,1.6,3.3c0.5,0.3,0.6,0.8,0.3,1.2 c-0.5,0.8-0.7,1.6-0.5,2.5c0.3,1.4,1.5,2.5,2.8,2.6c0.2,0,0.3,0,0.3-0.2c0.1-0.5,0.2-1.1,0.5-1.5c0.9-1.7,2.3-2.5,4.2-2.6 c0.5,0,0.8,0.3,0.8,0.7c0,0.4-0.3,0.7-0.8,0.8c-0.3,0-0.6,0-0.9,0.1c-1.7,0.5-2.6,2.3-2.4,3.7c0.4,1.9,2.1,3.1,4.1,2.7 c1.5-0.3,2.5-1.7,2.5-3.3c0-7.4,0-14.9,0-22.3c0-1.2-0.7-2.1-1.8-2.4c-0.9-0.2-1.7,0-2.3,0.6c-0.6,0.7-0.9,1.5-0.6,2.3 c0.3,1,1.1,1.7,2.3,1.8c0.5,0,0.8,0.4,0.8,0.8c0,0.4-0.4,0.7-0.9,0.7c-0.8-0.1-1.6-0.3-2.2-0.8c-0.8-0.6-1.3-1.4-1.5-2.4 c0-0.2-0.2-0.3-0.4-0.3c-0.9,0-1.7,0.3-2.3,0.9c-0.9,0.9-1.2,2-0.9,3.2c0.1,0.5-0.1,0.8-0.6,0.9c-0.7,0.2-1.3,0.6-1.6,1.3 C11.9,19.2,11.9,19.9,12.2,20.6 M25.8,23c0,3.7,0,7.5,0,11.2c0,2.4-1.7,4.4-4.1,4.8c-2,0.3-4.2-0.8-5.1-2.7 c-0.1-0.2-0.2-0.5-0.3-0.7c-0.1-0.1-0.2-0.2-0.3-0.3c-1.5-0.1-2.7-0.8-3.6-2c-1-1.3-1.2-2.8-0.7-4.4c0.1-0.4,0.1-0.6-0.2-0.9 c-1.3-1.2-1.8-2.8-1.4-4.5c0.1-0.5,0.4-1.1,0.6-1.6c0.1-0.2,0.2-0.4,0-0.6c-0.9-1.7-0.5-3.7,1-4.9c0.2-0.2,0.5-0.3,0.7-0.5 c0.1-0.1,0.2-0.2,0.2-0.4c0-2.1,0.9-3.6,2.7-4.5c0.7-0.3,1.4-0.5,2.1-0.5c0.4,0,0.5-0.1,0.6-0.4c0.4-0.9,1-1.6,1.8-2 c1.5-0.7,2.9-0.6,4.2,0.4c1,0.8,1.5,1.8,1.5,3.1C25.8,15.5,25.8,19.3,25.8,23L25.8,23z"></path> </svg> 