<?xml version="1.0" encoding="UTF-8"?> <svg xmlns="http://www.w3.org/2000/svg" xmlns:xlink="http://www.w3.org/1999/xlink" version="1.1" id="Layer_1" x="0px" y="0px" viewBox="0 0 60 60" style="enable-background:new 0 0 60 60;" xml:space="preserve"> <style type="text/css"> .st0{fill:#FFFFFF;} </style> <path class="st0" d="M30,54.4L30,54.4l-26.8,0c-0.3,0-0.6,0-0.9,0c-0.1,0-0.2,0.1-0.3,0.2c-0.2,0.7,0,1.4,0.6,1.7 c0.2,0.1,0.6,0.1,0.9,0.1c17.1,0,34.1,0,51.2,0c0.8,0,1.6,0,2.4,0c0.3,0,0.5-0.2,0.7-0.3c0.4-0.3,0.3-0.8,0.3-1.2 c0-0.4-0.1-0.5-0.5-0.5c-3.1,0-6.2,0-9.3,0C42.2,54.4,36.1,54.4,30,54.4 M30,52.6c6,0,12.1,0,18.1,0c0.1,0,0.2,0,0.3,0 c0.1-0.1,0.3-0.2,0.3-0.2c0.2-2.1-0.4-3.8-2-5.1c-1.6-1.4-3.5-1.5-5.5-1c-0.5,0.1-0.7,0-0.9-0.4c-0.1-0.3-0.2-0.5-0.4-0.8 c-1.2-1.9-3.7-2.5-5.6-1c-0.4,0.3-0.8,0.3-1.1,0.1c-0.3-0.2-0.4-0.6-0.3-1c0.2-0.7,0.1-1.4-0.2-2.1c-0.5-1-1.4-1.5-2.5-1.6 c-1.1,0-2,0.5-2.6,1.5c-0.4,0.7-0.4,1.5-0.2,2.2c0.1,0.6-0.2,1.1-0.7,1.1c-0.3,0-0.6-0.2-0.8-0.3c-0.8-0.6-1.7-0.9-2.7-0.7 c-1.6,0.2-2.6,1.1-3.2,2.6c-0.2,0.5-0.6,0.7-1.1,0.5c-0.3-0.1-0.6-0.2-1-0.2c-1.3-0.2-2.5,0-3.7,0.7c-1.9,1.1-3,3.2-2.8,5.4 c0,0.4,0.2,0.5,0.6,0.5C17.9,52.6,24,52.6,30,52.6 M34.6,41.8c0.2,0,0.4,0,0.5-0.1c2-0.6,4.4,0.2,5.6,1.8c0.1,0.1,0.3,0.3,0.3,0.5 c0.2,0.5,0.5,0.5,1,0.5c1.4-0.3,2.8,0,4.1,0.6c1.2,0.5,2.2,1.4,3,2.5c1,1.5,1.5,3.1,1.3,4.9c0,0.3,0.1,0.3,0.3,0.3 c0.8,0,1.6,0,2.4,0c0.2,0,0.4-0.1,0.3-0.3c0-0.4,0-0.8,0-1.2v-30c0-0.9-0.3-1.5-1.1-1.9C52,19,51.7,19,51.4,19c-3.7,0-7.3,0-11,0 c-0.6,0-1-0.4-1-0.9c0-0.4,0.3-0.7,0.7-0.8c0.1,0,0.3,0,0.4,0c3.6,0,7.2,0,10.8,0c1.4,0,2.5,0.6,3.3,1.8c0.4,0.6,0.5,1.3,0.5,2 c0,10.3,0,20.6,0,30.9c0,0.7-0.1,0.6,0.6,0.6c1,0,2,0,2.9,0c0.7,0,1.1,0.3,1.1,1c0,0.5,0,1.1,0,1.6c0,1.4-1.2,2.8-2.7,2.8 c-1.2,0-2.4,0-3.6,0c-16.8,0-33.5,0-50.3,0c-1.4,0-2.4-0.8-2.7-1.9c-0.1-0.4-0.1-0.8-0.1-1.2c0-0.5,0-1,0-1.5c0-0.6,0.3-0.9,0.9-0.9 c1,0,2,0,3.1,0c0.6,0,0.6,0,0.6-0.6c0-7.6,0-15.3,0-22.9c0-2.7,0-5.4,0-8.1c0-1.7,0.7-2.9,2.3-3.5c0.4-0.2,0.9-0.3,1.3-0.3 c3.7,0,7.4,0,11.1,0c0.3,0,0.6,0.1,0.8,0.4c0.2,0.2,0.3,0.5,0.1,0.8c-0.2,0.3-0.4,0.5-0.8,0.6c-0.1,0-0.3,0-0.4,0 c-3.6,0-7.1,0-10.7,0c-1.1,0-2.1,0.9-2.1,2.1c0,10.3,0,20.6,0,31c0,0.2,0,0.4,0,0.6h2.9c0-0.2,0-0.4,0-0.5c-0.1-2.6,0.9-4.7,2.9-6.3 c0.7-0.5,1.4-0.9,2.2-1.2c1.2-0.5,2.4-0.4,3.6-0.3c0.2,0,0.4,0,0.5-0.2c1.2-2,3.8-3.2,6.1-2.5c0.1,0,0.3,0.1,0.5,0.1 c0.7-2.7,2.4-4.3,5.2-4C32.8,38,34.1,39.5,34.6,41.8"></path> <path class="st0" d="M32.6,34c-0.2-0.7-0.3-1.2-0.5-1.8c0-0.1-0.2-0.2-0.3-0.2c-1.2,0-2.5,0-3.7,0c-0.1,0-0.3,0.1-0.3,0.3 c-0.1,0.5-0.2,0.9-0.3,1.4c-0.1,0.3,0,0.3,0.3,0.3c0.6,0,1.1,0,1.7,0C30.5,34,31.5,34,32.6,34 M19.8,31.4c0.1,0,0.1,0,0.2,0 c1.5-0.9,3-1.7,4.5-2.5c0.2-0.1,0.2-0.3,0.1-0.5c-0.3-1-0.7-2-1-2.9c0-0.1-0.1-0.1-0.2-0.2c-0.9,1.1-1.7,2.1-2.7,3.1 C19.9,29.2,19.5,30.2,19.8,31.4 M36.7,25.2c-0.1,0.1-0.1,0.1-0.1,0.2c-0.4,1-0.7,2-1.1,3c-0.1,0.2,0,0.3,0.2,0.4 c1.2,0.7,2.4,1.4,3.7,2.1c0.3,0.2,0.7,0.4,1.1,0.6c0-0.4,0-0.7,0-1.1c0-0.6-0.2-1.1-0.5-1.5c-0.6-0.7-1.2-1.4-1.8-2.1 C37.6,26.3,37.1,25.8,36.7,25.2 M33.6,9.7c0-0.1,0-0.1-0.1-0.2c-0.8-1.7-1.9-3.3-3.1-4.7c-0.3-0.4-0.4-0.4-0.7,0 c-1,1.1-1.9,2.3-2.6,3.7c-0.2,0.4-0.4,0.8-0.6,1.2H33.6z M30,11.5c-1.3,0-2.6,0-3.9,0c-0.4,0-0.5,0.1-0.6,0.5 c-0.4,1.3-0.7,2.7-1,4.1c-0.4,3.1-0.2,6.1,0.6,9c0.5,1.7,1.2,3.4,2.1,4.9c0.1,0.1,0.3,0.3,0.5,0.3c1.4,0,2.9,0,4.3,0 c0.3,0,0.5-0.1,0.7-0.4c1.1-2,2-4.1,2.4-6.4c0.4-1.9,0.6-3.9,0.4-5.9c-0.2-2-0.5-4-1.2-5.9c-0.1-0.3-0.3-0.3-0.5-0.3 C32.6,11.5,31.3,11.5,30,11.5 M30,35.7c-1.2,0-2.4,0-3.5,0c-0.9,0-1.2-0.5-1-1.3c0.2-0.8,0.4-1.7,0.7-2.5c0.1-0.3-0.1-0.6-0.2-0.9 c-0.6-0.9-0.3-0.9-1.2-0.3c-1.8,1-3.6,2-5.4,3c-0.6,0.3-1.4,0-1.4-0.8c0-0.9,0-1.9,0-2.8c0-1.1,0.5-1.9,1.2-2.7 c1.2-1.4,2.4-2.8,3.6-4.3c0.1-0.1,0.2-0.4,0.2-0.6c-0.3-2.1-0.3-4.3-0.1-6.4c0.1-0.9,0.3-1.7,0.5-2.6c0.4-1.8,1-3.5,1.9-5.2 c0.8-1.5,1.7-2.9,2.8-4.2c0.5-0.6,1-1.1,1.5-1.6c0.4-0.4,0.9-0.4,1.3,0c1.9,1.8,3.3,3.9,4.4,6.2c0.9,1.8,1.5,3.7,1.9,5.7 c0.4,2.1,0.5,4.3,0.3,6.5c-0.1,0.6-0.1,1.1-0.2,1.7c0,0.1,0,0.3,0.1,0.4c1.2,1.5,2.4,2.9,3.6,4.3c0.8,0.9,1.3,2,1.2,3.2 c0,0.7,0,1.4,0,2.2c0,0.8-0.7,1.2-1.4,0.8c-1.9-1.1-3.8-2.1-5.7-3.2c-0.3-0.2-0.5-0.3-0.7,0.2c0,0.1-0.1,0.2-0.1,0.2 c-0.4,0.4-0.4,0.9-0.2,1.4c0.3,0.8,0.4,1.6,0.6,2.4c0.1,0.6-0.3,1.1-1,1.1C32.4,35.7,31.2,35.7,30,35.7"></path> <path class="st0" d="M30,16.2c-1,0-2,0.9-2,1.9c0,1,0.9,2,1.9,2c1,0,2-0.9,2-1.9C32,17.1,31.1,16.2,30,16.2 M30,14.4 c2,0,3.7,1.6,3.6,3.7c0,2-1.7,3.7-3.7,3.6c-2,0-3.6-1.7-3.6-3.7C26.4,16,28,14.4,30,14.4"></path> </svg> 