<?xml version="1.0" encoding="UTF-8"?> <svg xmlns="http://www.w3.org/2000/svg" xmlns:xlink="http://www.w3.org/1999/xlink" version="1.1" id="Layer_1" x="0px" y="0px" viewBox="0 0 60 60" style="enable-background:new 0 0 60 60;" xml:space="preserve"> <style type="text/css"> .st0{fill:#FFFFFF;} </style> <g id="I71IBC_00000078041476340776074430000008310914109029143222_"> <g> <path class="st0" d="M0.7,26.8c0-6,0-12.1,0-18.1c0-1.6,0.7-2.8,1.9-3.6c0.6-0.4,1.3-0.5,2-0.5c6.1,0,12.2,0,18.4,0 c1.2,0,2.4,0,3.6,0c1.2,0,2.2,0.5,3,1.5c0.4,0.5,0.6,1,0.8,1.6c0.2,0.5,0.4,0.9,0.5,1.4c0.2,0.5,0.3,0.9,0.5,1.4 c0.3,0.6,0.8,1.1,1.4,1.3c0.3,0.1,0.7,0.1,1,0.1c4.3,0,8.7,0,13,0c1,0,1.8,0.4,2.4,1.2c0.4,0.5,0.6,1.2,0.6,1.9c0,1.2,0,2.3,0,3.5 c0,0.2,0,0.3,0.2,0.3c2.1,0,4.1,0,6.2,0c0.6,0,1.3,0,1.8,0.3c1,0.5,1.7,1.5,1.3,2.7c-0.2,0.6-0.4,1.2-0.7,1.8 c-0.5,1.3-1.1,2.6-1.6,3.9c-0.9,2.1-1.8,4.2-2.6,6.3c-0.4,0.9-0.8,1.8-1.2,2.7c-0.1,0.1-0.1,0.2,0.1,0.3c0.7,0.7,1.3,1.5,1.7,2.5 c0.3,0.8,0.6,1.7,0.6,2.5c0,1.9,0,3.9,0,5.8c0,1.5-0.6,2.8-1.4,4c-0.7,1-1.5,1.7-2.5,2.3c-1,0.5-2,0.8-3.1,0.8c-1.4,0-4.9,0-6.3,0 c-0.9,0-1.7-0.2-2.6-0.5c-1.1-0.5-2-1.2-2.8-2.1c-0.6-0.7-1-1.5-1.3-2.4c-0.2-0.5-0.3-1-0.3-1.6c0-0.3,0-0.3-0.3-0.3 c-11.1,0-20.3,0-31.4,0c-0.8,0-1.6-0.2-2.2-0.9c-0.3-0.4-0.5-0.8-0.7-1.3c0-0.1,0-0.2,0-0.3c0-2.7,0-5.5,0-8.2 C0.7,33.5,0.7,30.1,0.7,26.8z M51.8,35.5c0-0.1,0.1-0.2,0.1-0.2c0.5-1.3,1.1-2.6,1.6-3.9c0.6-1.5,1.3-3,1.9-4.6 c0.8-1.8,1.5-3.6,2.3-5.5c0.1-0.3,0-0.5-0.2-0.6c-0.3-0.2-0.7-0.2-1-0.2c-6.8,0-13.7,0-20.5,0c-5.6,0-11.2,0-16.9,0 c-1.3,0-2.5,0-3.8,0c-0.8,0-1.5,0.3-2.1,0.9c-0.4,0.5-0.8,1-1.1,1.5c-0.3,0.4-0.5,0.9-0.7,1.4c-0.4,0.9-0.8,1.7-1.2,2.6 c-0.6,1.3-1.1,2.6-1.7,3.9c-0.4,1-0.9,2-1.3,3c-0.6,1.3-1.1,2.6-1.7,3.9c-0.4,0.9-0.8,1.8-1.2,2.8c-0.4,1-0.9,1.9-1.3,2.9 c-0.2,0.4-0.3,0.8-0.3,1.3c-0.1,0.3,0.1,0.5,0.3,0.6c0.2,0.1,0.5,0.2,0.7,0.2c2.2,0,4.5,0,6.7,0c8.9,0,15.8,0,24.7,0 c0.2,0,0.2-0.1,0.2-0.3c0-1.1,0-2.2,0-3.3c0-0.8,0.2-1.6,0.4-2.3c0.3-0.8,0.7-1.6,1.2-2.2c0.8-1.1,1.8-1.8,3-2.3 c0.9-0.4,1.8-0.5,2.7-0.5c1.2,0,4.4,0,5.6,0C49.4,34.7,50.6,34.9,51.8,35.5z M2.4,40.1C2.4,40.1,2.5,40.1,2.4,40.1 c0.1,0,0.1-0.1,0.1-0.1c0.2-0.5,0.4-1,0.7-1.5c0.4-0.9,0.8-1.8,1.2-2.7c0.4-0.9,0.8-1.7,1.1-2.6c0.3-0.6,0.6-1.3,0.9-1.9 c0.4-0.9,0.8-1.7,1.1-2.6c0.2-0.4,0.4-0.8,0.5-1.1c0.2-0.5,0.4-1.1,0.7-1.6c0.2-0.5,0.5-1.1,0.7-1.6c0.3-0.6,0.5-1.3,0.8-1.8 c0.3-0.6,0.6-1.1,1-1.6c0.7-1,1.6-1.7,2.8-2c0.7-0.2,1.4-0.2,2-0.2c3.1,0,6.2,0,9.3,0c3.6,0,7.1,0,10.7,0c3.9,0,7.9,0,11.8,0 c0.2,0,0.2,0,0.2-0.2c0-1.2,0-2.4,0-3.5c0-0.2-0.1-0.5-0.2-0.7c-0.2-0.4-0.6-0.5-1-0.5c-4.4,0-8.8,0-13.2,0 c-0.6,0-1.2-0.1-1.8-0.4c-0.7-0.3-1.2-0.8-1.6-1.4c-0.3-0.4-0.5-0.9-0.7-1.4c-0.3-0.9-0.7-1.7-1-2.6c-0.3-0.9-1.1-1.5-2-1.5 c-7.1,0-14.1,0-21.2,0c-0.3,0-0.5,0-0.8,0C3.9,6.5,3.4,6.7,3,7.2c-0.4,0.5-0.6,1-0.6,1.6c0,10.3,0,20.6,0,31 C2.4,39.9,2.4,40,2.4,40.1z M46.5,36.7C46.5,36.6,46.5,36.6,46.5,36.7c-0.8,0-3.5,0-4.3,0c-0.8,0-1.5,0.2-2.2,0.6 c-0.7,0.4-1.3,0.9-1.8,1.6c-0.7,1-1.1,2.1-1.1,3.3c0,1.6,0,3.2,0,4.8c0,1.2,0.3,2.2,0.9,3.2c1,1.7,2.5,2.5,4.4,2.6 c1.5,0,4.9,0,6.4,0c0.8,0,1.6-0.2,2.3-0.6c0.4-0.2,0.8-0.5,1.2-0.9c1.2-1.1,1.8-2.5,1.8-4.2c0-1.5,0-3,0-4.5c0-0.5,0-1-0.1-1.5 c-0.2-0.8-0.5-1.6-1-2.3c-0.5-0.7-1.2-1.3-2-1.7c-0.5-0.2-1.1-0.4-1.6-0.4C48.3,36.6,47.4,36.7,46.5,36.7z"></path> <path class="st0" d="M44.6,47.2c0-0.4,0-0.8,0-1.1c0-0.2-0.1-0.3-0.3-0.3c-0.7,0-1.3,0-2,0c-0.7,0-1.1-0.6-0.9-1.3 c0.1-0.4,0.4-0.7,0.9-0.7c0.7,0,1.4,0,2.1,0c0.2,0,0.3-0.1,0.3-0.3c0-0.8,0-1.7,0-2.5c0-0.3,0.4-0.8,0.9-0.7 c0.6,0.1,0.9,0.5,0.9,1.1c0,0.7,0,1.4,0,2.1c0,0.2,0.1,0.3,0.3,0.3c0.7,0,1.3,0,2,0c0.7,0,1.2,0.6,0.9,1.3 c-0.1,0.3-0.5,0.6-0.8,0.6c-0.7,0-1.4,0-2.1,0c-0.2,0-0.2,0-0.2,0.2c0,0.7,0,1.5,0,2.2c0,0.6-0.5,1-0.9,1c-0.4,0-0.9-0.4-0.9-0.9 c0-0.2,0-0.4,0-0.6C44.6,47.6,44.6,47.4,44.6,47.2z"></path> </g> </g> </svg> 