<?xml version="1.0" encoding="UTF-8"?> <svg xmlns="http://www.w3.org/2000/svg" xmlns:xlink="http://www.w3.org/1999/xlink" version="1.1" id="Layer_1" x="0px" y="0px" viewBox="0 0 60 60" style="enable-background:new 0 0 60 60;" xml:space="preserve"> <style type="text/css"> .st0{fill:none;stroke:#FFFFFF;stroke-width:2.1534;stroke-miterlimit:10;} </style> <path class="st0" d="M15.8,24.3c1.7,0.1,2.4,0.5,3.1,1.5c1.3,1.8,2.6,3.6,3.8,5.4l1.6,2.2c1.1,1.6,2,1.8,2.5,1.8 c0.6,0,1.4-0.2,2.3-1.2l4.1-5l1.8-2.2l4.7-5.7L52.5,5.2c0.5-0.7,1.2-1,1.9-1c0.6,0,1.2,0.4,1.6,1c0.5,0.7,0.4,1.6-0.1,2.4l-3.1,4.5 l-1.4,2.1L40.6,29.5L28.5,46.9c-0.9,1.3-1.9,1.7-3.1,1.2c-0.5-0.2-0.9-0.6-1.2-1.1c-1.9-2.7-3.8-5.3-5.6-8c-1.9-2.7-3.8-5.5-5.8-8.2 c-0.8-1.1-1-2.3-0.7-3.5c0.3-1.1,1-2,2-2.5C14.5,24.5,15.2,24.3,15.8,24.3z"></path> <path class="st0" d="M55.2,16.7c2.1,4,3.3,8.5,3.3,13.4c0,15.7-12.7,28.4-28.4,28.4S1.7,45.8,1.7,30.1c0-15.7,12.7-28.4,28.4-28.4 c5.4,0,10.5,1.5,14.8,4.1"></path> </svg> 