<?xml version="1.0" encoding="UTF-8"?>
<svg id="Layer_1" xmlns="http://www.w3.org/2000/svg" version="1.1" viewBox="0 0 200 200">
  <!-- Generator: Adobe Illustrator 29.5.1, SVG Export Plug-In . SVG Version: 2.1.0 Build 141)  -->
  <defs>
    <style>
      .st0, .st1 {
        fill: none;
      }

      .st0, .st1, .st2, .st3 {
        stroke-linecap: round;
        stroke-linejoin: round;
        stroke-width: 4.5px;
      }

      .st0, .st3 {
        stroke: #000;
      }

      .st1, .st2 {
        stroke: #00649d;
      }

      .st2 {
        fill: #00649d;
      }

      .st3, .st4 {
        fill: #fff;
      }

      .st5 {
        fill: #00aeef;
      }
    </style>
  </defs>
  <path class="st4" d="M87.7,14.1l12.2-11.2,97.3,69.7.3,111.6s-3.2,12.8-15.5,13-8.9-116.8-8.9-116.8l-14.9-20.4L87.7,14.1Z"/>
  <path class="st4" d="M99.9,2.9l-12.2,11.2,92.7,65.1,1.6,118s15.2-.5,15.2-15.2v-109.4L99.9,2.9Z"/>
  <g>
    <path class="st5" d="M2.6,72.6v114.1c0,3.4,10.4,12.3,13.8,12.3h164.3c3.4,0,6.2-2.8,6.2-6.2v-114.9L90.5,10.6,2.6,72.6Z"/>
    <polygon class="st3" points="154.5 94.5 154.5 67.5 45.3 67.5 45.3 94.5 99.9 122.5 154.5 94.5"/>
    <polyline class="st0" points="197.2 72.6 99.9 122.5 2.6 72.6"/>
    <path class="st0" d="M197.2,72.6L99.9,2.9,2.6,72.6v109.4c0,8.4,6.8,15.2,15.2,15.2h164.2c8.4,0,15.2-6.8,15.2-15.2v-109.4Z"/>
    <path class="st1" d="M70.5,124l24.2,12.4c1.6.8,3.4,1.3,5.2,1.3s3.6-.4,5.2-1.3l24.2-12.4"/>
  </g>
  <path class="st2" d="M100.3,81c0-1-.8-1.8-1.8-1.8s-1.8.8-1.8,1.8.8,1.8,1.8,1.8,1.8-.8,1.8-1.8Z"/>
  <path class="st2" d="M120.6,81c0-1-.8-1.8-1.8-1.8s-1.8.8-1.8,1.8.8,1.8,1.8,1.8,1.8-.8,1.8-1.8Z"/>
  <circle class="st2" cx="139.2" cy="81" r="1.8"/>
</svg>