<?xml version="1.0" encoding="UTF-8"?> <svg xmlns="http://www.w3.org/2000/svg" id="Event_Registration" version="1.1" viewBox="0 0 1162.5 1162.5"><defs><style> .st0 { fill: none; } .st0, .st1, .st2 { stroke-width: 30px; } .st0, .st1, .st2, .st3 { stroke: #000; stroke-linecap: round; stroke-linejoin: round; } .st4 { fill: #00aeef; } .st1, .st5 { fill: #fff; } .st2 { fill: #9ed6f4; } .st3 { fill: #00649d; stroke-width: 30.3px; } </style></defs><path class="st5" d="M1140.5,1013.7v-338.2s-20.3-43.7-139.4-43.7-139.4,49.5-139.4,49.5v367s79,32.6,160.1,27,118.7-61.5,118.7-61.5h0Z"></path><rect class="st4" x="95.4" y="37.4" width="723" height="1057.1"></rect><g><g><g><path class="st0" d="M95.4,150.1V62.8c0-14,9.6-25.4,21.5-25.4h668.6c11.9,0,21.5,11.3,21.5,25.4v259.3"></path><line class="st0" x1="95.4" y1="775.3" x2="95.4" y2="675.4"></line><path class="st0" d="M95.4,988v81.1c0,14,9.6,25.4,21.5,25.4h450.2"></path><line class="st0" x1="807" y1="551.9" x2="807" y2="654.4"></line><line class="st0" x1="95.4" y1="462.7" x2="95.4" y2="362.9"></line></g><path class="st3" d="M809.6,551.9h-124.1c-42.5,0-77-40.6-77-90.7h0c0-50.1,34.5-90.7,77-90.7h124.1c17,0,30.8,16.2,30.8,36.2v108.9c0,20-13.8,36.2-30.8,36.2h0Z"></path><rect class="st1" x="254.7" y="144.1" width="392.9" height="153.3"></rect><rect class="st3" x="34.8" y="204" width="133.5" height="105.1" rx="42.3" ry="42.3"></rect><rect class="st3" x="34.8" y="516.5" width="133.5" height="105.1" rx="42.3" ry="42.3"></rect><rect class="st3" x="34.8" y="829.1" width="133.5" height="105.1" rx="42.3" ry="42.3"></rect><g><ellipse class="st0" cx="1001.1" cy="693.3" rx="139.4" ry="61.6"></ellipse><path class="st0" d="M1140.5,790.9c-18.9,25.6-73.4,44-137.6,44s-29.8-1-43.5-2.9"></path><path class="st0" d="M1140.5,868c-18.9,25.6-73.4,44-137.6,44"></path><path class="st0" d="M1008.2,992.1c61.9-1,114-19.1,132.3-44"></path><path class="st0" d="M1140.5,693.3v320.4c0,34-62.4,61.5-139.4,61.5s-10.8,0-16.1-.4"></path><line class="st0" x1="861.7" y1="693.3" x2="861.7" y2="743"></line><g><g><path class="st0" d="M729.3,1027.2c9.6,12.6,26.6,21,46,21,30,0,54.4-20.2,54.4-45.1s-21.9-42.2-49.7-44.9h0c-25.3-1.8-45.1-19.4-45.1-40.8s22.1-41,49.4-41,32.6,7.4,41.4,18.6"></path><line class="st0" x1="779.5" y1="1050.1" x2="779.5" y2="1082"></line><line class="st0" x1="779.5" y1="840.3" x2="779.5" y2="873.6"></line></g><circle class="st2" cx="779.5" cy="961.2" r="173"></circle></g></g><line class="st0" x1="341.2" y1="495.4" x2="561.1" y2="495.4"></line><line class="st0" x1="341.2" y1="712.3" x2="561.1" y2="712.3"></line><line class="st0" x1="302.1" y1="603.9" x2="600.3" y2="603.9"></line></g><g><path class="st0" d="M729.3,1027.2c9.6,12.6,26.6,21,46,21,30,0,54.4-20.2,54.4-45.1s-21.9-42.2-49.7-44.9h0c-25.3-1.8-45.1-19.4-45.1-40.8s22.1-41,49.4-41,32.6,7.4,41.4,18.6"></path><line class="st0" x1="779.5" y1="1050.1" x2="779.5" y2="1082"></line><line class="st0" x1="779.5" y1="840.3" x2="779.5" y2="873.6"></line></g></g></svg> 