<?xml version="1.0" encoding="UTF-8"?> <svg xmlns="http://www.w3.org/2000/svg" id="Layer_1" version="1.1" viewBox="0 0 1162.5 1162.5"><defs><style> .st0, .st1 { fill: #9ed6f4; } .st2 { stroke-width: 23px; } .st2, .st3, .st4 { fill: none; } .st2, .st3, .st4, .st1 { stroke: #000; stroke-linecap: round; stroke-linejoin: round; } .st3, .st1 { stroke-width: 30px; } .st4 { stroke-width: 28.5px; } .st5 { fill: #00649d; } .st6 { fill: #00aeef; } .st7 { fill: #fff; } </style></defs><path class="st7" d="M485.7,1003.1l-467.4-7.3V18.1h543.9l185,184.2-.8,159.7,89.1-14.6,36.3-12.2,2.2,22.5,53.3,3.1,37.6-10.3-4.3,70.1-21.3,37.2,22.6,73.2s-1.3,39.9,13.3,50.5,37.2,53.2-4,91.8-31.9,55.9-31.9,55.9l-45.7,52.8,5.2,45-93.9,72.5-93.9-72.5-10.8,17.7-161.2,52-33.3,39.9-20,66.5Z"></path><g id="Event_Registration"><polyline class="st3" points="747.2 281.9 747.2 202.3 562.2 18.1 18.3 18.1 18.3 995.8 410.6 995.8"></polyline><path class="st5" d="M539.9,320.4H144.6c-13.1,0-23.6-9.7-23.6-21.6s10.6-21.6,23.6-21.6h395.3c13.1,0,23.6,9.7,23.6,21.6,0,11.9-10.5,21.6-23.6,21.6Z"></path><path class="st5" d="M541.9,221.7H146.5c-13.1,0-23.6-9.7-23.6-21.6s10.6-21.6,23.6-21.6h395.3c13.1,0,23.6,9.7,23.6,21.6s-10.5,21.6-23.5,21.6Z"></path></g><g id="Layer_2"><path class="st6" d="M713.6,816.5l91.8,86.8,92.9-76.7s-2,17.1,20.2,24.2,121.1,23.2,152.4,51.4c37.1,29,64.4,71,64.4,157.8s4.9,100,4.9,100l-674.4-1.3s20.8-171.8,27.8-188.9,26.3-76.6,83.8-89.8c57.5-13.1,103.9-18.1,117.1-28.2,13-10.1,19.1-35.3,19.1-35.3Z"></path></g><g id="Event_Registration1" data-name="Event_Registration"><g><g><path class="st4" d="M1142.8,1149.5s-15.2-130.8-19.5-161.4c-4.4-30.6-10.9-32.8-19.7-54.6-8.7-21.8-35.1-33.9-35.1-33.9-12.9-9.6-25.8-15.9-38.2-18.6l-113.8-33c-2.5-.7-4.8-1.8-6.9-3.3-6-4-9.9-10.5-10.8-17.7l-5.2-45c31.9-24.7,55.4-61.7,66.7-104.9,20.3-1.8,35.9-24.4,35.9-52.9s-13.2-47.6-31.3-52.2"></path><path class="st4" d="M643.9,572.5c-17.6,5-30.3,26-30.3,51.9s15.5,51,35.8,52.9c11.4,43.1,34.9,80,66.8,104.9l-5.2,45c-.8,7.2-4.8,13.7-10.8,17.7-2.1,1.4-4.5,2.5-6.9,3.3l-113.4,32.8c-14.7,3.3-29.7,11.1-44.5,23.3-23.2,19.2-39.2,45.9-45,75.2l-24.7,167.4"></path></g><path class="st4" d="M663.4,468.5c-24,35.1-19.6,97.9-19.6,97.9"></path><path class="st2" d="M964.8,572.2s1.8-35.9-10.2-76.3"></path><polyline class="st4" points="897.6 816.5 804.9 899.5 712.1 816.5"></polyline><path class="st4" d="M663.4,474.5c.6-71.2,60.7-111.9,116.8-119.3,13.8-1.8,59.9-7.2,91.6-20l.3.5c4.2,6.6,4.9,14.8,1.9,22h0c34,9.1,61.8,4.9,90.8-7.2.4,20.7.9,62.4-7.4,81.3-8.3,19-23.7,35.5-43.5,41.6-12.7,3.9-26.4,3.3-39.6,1.5-26.6-3.5-52.3-11.4-78.6-16.5s-53.9-7.2-79.5.6"></path><path class="st0" d="M924.8,400.6c-35.3,3.3-66.9-7.1-60.8-5.5-39.7-10.7-99.8-4.3-132,20.9,99.2-11.8,185,63.4,192.8-15.4Z"></path><path class="st5" d="M589.5,917l-1.2.3c-8.5,1.8-18.2,6.8-28.1,14.5-16,12.6-27.1,29.9-31.3,49l-20.8,155.3h407.5c-1.7-.8-3.3-1.6-5-2.3-63.2-27.6-133.3-36.5-202.4-43.6-22.4-2.3-45.4-4.7-65.2-15.1-19.7-10.4-35.3-31-31.8-52.2,2.4-14.5,12.9-26.3,22.5-37.8,25.5-30.4,47.3-63.5,65.2-98.3l-108.1,29.8-1.3.4Z"></path></g></g><polygon class="st1" points="344.7 418.2 121.5 804.8 567.9 804.8 344.7 418.2"></polygon><path class="st5" d="M362.7,719.3c5.3,5.2,7.9,11.8,7.9,20s-2.6,15.2-7.9,20.4c-5.3,5.3-12.1,7.9-20.5,7.9s-14.9-2.6-20.2-7.9c-5.3-5.3-7.9-12.1-7.9-20.4s2.6-14.8,7.9-20,12-7.8,20.2-7.8,15.3,2.6,20.5,7.8ZM314.8,556.5h57.3v54.3l-10.4,79.7h-36.1l-10.7-79.7v-54.3h0Z"></path></svg> 