<?xml version="1.0" encoding="UTF-8"?> <svg xmlns="http://www.w3.org/2000/svg" id="Layer_1" version="1.1" viewBox="0 0 200 181.5"><defs><style> .st0, .st1 { fill: none; stroke: #00649d; } .st0, .st1, .st2, .st3, .st4, .st5 { stroke-linecap: round; stroke-linejoin: round; } .st0, .st3, .st4 { stroke-width: 3.5px; } .st1 { stroke-width: 5px; } .st2, .st6 { fill: #fff; } .st2, .st3, .st4, .st5 { stroke: #000; } .st2, .st5 { stroke-width: 5.2px; } .st3 { fill: #9ed6f4; } .st4, .st5 { fill: #00aeef; } </style></defs><g id="Event_Registration"><path class="st5" d="M197,14.5c0-6.2-5.1-11.3-11.3-11.3H14.1c-6.3,0-11.3,5.1-11.3,11.3v33.5h194.2c0,.3,0-33.5,0-33.5Z"></path><g><path class="st2" d="M197,147.6V48.3H2.7v117.6c0,6.2,5.1,11.3,11.3,11.3h110.1l60.1-.9c7.2-.2,12.7-5.8,12.7-13,.1,0,.1-15.7.1-15.7Z"></path><path class="st1" d="M25.9,25.6c0-1.2-.9-1.9-1.9-1.9s-1.9.9-1.9,1.9.9,1.9,1.9,1.9,1.9-1,1.9-1.9Z"></path><path class="st1" d="M47.9,25.6c0-1.2-.9-1.9-1.9-1.9s-1.9.9-1.9,1.9.9,1.9,1.9,1.9,1.9-1,1.9-1.9Z"></path><circle class="st1" cx="68" cy="25.6" r="1.9"></circle><path class="st6" d="M177.1,30.7h-81.9c-2.8,0-4.9-2.1-4.9-4.9s2.3-4.9,4.9-4.9h81.9c2.8,0,4.9,2.1,4.9,4.9s-2.1,4.9-4.9,4.9Z"></path><rect class="st3" x="15.9" y="66.9" width="168.6" height="35.4"></rect><rect class="st4" x="124.3" y="117.1" width="60.2" height="45.6"></rect><line class="st0" x1="102.3" y1="117.1" x2="15.6" y2="117.1"></line><line class="st0" x1="102.3" y1="140" x2="15.6" y2="140"></line><line class="st0" x1="102.3" y1="162.7" x2="15.6" y2="162.7"></line></g></g></svg> 