<?xml version="1.0" encoding="UTF-8"?> <svg xmlns="http://www.w3.org/2000/svg" id="Layer_1" version="1.1" viewBox="0 0 150 150"><defs><style> .st0 { fill: #fff; } </style></defs><polygon class="st0" points="128 28.9 12.6 28.9 .5 69.4 140.1 69.4 128 28.9"></polygon><rect class="st0" x="9.4" y="67.9" width="121.5" height="77"></rect><path d="M136.6,70.1v71.9H14.4v-71.9h122.2M141.6,65.1H9.4v81.9h132.2v-81.9h0Z"></path><path d="M131.9,24.1l11.9,40.3H7.2l11.9-40.3h112.8M135.6,19.1H15.4L.5,69.4h150s-14.9-50.3-14.9-50.3Z"></path><path d="M81.1,115.9v26.1h-11.3v-26.1h11.3M86.1,110.9h-21.3v36.1h21.3s0-36.1,0-36.1Z"></path><path d="M121.6,132.4h-21.9v-21.9h21.9v21.9ZM104.7,127.4h11.9v-11.9h-11.9v11.9Z"></path><path d="M50.8,132.4h-21.8v-21.9h21.8v21.9ZM33.9,127.4h11.9v-11.9h-11.8v11.9h-.1Z"></path><path d="M121.6,101.3h-21.9v-21.9h21.9v21.9ZM104.7,96.3h11.9v-11.9h-11.9v11.9Z"></path><path d="M86.4,101.3h-21.8v-21.9h21.9v21.9h-.1ZM69.5,96.3h11.9v-11.9h-11.8v11.9h0Z"></path><path d="M50.8,101.3h-21.8v-21.9h21.8v21.9ZM34,96.3h11.8v-11.9h-11.8v11.9Z"></path><path d="M45,9.3v9.2h-8.6v-9.2h8.6M50,4.3h-18.6v19.2h18.6V4.3Z"></path></svg> 