<?xml version="1.0" encoding="UTF-8"?> <svg xmlns="http://www.w3.org/2000/svg" id="Layer_1" version="1.1" viewBox="0 0 150 150"><defs><style> .st0 { fill: #fff; } </style></defs><polygon class="st0" points="129 42.6 13.6 42.6 1.5 83.1 141.1 83.1 129 42.6"></polygon><rect class="st0" x="10.4" y="81.6" width="121.5" height="45.3"></rect><path d="M136.1,84.8v40.3H13.9v-40.3h122.2M141.1,79.8H8.9v50.3h132.2v-50.3h0Z"></path><path d="M131.4,38.8l11.9,40.3H6.7l11.9-40.3h112.8M135.1,33.8H14.9L0,84.1h150l-14.9-50.3h0Z"></path><path d="M80.7,98.9v26.1h-11.4v-26.1h11.4M85.7,93.9h-21.4v36.1h21.3v-36.1h.1Z"></path><path d="M121.1,115.5h-21.9v-21.9h21.9v21.9ZM104.2,110.5h11.9v-11.9h-11.9v11.9Z"></path><path d="M50.3,115.5h-21.8v-21.9h21.9v21.9h-.1ZM33.5,110.5h11.9v-11.9h-11.9v11.9Z"></path><path d="M44.6,24v9.2h-8.6v-9.2h8.6M49.6,19h-18.7v19.2h18.6v-19.2h0Z"></path></svg> 