<?xml version="1.0" encoding="UTF-8"?> <svg xmlns="http://www.w3.org/2000/svg" id="Layer_1" version="1.1" viewBox="0 0 150 150"><defs><style> .st0 { fill: #fff; } </style></defs><g><polygon class="st0" points="127.5 28.9 12.1 28.9 0 69.4 139.6 69.4 127.5 28.9"></polygon><rect class="st0" x="8.9" y="67.9" width="121.5" height="77"></rect><path d="M136.1,70.1v71.9H13.9v-71.9h122.2M141.1,65.1H8.9v81.9h132.2v-81.9h0Z"></path><path d="M131.4,24.1l11.9,40.3H6.7l11.9-40.3h112.8M135.1,19.1H14.9L0,69.4h150s-14.9-50.3-14.9-50.3Z"></path><path d="M73,115.5v26.1h-11.3v-26.1h11.3M78,110.5h-21.3v36.1h21.3v-36.1Z"></path><path d="M88.8,115.5v26.1h-11.3v-26.1h11.3M93.8,110.5h-21.3v36.1h21.3v-36.1Z"></path><path d="M128.1,132.4h-21.9v-21.9h21.9v21.9ZM111.2,127.4h11.9v-11.9h-11.9v11.9Z"></path><path d="M43.3,132.4h-21.8v-21.9h21.8v21.9ZM26.4,127.4h11.9v-11.9h-11.8v11.9h-.1Z"></path><path d="M128.1,101.3h-21.9v-21.9h21.9v21.9ZM111.2,96.3h11.9v-11.9h-11.9v11.9Z"></path><path d="M85.9,101.3h-29.2v-21.9h36.4v21.9h-7.2ZM61.6,96.3h26.4v-11.9h-26.3v11.9h-.1Z"></path><path d="M43.3,101.3h-21.8v-21.9h21.8v21.9ZM26.5,96.3h11.8v-11.9h-11.8v11.9Z"></path><path d="M44.5,9.3v9.2h-8.6v-9.2h8.6M49.5,4.3h-18.6v19.2h18.6V4.3Z"></path><path d="M116.2,9.3v9.2h-8.6v-9.2h8.6M121.2,4.3h-18.6v19.2h18.6V4.3Z"></path></g><path d="M74.9,50.2h0M25.9,68.2l49-49,48.8,48.8M116.6,67.9l-41.7-41.6-42,41.9"></path><circle cx="75.1" cy="49.2" r="12"></circle><circle class="st0" cx="75.3" cy="49.4" r="8"></circle></svg> 