<svg id="Layer_1" data-name="Layer 1" xmlns="http://www.w3.org/2000/svg" width="24" height="17" viewBox="0 0 24 17">
  <path d="M20.36,2.9a.49.49,0,0,0,0-.69L18.28.14a.48.48,0,0,0-.68,0h0L12.35,5.39a.5.5,0,0,1-.69,0h0L6.4.14a.48.48,0,0,0-.68,0h0L3.64,2.21a.49.49,0,0,0,0,.69h0L8.89,8.16a.49.49,0,0,1,0,.68h0L3.64,14.1a.48.48,0,0,0,0,.68h0l2.07,2.08a.49.49,0,0,0,.69,0l5.26-5.26a.51.51,0,0,1,.69,0l5.25,5.26a.48.48,0,0,0,.68,0l2.08-2.08a.48.48,0,0,0,0-.68L15.1,8.85a.51.51,0,0,1,0-.69Z" fill="#d8dcde"/>
</svg>
