<?xml version="1.0" encoding="UTF-8"?>
<svg id="Layer_1" data-name="Layer 1" xmlns="http://www.w3.org/2000/svg" width="250" height="53.808" viewBox="0 0 250 53.808">
  <g>
    <path d="M58.241,7.44h6.613v11.723c1.503-1.954,3.457-3.758,6.764-3.758,4.96,0,7.891,3.307,7.891,8.642v15.03h-6.613v-12.926c0-3.081-1.503-4.734-3.983-4.734s-4.133,1.578-4.133,4.734v12.926h-6.613V7.44h.075Z"/>
    <path d="M82.29,27.58h0c0-6.764,5.336-12.174,12.625-12.174s12.55,5.336,12.55,12.024h0c0,6.764-5.336,12.174-12.625,12.174s-12.55-5.336-12.55-12.024ZM100.927,27.58h0c0-3.532-2.48-6.463-6.087-6.463s-6.012,2.931-6.012,6.313h0c0,3.532,2.48,6.463,6.087,6.463s6.012-2.931,6.012-6.313Z"/>
    <path d="M109.269,32.39h0c0-5.185,3.833-7.515,9.319-7.515s4.058.376,5.636.977v-.376c0-2.705-1.653-4.208-4.96-4.208s-4.284.451-6.388,1.278l-1.653-5.035c2.555-1.127,5.035-1.879,9.018-1.879s6.162.977,7.816,2.63,2.48,4.284,2.48,7.44v13.452h-6.388v-2.48c-1.578,1.804-3.833,2.931-6.989,2.931s-7.966-2.48-7.966-7.064l.075-.15ZM124.374,30.887v-1.202c-1.127-.526-2.63-.902-4.208-.902-2.781,0-4.509,1.127-4.509,3.231h0c0,1.879,1.503,2.931,3.607,2.931,3.081,0,5.185-1.653,5.185-4.058h-.075Z"/>
    <path d="M133.317,36.072l2.33-3.532c2.48,1.879,5.185,2.781,7.515,2.781s3.532-.977,3.532-2.48h0c0-1.879-2.405-2.48-5.11-3.307-3.382-.977-7.139-2.33-7.139-6.688h0c0-4.434,3.607-7.064,8.116-7.064s6.012.977,8.417,2.63l-2.104,3.758c-2.179-1.353-4.509-2.179-6.463-2.179s-3.231.977-3.231,2.255h0c0,1.804,2.48,2.48,5.185,3.307,3.307,1.052,7.064,2.555,7.064,6.688h0c0,4.885-3.758,7.29-8.492,7.29s-6.839-1.202-9.694-3.457h.075Z" fill="#00aeef"/>
    <path d="M156.388,32.766v-12.024h-2.931v-4.509h2.931v-6.313h5.261v6.313h6.162v4.509h-6.162v11.197c0,2.029,1.052,2.856,2.781,2.856s2.179-.225,3.231-.752v4.284c-1.278.752-2.705,1.202-4.734,1.202-3.833,0-6.613-1.653-6.613-6.688l.075-.075Z" fill="#00aeef"/>
    <path d="M170.441,32.465h0c0-5.035,3.833-7.44,9.469-7.44s4.359.376,6.162.977v-.526c0-3.231-2.029-4.96-5.636-4.96s-4.434.526-6.538,1.428l-1.353-4.133c2.48-1.127,4.96-1.879,8.642-1.879s6.012.902,7.59,2.555c1.653,1.653,2.48,4.058,2.48,7.064v13.527h-5.11v-2.856c-1.578,1.879-3.908,3.307-7.44,3.307s-8.116-2.48-8.116-7.064h-.15ZM186.147,30.812v-1.578c-1.353-.526-3.081-.902-5.185-.902-3.382,0-5.336,1.428-5.336,3.833h0c0,2.33,1.954,3.532,4.434,3.532s6.087-2.029,6.087-4.885Z" fill="#00aeef"/>
    <path d="M194.564,16.157h5.261v5.185c1.428-3.457,4.058-5.787,8.116-5.561v5.561h-.301c-4.584,0-7.816,3.006-7.816,9.018v8.717h-5.261v-22.921Z" fill="#00aeef"/>
    <path d="M213.577,32.766v-12.024h-2.931v-4.509h2.931v-6.313h5.261v6.313h6.162v4.509h-6.162v11.197c0,2.029,1.052,2.856,2.781,2.856s2.179-.225,3.231-.752v4.284c-1.278.752-2.705,1.202-4.734,1.202-3.833,0-6.613-1.653-6.613-6.688l.075-.075Z" fill="#00aeef"/>
  </g>
  <g>
    <polygon points="35.396 6.087 53.282 25.25 47.871 26.453 47.119 40.581 22.846 45.616 5.862 31.713 5.787 23.221 0 19.088 16.232 0 35.396 6.087"/>
    <polygon points="35.396 10.521 21.794 27.505 25.852 27.054 25.927 41.333 43.888 37.951 44.639 23.823 48.021 23.297 35.396 10.521" fill="#fff"/>
    <polygon points="32.991 8.492 17.134 3.006 4.133 18.487 17.886 27.355 32.991 8.492" fill="#00aeef"/>
    <polygon points="22.32 41.408 22.244 30.661 17.285 31.037 8.642 25.1 8.492 30.661 22.32 41.408" fill="#00649d"/>
  </g>
  <g>
    <path d="M134.82,50.952v.977h-1.428v-8.417h1.428v3.382c.451-.601,1.052-1.127,2.104-1.127,1.428,0,2.856,1.127,2.856,3.156h0c0,2.029-1.353,3.231-2.856,3.231s-1.653-.526-2.104-1.052v-.15ZM138.277,48.848h0c0-1.202-.827-1.954-1.728-1.954s-1.804.752-1.804,1.954h0c0,1.202.827,1.954,1.804,1.954s1.728-.752,1.728-1.954Z"/>
    <path d="M144.815,45.767h1.428l-2.405,6.313c-.451,1.278-1.052,1.728-2.029,1.728s-1.052-.15-1.428-.376l.451-1.052c.225.15.526.225.827.225s.601-.15.902-.676l-2.555-6.162h1.503l1.728,4.509,1.578-4.509h0Z"/>
    <path d="M150.676,43.737h1.503l2.48,3.833,2.48-3.833h1.503v8.116h-1.428v-5.787l-2.555,3.833h0l-2.555-3.833v5.787h-1.428v-8.116h0Z"/>
    <path d="M160.07,48.848h0c0-1.804,1.202-3.231,3.006-3.231s2.931,1.503,2.931,3.307,0,.225,0,.376h-4.509c.15.977.827,1.578,1.728,1.578s1.202-.225,1.653-.752l.827.752c-.601.676-1.353,1.127-2.48,1.127-1.804,0-3.156-1.278-3.156-3.156ZM164.579,48.397c-.075-.902-.601-1.578-1.578-1.578s-1.428.676-1.578,1.578h3.156Z"/>
    <path d="M167.209,45.767h1.428v.902c.376-.526.902-1.052,1.879-1.052s1.503.451,1.804,1.052c.451-.676,1.127-1.052,2.029-1.052,1.353,0,2.179.827,2.179,2.33v3.908h-1.428v-3.457c0-.977-.451-1.503-1.202-1.503s-1.278.526-1.278,1.503v3.457h-1.428v-3.457c0-.977-.451-1.503-1.202-1.503s-1.278.601-1.278,1.503v3.457h-1.428v-6.087h-.075Z"/>
    <path d="M179.384,50.952v.977h-1.428v-8.417h1.428v3.382c.451-.601,1.052-1.127,2.104-1.127,1.428,0,2.856,1.127,2.856,3.156h0c0,2.029-1.353,3.231-2.856,3.231s-1.653-.526-2.104-1.052v-.15ZM182.916,48.848h0c0-1.202-.827-1.954-1.728-1.954s-1.804.752-1.804,1.954h0c0,1.202.827,1.954,1.804,1.954s1.728-.752,1.728-1.954Z"/>
    <path d="M185.17,48.848h0c0-1.804,1.202-3.231,3.006-3.231s2.931,1.503,2.931,3.307,0,.225,0,.376h-4.509c.15.977.827,1.578,1.728,1.578s1.202-.225,1.653-.752l.827.752c-.601.676-1.353,1.127-2.48,1.127-1.804,0-3.156-1.278-3.156-3.156ZM189.755,48.397c-.075-.902-.601-1.578-1.578-1.578s-1.428.676-1.578,1.578h3.156Z"/>
    <path d="M192.31,45.767h1.428v1.353c.376-.902,1.052-1.503,2.179-1.503v1.503h-.075c-1.202,0-2.104.827-2.104,2.405v2.33h-1.428v-6.087Z"/>
    <path d="M196.368,51.102l.601-.977c.676.526,1.353.752,2.029.752s.977-.225.977-.676h0c0-.526-.676-.676-1.353-.902-.902-.225-1.879-.601-1.879-1.804h0c0-1.202.977-1.879,2.179-1.879s1.578.301,2.255.676l-.526.977c-.601-.376-1.202-.601-1.728-.601s-.827.225-.827.601h0c0,.451.676.676,1.353.902.902.301,1.879.676,1.879,1.804h0c0,1.278-.977,1.954-2.255,1.954s-1.804-.301-2.63-.902l-.075.075Z"/>
    <path d="M202.455,43.437h1.428v3.307c.376-.601.977-1.052,1.879-1.052,1.353,0,2.179.902,2.179,2.33v3.908h-1.428v-3.457c0-.977-.451-1.503-1.278-1.503s-1.353.601-1.353,1.503v3.457h-1.428v-8.492Z"/>
    <path d="M209.369,43.512h1.503v1.353h-1.503v-1.353ZM209.444,45.767h1.428v6.087h-1.428v-6.087Z"/>
    <path d="M212.375,45.767h1.428v.902c.376-.601.977-1.052,1.879-1.052,1.353,0,2.179.902,2.179,2.33v3.908h-1.428v-3.457c0-.977-.451-1.503-1.278-1.503s-1.353.601-1.353,1.503v3.457h-1.428s0-6.087,0-6.087Z"/>
    <path d="M219.063,48.848h0c0-1.804,1.202-3.231,3.006-3.231s2.931,1.503,2.931,3.307,0,.225,0,.376h-4.509c.15.977.827,1.578,1.728,1.578s1.202-.225,1.653-.752l.827.752c-.601.676-1.353,1.127-2.48,1.127-1.804,0-3.156-1.278-3.156-3.156ZM223.572,48.397c-.075-.902-.601-1.578-1.578-1.578s-1.428.676-1.578,1.578h3.156Z"/>
  </g>
</svg>