<?xml version="1.0" encoding="UTF-8"?>
<svg id="Layer_1" xmlns="http://www.w3.org/2000/svg" version="1.1" viewBox="0 0 160 53">
  <!-- Generator: Adobe Illustrator 29.5.1, SVG Export Plug-In . SVG Version: 2.1.0 Build 141)  -->
  <defs>
    <style>
      .st0 {
        fill: #00649d;
      }

      .st1 {
        fill: #00aeef;
      }
    </style>
  </defs>
  <path class="st0" d="M61.4,45.4c-.5,0-.9-.4-.9-.9V7.9c0-.5.4-.9.9-.9s.9.4.9.9v36.6c0,.5-.4.9-.9.9Z"/>
  <g>
    <path class="st0" d="M27.7,28.5v3.8h-2.5v4.1h-4.6v-4.1h-8.7v-3.4l5.5-11.7h4.8l-5.2,11.3h3.6v-4.1h4.6v4.1h2.5Z"/>
    <path class="st0" d="M33.6,32.5c.4.4.7,1,.7,1.7s-.2,1.3-.7,1.7c-.4.4-1,.7-1.7.7s-1.2-.2-1.7-.7c-.4-.4-.7-1-.7-1.7s.2-1.3.6-1.7,1-.7,1.7-.7c.8.1,1.4.3,1.8.7Z"/>
    <path class="st0" d="M40,32.5c.7.2,1.4.3,2.1.3,1.5,0,2.6-.4,3.3-1.3.7-.9,1.1-2.1,1.1-3.7-1,1.4-2.5,2.1-4.5,2.1s-2.3-.3-3.2-.8-1.6-1.3-2.1-2.2c-.5-.9-.8-2-.8-3.3s.3-2.5.9-3.5c.6-1,1.4-1.8,2.5-2.3s2.3-.8,3.7-.8,3.1.4,4.4,1.2,2.2,1.9,2.8,3.3c.7,1.4,1,3.1,1,5.1s-.4,3.8-1.1,5.3c-.7,1.5-1.7,2.7-3.1,3.5-1.3.8-2.9,1.2-4.6,1.2s-2.1,0-3.2-.4c-1.1-.3-2-.7-2.9-1.2l1.8-3.5c.6.5,1.3.8,1.9,1ZM41.2,21.6c-.5.5-.7,1.1-.7,2s.2,1.5.7,1.9c.5.5,1.1.7,1.9.7s1.6-.3,2.1-.8.8-1.2.8-2-.2-1.4-.7-1.9-1.2-.7-2.1-.7c-.8.1-1.5.4-2,.8Z"/>
  </g>
  <polygon class="st1" points="77.1 33.1 79.1 37.2 83.5 37.8 80.3 40.9 81.1 45.4 77.1 43.3 73.1 45.4 73.9 40.9 70.7 37.8 75.1 37.2 77.1 33.1"/>
  <polygon class="st1" points="124 33.1 126 37.2 130.4 37.8 127.2 40.9 128 45.4 124 43.3 120 45.4 120.8 40.9 117.5 37.8 122 37.2 124 33.1"/>
  <polygon class="st1" points="108.3 33.1 110.3 37.2 114.8 37.8 111.6 40.9 112.3 45.4 108.3 43.3 104.4 45.4 105.1 40.9 101.9 37.8 106.4 37.2 108.3 33.1"/>
  <polygon class="st1" points="92.7 33.1 94.7 37.2 99.2 37.8 95.9 40.9 96.7 45.4 92.7 43.3 88.7 45.4 89.5 40.9 86.3 37.8 90.7 37.2 92.7 33.1"/>
  <polygon class="st1" points="142.6 37.3 141.6 37.2 139.6 33.1 137.6 37.2 133.2 37.8 136.4 40.9 135.6 45.4 139.6 43.3 142.6 44.8 142.6 37.3"/>
  <g>
    <path class="st0" d="M72.7,18.2h10.1v-3.8l-10.1,3.8h0Z"/>
    <path class="st0" d="M82.7,14.4v13.3l4.8-15.1s-4.8,1.8-4.8,1.8Z"/>
    <path class="st0" d="M82.7,18.2h-3.8l3.8,9.5v-9.5Z"/>
    <path class="st0" d="M72.7,18.2l7.2,2.5-1-2.5h-6.2Z"/>
    <path class="st0" d="M95.7,24.2c0,0-.2.1-.3.2-.1,0-.3.2-.5.2-.2,0-.5.1-.8.2s-.6,0-1,0c-.7,0-1.4-.1-1.9-.4s-1-.6-1.3-1-.6-.9-.8-1.5c-.2-.6-.2-1.2-.2-1.9s0-1.3.3-1.9c.2-.6.4-1.1.8-1.5.4-.4.8-.8,1.3-1,.5-.2,1.2-.4,1.9-.4s.7,0,1,.1c.3,0,.5.1.8.2.2,0,.4.2.5.3.1.1.2.2.3.2,0,0,.2.2.2.3s0,.2,0,.3c0,.2,0,.4-.2.5-.1.2-.3.4-.4.5-.1-.1-.2-.2-.4-.3-.1-.1-.3-.2-.5-.3-.2,0-.4-.2-.6-.2s-.5,0-.7,0c-.5,0-.9,0-1.2.3s-.6.4-.8.7c-.2.3-.3.6-.4,1s-.1.8-.1,1.2,0,.8.1,1.2c0,.4.2.7.4,1,.2.3.5.5.8.7.3.2.7.3,1.2.3s.5,0,.7-.1c.2,0,.4-.1.6-.2.2,0,.3-.2.4-.3s.2-.2.3-.3c0,0,.1.1.2.2s.1.2.2.3c0,.1.1.2.2.3,0,.1,0,.2,0,.3s0,.2,0,.3-.1.2-.2.3h0ZM102.8,23.2c0,.7.1,1.3.3,1.6-.2,0-.3.1-.5.1-.1,0-.3,0-.4,0-.3,0-.6,0-.8-.2-.2-.1-.3-.3-.3-.5-.2.2-.5.4-.8.5-.3.1-.7.2-1.2.2s-.5,0-.8-.1-.5-.2-.7-.3-.4-.4-.5-.6c-.1-.3-.2-.6-.2-1s.1-.9.3-1.1c.2-.3.5-.5.8-.7s.7-.3,1.1-.4.8-.1,1.1-.1c.1,0,.2,0,.3,0h.3v-.2c0-.4,0-.6-.3-.8s-.5-.2-.9-.2-.8,0-1.1.2c-.3.1-.6.3-.9.4-.1-.2-.2-.3-.3-.5,0-.2-.1-.3-.1-.4,0-.1,0-.2.2-.4s.3-.2.6-.3.5-.2.9-.2.7,0,1,0,.9,0,1.3.1.6.3.8.5.4.5.5.8.1.7.1,1.1v2.6h0ZM101,21.6h-.2c0,0-.1,0-.2,0-.2,0-.5,0-.7,0-.2,0-.4.1-.6.2-.2,0-.3.2-.4.4-.1.1-.2.3-.2.6s0,.5.2.7.4.3.8.3.3,0,.5,0,.3-.1.4-.2c.1,0,.2-.1.3-.2s0-.2,0-.2v-1.4h0ZM106.3,18.8c.2-.2.4-.4.7-.5s.7-.3,1.2-.3.7,0,1,.2c.3.1.6.3.8.6s.4.6.6,1,.2,1,.2,1.6,0,1.3-.2,1.8c-.2.5-.4.8-.6,1.1s-.6.5-.9.6c-.3.1-.6.2-1,.2s-.5,0-.7,0-.4-.1-.5-.2c-.1,0-.2-.1-.3-.2,0,0-.1-.1-.1-.1v3.4h-1.9v-9.5s0,0,.2,0c0,0,.1,0,.2,0h.3c.3,0,.6,0,.8.1s.3.3.4.5h0ZM108.8,21.4c0-.3,0-.5,0-.8s-.1-.5-.2-.6c-.1-.2-.2-.3-.4-.4s-.4-.1-.7-.1c-.4,0-.7,0-.8.2-.2.1-.2.3-.2.5v2.9c0,0,.2.2.4.3s.4.1.7.1c.5,0,.8-.2,1-.5.2-.4.3-.9.3-1.5h0ZM112.2,23.8c0-.2-.1-.4-.1-.6,0-.2,0-.4,0-.6v-6.4c0,0,.1,0,.2,0,0,0,.1,0,.2,0h.2c.2,0,.3,0,.4,0,.2,0,.3,0,.4.2.1,0,.2.2.3.3s.1.3.1.6v1h1.9v1.4h-1.9v3c0,.6.3,1,.8,1s.2,0,.4,0c.1,0,.2,0,.3-.1s.2-.1.2-.2.1-.1.2-.1c.1.2.2.4.3.5,0,.1.1.3.1.4s0,.2-.2.4-.2.2-.4.3-.4.2-.6.2-.5,0-.8,0c-.6,0-1-.1-1.3-.3s-.5-.5-.7-.9h0ZM120.6,23.6c.2,0,.4,0,.6,0,.2,0,.3-.1.5-.2.1,0,.3-.1.4-.2s.2-.2.3-.2c.1.1.2.3.3.5.1.2.2.4.2.5,0,.2-.1.4-.3.5-.2.1-.5.3-.8.4-.4.1-.8.2-1.2.2s-.9,0-1.3-.2-.8-.3-1.1-.6-.6-.6-.8-1.1c-.2-.5-.3-1.1-.3-1.8s0-1.1.3-1.5.4-.8.7-1c.3-.3.6-.5,1-.6.4-.1.8-.2,1.2-.2s1,0,1.3.2.7.4.9.6c.2.3.4.6.5.9,0,.4.2.7.2,1.1v.4c0,0,0,.2,0,.2,0,0,0,.1,0,.2h-4.1c0,.5.2.9.5,1.3s.7.5,1.3.5h0ZM121.2,20.8c0-.4,0-.8-.3-1.1-.2-.3-.5-.4-.9-.4s-.7.1-.9.4c-.2.3-.3.6-.3,1.1h2.4ZM126.2,18.9c0,0,.1-.2.2-.3,0-.1.2-.2.3-.3s.3-.1.4-.2c.2,0,.3,0,.5,0s.2,0,.3,0c.1,0,.2,0,.4.1.1,0,.2.1.3.2,0,0,.1.2.1.3,0,.2,0,.4-.1.7-.1.3-.2.5-.3.7-.2-.1-.3-.2-.5-.3s-.3-.1-.6-.1-.5,0-.7.2-.3.4-.3.6v4.5h-1.9v-6.8s0,0,.2,0c0,0,.1,0,.2,0h.3c.3,0,.6,0,.8.2.2.1.3.3.4.5h0ZM131.6,18.9c0,0,.1-.2.2-.3,0-.1.2-.2.3-.3.1,0,.3-.1.4-.2.2,0,.3,0,.5,0s.2,0,.4,0c.1,0,.2,0,.4.1.1,0,.2.1.3.2,0,0,.1.2.1.3,0,.2,0,.4-.1.7-.1.3-.2.5-.3.7-.2-.1-.3-.2-.5-.3s-.3-.1-.6-.1-.5,0-.7.2-.3.4-.3.6v4.5h-1.9v-6.8s.1,0,.2,0c0,0,.1,0,.2,0h.3c.3,0,.6,0,.8.2s.4.3.4.5h0ZM140.6,23.2c0,.7.1,1.3.3,1.6-.2,0-.3.1-.5.1-.1,0-.3,0-.4,0-.3,0-.6,0-.8-.2-.2-.1-.3-.3-.3-.5-.2.2-.5.4-.8.5-.3.1-.7.2-1.2.2s-.5,0-.8-.1-.5-.2-.7-.3-.4-.4-.5-.6c-.1-.3-.2-.6-.2-1s.1-.9.3-1.1c.2-.3.5-.5.9-.7.3-.2.7-.3,1.1-.4s.8-.1,1.1-.1c.1,0,.2,0,.3,0h.3v-.2c0-.4,0-.6-.3-.8s-.5-.2-.9-.2-.8,0-1.1.2c-.3.1-.6.3-.9.4-.1-.2-.2-.3-.3-.5s-.1-.3-.1-.4c0-.1,0-.2.2-.4s.3-.2.6-.3.5-.2.9-.2.7,0,1,0,.9,0,1.3.1.6.3.9.5.4.5.5.8c0,.3.1.7.1,1.1v2.6h0ZM138.8,21.5h-.2c0,0-.1,0-.2,0-.2,0-.5,0-.7,0-.2,0-.4.1-.6.2-.2,0-.3.2-.4.4-.1.1-.2.3-.2.6s0,.5.2.7.4.3.8.3.3,0,.5,0,.3-.1.4-.2.2-.1.3-.2c0,0,.1-.2.1-.2v-1.4h0Z"/>
  </g>
</svg>