<?xml version="1.0" encoding="UTF-8"?>
<svg id="Layer_1" xmlns="http://www.w3.org/2000/svg" xmlns:xlink="http://www.w3.org/1999/xlink" version="1.1" viewBox="0 0 200 200.8">
  <!-- Generator: Adobe Illustrator 29.5.1, SVG Export Plug-In . SVG Version: 2.1.0 Build 141)  -->
  <defs>
    <style>
      .st0, .st1, .st2 {
        fill: none;
      }

      .st3 {
        fill: #fff;
      }

      .st3, .st1, .st4, .st2 {
        stroke-linecap: round;
        stroke-linejoin: round;
        stroke-width: 4.5px;
      }

      .st3, .st2 {
        stroke: url(#Unnamed_Pattern_2);
      }

      .st1, .st4 {
        stroke: #00649d;
      }

      .st4 {
        fill: #00649d;
      }

      .st5 {
        fill: #00aeef;
      }
    </style>
    <pattern id="Unnamed_Pattern_2" data-name="Unnamed Pattern 2" x="0" y="0" width="59.7" height="74.8" patternTransform="translate(56.2 -15916.2) scale(1 -1)" patternUnits="userSpaceOnUse" viewBox="0 0 59.7 74.8">
      <g>
        <rect class="st0" width="59.7" height="74.8"/>
        <g>
          <rect class="st0" x="0" width="59.7" height="74.8"/>
          <rect x="0" width="59.7" height="74.8"/>
        </g>
      </g>
    </pattern>
  </defs>
  <g>
    <path class="st5" d="M2.2,72.6v114.4c0,3.4,10.4,12.3,13.8,12.3h164.7c3.4,0,6.2-2.8,6.2-6.2v-115.1L90.4,10.5,2.2,72.6Z"/>
    <polygon class="st3" points="154.5 94.6 154.5 67.5 45.1 67.5 45.1 94.6 99.8 122.7 154.5 94.6"/>
    <polyline class="st2" points="197.4 72.6 99.8 122.7 2.2 72.6"/>
    <path class="st2" d="M197.4,72.6L99.8,2.8,2.2,72.6v109.7c0,8.4,6.8,15.3,15.2,15.3h164.7c8.4,0,15.2-6.8,15.2-15.3v-109.7s.1,0,.1,0Z"/>
    <path class="st1" d="M70.3,124.2l24.3,12.5c1.6.8,3.4,1.3,5.2,1.3s3.6-.4,5.2-1.3l24.3-12.5"/>
  </g>
  <path class="st4" d="M100.2,81.1c0-1-.8-1.8-1.8-1.8s-1.8.8-1.8,1.8.8,1.8,1.8,1.8,1.8-.9,1.8-1.8Z"/>
  <path class="st4" d="M120.6,81.1c0-1-.8-1.8-1.8-1.8s-1.8.8-1.8,1.8.8,1.8,1.8,1.8,1.8-.9,1.8-1.8Z"/>
  <circle class="st4" cx="139.2" cy="81.1" r="1.8"/>
</svg>