<?xml version="1.0" encoding="UTF-8"?>
<svg id="Layer_1" xmlns="http://www.w3.org/2000/svg" version="1.1" viewBox="0 0 160 53">
  <!-- Generator: Adobe Illustrator 29.5.1, SVG Export Plug-In . SVG Version: 2.1.0 Build 141)  -->
  <defs>
    <style>
      .st0 {
        fill: #00649d;
      }

      .st1 {
        fill: #00aeef;
      }
    </style>
  </defs>
  <path class="st0" d="M61.4,45.4c-.5,0-.9-.4-.9-.9V7.9c0-.5.4-.9.9-.9s.9.4.9.9v36.6c0,.5-.4.9-.9.9Z"/>
  <polygon class="st1" points="77.1 33.1 79.1 37.2 83.5 37.8 80.3 40.9 81.1 45.4 77.1 43.3 73.1 45.4 73.9 40.9 70.7 37.8 75.1 37.2 77.1 33.1"/>
  <polygon class="st1" points="139.6 33.1 141.6 37.2 146 37.8 142.8 40.9 143.6 45.4 139.6 43.3 135.6 45.4 136.4 40.9 133.2 37.8 137.6 37.2 139.6 33.1"/>
  <polygon class="st1" points="124 33.1 126 37.2 130.4 37.8 127.2 40.9 128 45.4 124 43.3 120 45.4 120.8 40.9 117.5 37.8 122 37.2 124 33.1"/>
  <polygon class="st1" points="108.3 33.1 110.3 37.2 114.8 37.8 111.6 40.9 112.3 45.4 108.3 43.3 104.4 45.4 105.1 40.9 101.9 37.8 106.4 37.2 108.3 33.1"/>
  <polygon class="st1" points="92.7 33.1 94.7 37.2 99.2 37.8 95.9 40.9 96.7 45.4 92.7 43.3 88.7 45.4 89.5 40.9 86.3 37.8 90.7 37.2 92.7 33.1"/>
  <g>
    <path class="st0" d="M23.8,25.4c1.1.5,2,1.2,2.6,2.1s.9,1.9.9,3-.3,2.5-1,3.5-1.6,1.8-2.7,2.3c-1.2.5-2.6.8-4.1.8s-2.6-.2-4-.7-2.6-1-3.6-1.7l1.9-3.6c1.8,1.4,3.5,2.1,5.2,2.1s1.7-.2,2.2-.6c.5-.4.8-1,.8-1.8s-.3-1.3-.8-1.7c-.5-.4-1.3-.6-2.3-.6-2.4,0-4.2,0-5.3.1v-11h12.9v4h-8.3v2.9h1.7c1.5.2,2.8.4,3.9.9Z"/>
    <path class="st0" d="M33.3,33c.4.4.7,1,.7,1.7s-.2,1.3-.7,1.7c-.4.4-1,.7-1.7.7s-1.2-.2-1.7-.7c-.4-.4-.7-1-.7-1.7s.2-1.3.6-1.7,1-.7,1.7-.7,1.4.3,1.8.7Z"/>
    <path class="st0" d="M51,20.1c1.5,1.7,2.2,4.1,2.2,7.2s-.7,5.6-2.2,7.2c-1.5,1.7-3.6,2.5-6.3,2.5s-4.9-.8-6.3-2.5c-1.5-1.7-2.2-4.1-2.2-7.2s.7-5.6,2.2-7.2c1.5-1.7,3.6-2.5,6.3-2.5,2.7-.1,4.8.8,6.3,2.5ZM44.7,33.3c1.2,0,2-.5,2.6-1.4.5-.9.8-2.5.8-4.6s-.3-3.7-.8-4.6-1.4-1.4-2.6-1.4-2.1.4-2.6,1.4c-.5.9-.8,2.5-.8,4.6s.3,3.7.8,4.6,1.4,1.4,2.6,1.4"/>
  </g>
  <g>
    <path class="st0" d="M80,14.8c-.8,0-1,.4-1,1.1v1.3h2l-.2,2h-1.8v6.1h-2.4v-6.1h-1.7v-2h1.7v-1.2c0-2,.8-3.1,3.1-3.1s1.1,0,1.4.1v1.8"/>
    <path class="st0" d="M81.3,20.9c0-2.2,1.1-4,3.3-4s1.9.6,2.3,1.5v-1.3h2.3v8h-2.3v-1.3c-.4.8-1.1,1.4-2.3,1.4-2.2,0-3.3-1.6-3.3-4M83.7,21.5c0,1.2.5,2,1.6,2s1.6-.8,1.6-1.8v-.9c0-1.2-.5-1.8-1.6-1.8-1.1-.1-1.6.8-1.6,1.9v.6h0Z"/>
    <path class="st0" d="M94.3,17.1c1,0,1.8.2,2.3.6l-.6,1.7c-.4-.2-1-.4-1.7-.4-1.4,0-1.9.8-1.9,2v.5c0,1.3.6,2,1.9,2s1.3-.2,1.7-.4l.6,1.7c-.5.4-1.4.6-2.3.6-2.9,0-4.2-1.5-4.2-4v-.5c0-2.5,1.3-4,4.2-4"/>
    <path class="st0" d="M97,21.5v-.7c0-2.3,1.3-3.8,4-3.8s3.6,1.5,3.6,3.8v1.3h-5.1c0,1.1.6,1.5,1.9,1.5s1.8-.2,2.6-.5l.5,1.6c-.7.3-1.9.6-3.1.6-3.2,0-4.4-1.5-4.4-3.9M99.4,20.4h2.9v-.2c0-.9-.4-1.5-1.4-1.5s-1.4.7-1.4,1.7"/>
    <path class="st0" d="M113.6,21.5c0,2.2-1.1,4-3.3,4s-2-.6-2.4-1.4v1.3h-2.3v-12.3l2.4-.2v5.4c.4-.7,1.2-1.3,2.2-1.3,2.2,0,3.3,1.6,3.3,4M111.2,20.9c0-1.2-.5-1.9-1.7-1.9s-1.6.7-1.6,1.8v.8c0,1.2.6,1.8,1.6,1.8s1.7-.9,1.7-1.9v-.6Z"/>
    <path class="st0" d="M114.4,21.4v-.4c0-2.3,1.4-4,4-4s4.1,1.6,4.1,4v.4c0,2.3-1.4,4-4,4s-4.1-1.6-4.1-4M120,20.8c0-1.1-.5-1.9-1.6-1.9s-1.6.9-1.6,1.9v.8c0,1.1.5,1.9,1.6,1.9s1.6-.9,1.6-1.9v-.8Z"/>
    <path class="st0" d="M123.2,21.4v-.4c0-2.3,1.4-4,4-4s4,1.6,4,4v.4c0,2.3-1.4,4-4,4s-4-1.6-4-4M128.8,20.8c0-1.1-.5-1.9-1.6-1.9s-1.6.9-1.6,1.9v.8c0,1.1.5,1.9,1.6,1.9s1.6-.9,1.6-1.9v-.8Z"/>
    <polyline class="st0" points="134.7 21 137.1 17.1 139.7 17.1 137.1 21.1 139.8 25.3 137.2 25.3 134.7 21.3 134.7 25.3 132.2 25.3 132.2 13.1 134.7 12.9"/>
  </g>
</svg>