<?xml version="1.0" encoding="UTF-8"?>
<svg id="Event_Registration" xmlns="http://www.w3.org/2000/svg" version="1.1" viewBox="0 0 300 300">
  <!-- Generator: Adobe Illustrator 29.5.1, SVG Export Plug-In . SVG Version: 2.1.0 Build 141)  -->
  <defs>
    <style>
      .st0 {
        fill: none;
      }

      .st0, .st1, .st2, .st3 {
        stroke: #000;
        stroke-linecap: round;
        stroke-linejoin: round;
        stroke-width: 7.8px;
      }

      .st4, .st1 {
        fill: #9ed6f4;
      }

      .st5 {
        fill: #fff;
      }

      .st2 {
        fill: #00649d;
      }

      .st3 {
        fill: #00aeef;
      }
    </style>
  </defs>
  <g>
    <path class="st2" d="M75.7,208v-80.3c0-11.4,9.3-20.7,20.7-20.7h79.6c11.4,0,20.7,9.3,20.7,20.7v80.3"/>
    <line class="st0" x1="170" y1="152.1" x2="170" y2="208"/>
    <line class="st0" x1="101.6" y1="152.1" x2="101.6" y2="208"/>
    <circle class="st1" cx="136.3" cy="55.6" r="36"/>
    <line class="st0" x1="136.3" y1="107.1" x2="136.3" y2="143.9"/>
  </g>
  <g>
    <path class="st3" d="M25.1,257.8l-13,22.5c-3.8,6.6,1.4,14.5,9.4,14.5h245.6c8.1,0,13.2-7.9,9.4-14.5l-13-22.5"/>
    <path class="st3" d="M246.3,273.6l24.3-75.5c2.7-8.3-4-16.6-13.4-16.6H31.4c-9.4,0-16.1,8.3-13.4,16.6l24.3,75.5h102.5"/>
    <path class="st3" d="M212.8,77.3l-16.9,16.4V22.6c0-9.7,7.9-17.5,17.5-17.5h59.8c9.7,0,17.5,7.9,17.5,17.5v37.2c0,9.7-7.9,17.5-17.5,17.5h-60.4Z"/>
    <line class="st0" x1="224.9" y1="31.2" x2="263" y2="31.2"/>
    <line class="st0" x1="224.9" y1="49.3" x2="263" y2="49.3"/>
    <polygon class="st5" points="144.3 195.9 33.4 195.9 41.4 221.1 248 221.1 255.2 195.9 144.3 195.9"/>
  </g>
  <path class="st4" d="M59.3,208.9c0-2.7-2.2-4.9-4.9-4.9s-4.9,2.2-4.9,4.9,2.2,4.9,4.9,4.9,4.9-2.1,4.9-4.9Z"/>
  <path class="st4" d="M82.7,208.9c0-2.7-2.2-4.9-4.9-4.9s-4.9,2.2-4.9,4.9,2.2,4.9,4.9,4.9,4.9-2.1,4.9-4.9Z"/>
  <circle class="st4" cx="100.3" cy="208.9" r="4.9"/>
</svg>