<?xml version="1.0" encoding="UTF-8"?>
<svg id="Event_Registration" xmlns="http://www.w3.org/2000/svg" version="1.1" viewBox="0 0 90 90">
  <!-- Generator: Adobe Illustrator 29.5.1, SVG Export Plug-In . SVG Version: 2.1.0 Build 141)  -->
  <defs>
    <style>
      .st0, .st1, .st2, .st3, .st4, .st5, .st6 {
        stroke-linecap: round;
        stroke-miterlimit: 10;
      }

      .st0, .st1, .st2, .st3, .st5, .st6 {
        stroke-width: 2.3px;
      }

      .st0, .st1, .st3, .st4, .st6 {
        stroke: #000;
      }

      .st0, .st2, .st4, .st5 {
        fill: none;
      }

      .st1, .st7 {
        fill: #00aeef;
      }

      .st2 {
        stroke: #00649d;
      }

      .st8, .st6 {
        fill: #00649d;
      }

      .st3 {
        fill: #9ed6f4;
      }

      .st4 {
        stroke-width: 1.7px;
      }

      .st5 {
        stroke: #fff;
      }
    </style>
  </defs>
  <path class="st7" d="M37.9,66.4v-29.4c-3.6-3-16.2-13.9-16.2-13.9,0,0-12.5,11.2-16.3,14.4v28.9h32.5Z"/>
  <g>
    <polyline class="st0" points="41.7 40.4 21.7 22.5 1.7 40.4"/>
    <polyline class="st0" points="5.4 42.6 5.4 66.4 37.9 66.4 37.9 42.6"/>
    <path class="st2" d="M29.3,36.2c-3.6-3.2-7.6-6.9-7.6-6.9l-7.7,6.9"/>
    <g>
      <line class="st0" x1="69.6" y1="66.6" x2="69.6" y2="74.6"/>
      <g>
        <path class="st1" d="M87.1,66.6h-35c-.7,0-1.2-.6-1.2-1.2v-11.9c0-.7.6-1.2,1.2-1.2h35c.7,0,1.2.6,1.2,1.2v11.8c0,.8-.5,1.3-1.2,1.3Z"/>
        <line class="st5" x1="67.6" y1="59.5" x2="78" y2="59.5"/>
        <path class="st6" d="M84.3,59.5c0-.3-.2-.5-.4-.5s-.4.2-.4.5.2.5.4.5.4-.3.4-.5Z"/>
      </g>
      <g>
        <path class="st1" d="M87.1,43.6h-35c-.7,0-1.2-.6-1.2-1.2v-11.9c0-.7.6-1.2,1.2-1.2h35c.7,0,1.2.6,1.2,1.2v11.9c0,.7-.5,1.2-1.2,1.2Z"/>
        <line class="st5" x1="67.6" y1="36.5" x2="78" y2="36.5"/>
        <path class="st6" d="M84.3,36.5c0-.3-.2-.5-.4-.5s-.4.2-.4.5.2.5.4.5.4-.2.4-.5Z"/>
      </g>
      <g>
        <path class="st1" d="M87.1,20.7h-35c-.7,0-1.2-.6-1.2-1.2V7.6c0-.7.6-1.2,1.2-1.2h35c.7,0,1.2.6,1.2,1.2v11.8c0,.7-.5,1.3-1.2,1.3Z"/>
        <line class="st5" x1="67.6" y1="13.5" x2="78" y2="13.5"/>
        <path class="st6" d="M84.3,13.5c0-.3-.2-.5-.4-.5s-.4.2-.4.5.2.5.4.5.4-.2.4-.5Z"/>
      </g>
      <line class="st0" x1="21.7" y1="66.6" x2="21.7" y2="74.6"/>
      <line class="st0" x1="69.6" y1="52.3" x2="69.6" y2="43.6"/>
      <line class="st0" x1="69.6" y1="29.3" x2="69.6" y2="20.7"/>
      <rect class="st3" x="17.9" y="74.6" width="7.6" height="9"/>
      <rect class="st3" x="65.8" y="74.6" width="7.6" height="9"/>
      <line class="st4" x1="65.8" y1="79.2" x2="25.5" y2="79.2"/>
      <line class="st0" x1="73.4" y1="79.2" x2="88.3" y2="79.2"/>
      <line class="st0" x1="17.9" y1="79.2" x2="2.9" y2="79.2"/>
    </g>
    <path class="st8" d="M33.4,58v-7.2c0-.6-.7-1.1-1.2-.8-3.3,1.6-6.4,2.4-10.4,2.4s-7.1-.9-10.4-2.4c-.6-.3-1.2.2-1.2.8v7.2c0,.5.4.9.9.9h21.6c.3-.1.7-.5.7-.9Z"/>
  </g>
  <line class="st5" x1="10.5" y1="61.8" x2="32.6" y2="61.8"/>
</svg>