<?xml version="1.0" encoding="UTF-8"?>
<svg id="Event_Registration" xmlns="http://www.w3.org/2000/svg" version="1.1" viewBox="0 0 90 90">
  <!-- Generator: Adobe Illustrator 29.5.1, SVG Export Plug-In . SVG Version: 2.1.0 Build 141)  -->
  <defs>
    <style>
      .st0 {
        stroke-width: 2.2px;
      }

      .st0, .st1, .st2, .st3, .st4 {
        stroke: #000;
        stroke-linejoin: round;
      }

      .st0, .st1, .st2, .st3, .st4, .st5 {
        stroke-linecap: round;
      }

      .st0, .st1, .st4, .st6 {
        fill: #fff;
      }

      .st1 {
        stroke-width: 2.2px;
      }

      .st2 {
        stroke-width: 2.2px;
      }

      .st2, .st3, .st5 {
        fill: none;
      }

      .st3 {
        stroke-width: 2.2px;
      }

      .st7 {
        fill: #00aeef;
      }

      .st4 {
        stroke-width: 2.4px;
      }

      .st5 {
        stroke: #00649d;
        stroke-miterlimit: 10;
        stroke-width: 3px;
      }
    </style>
  </defs>
  <path class="st6" d="M44.5,5.4h-17.9c-2.7,0-4.9,2.1-4.9,4.7v71.4c0,2.6,2.2,4.7,4.9,4.7h57.1c2.7,0,4.9-2.1,4.9-4.7V10.1c0-2.6-2.2-4.7-4.9-4.7h-18.3"/>
  <path class="st7" d="M43.2,8.2h-16.9c-2.6,0-4.7,2-4.7,4.5v68.9c0,2.5,2.1,4.5,4.7,4.5h54.1c2.6,0,4.7-2,4.7-4.5V12.7c0-2.5-2.1-4.5-4.7-4.5h-17.2"/>
  <g>
    <path class="st3" d="M44.5,5.4h-17.9c-2.7,0-4.9,2.1-4.9,4.7v71.4c0,2.6,2.2,4.7,4.9,4.7h57.1c2.7,0,4.9-2.1,4.9-4.7V10.1c0-2.6-2.2-4.7-4.9-4.7h-18.3"/>
    <polygon class="st0" points="71.3 12.3 81.3 12.3 81.3 79.2 70.5 79.2 28.9 79.2 28.9 12.3 38.9 12.3 71.3 12.3"/>
    <path class="st4" d="M44.3,2.9v11.3c0,1.1.9,1.9,1.9,1.9h.8c1,0,1.8-.7,1.9-1.7v-.2c.4-3.4,3.3-5.9,6.6-5.9h0c3.3,0,6.2,2.5,6.6,5.9v.2c0,1,.9,1.7,1.9,1.7h0c1,0,1.9-.9,1.9-1.9V2.9c0-.8-.7-1.5-1.5-1.5h-18.6c-.8,0-1.5.7-1.5,1.5Z"/>
  </g>
  <line class="st2" x1="73.6" y1="25.6" x2="44.1" y2="25.6"/>
  <path class="st5" d="M39.3,25.6c0-.4-.3-.8-.7-.8s-.6.4-.6.8.3.8.7.8.6-.4.6-.8Z"/>
  <line class="st2" x1="73.6" y1="34.5" x2="44.1" y2="34.5"/>
  <path class="st5" d="M39.3,34.5c0-.4-.3-.8-.7-.8s-.6.3-.6.8.3.8.7.8.6-.4.6-.8Z"/>
  <line class="st2" x1="73.6" y1="42.9" x2="44.1" y2="42.9"/>
  <line class="st2" x1="73.8" y1="54.2" x2="37.5" y2="54.2"/>
  <line class="st2" x1="73.8" y1="62.8" x2="37.5" y2="62.8"/>
  <line class="st2" x1="73.8" y1="71.5" x2="37.5" y2="71.5"/>
  <path class="st5" d="M39.3,42.9c0-.4-.3-.8-.7-.8s-.6.3-.6.8.3.8.7.8.6-.4.6-.8Z"/>
  <path class="st1" d="M18.9,87.3h0c0-2.4,1.4-4.5,3.6-5.4,3.1-1.3,7.6-4.3,10.4-11.3.9-2.2,1.9-4.3,3.2-6.3s3.2-4.5,4.8-6.9c1.7-2.6,1.9-4.2,0-5.9h0c-1.6-1.4-4-1.1-5.3.5-2.1,2.7-4.9,6.6-9.8,10.2-1.6,1.2-3.7,0-3.7-2.1l-.2-20.3-5.3,1.6c-3,.9-5.4,3.2-6.6,6.1-1.9,4.9-4.4,12.5-5.6,18-1.5,6.8-2.6,11.2-2.6,21"/>
</svg>