<?xml version="1.0" encoding="UTF-8"?>
<svg id="Event_Registration" xmlns="http://www.w3.org/2000/svg" version="1.1" viewBox="0 0 90 90">
  <!-- Generator: Adobe Illustrator 29.5.1, SVG Export Plug-In . SVG Version: 2.1.0 Build 141)  -->
  <defs>
    <style>
      .st0, .st1 {
        stroke-width: 2.2px;
      }

      .st0, .st1, .st2, .st3, .st4 {
        stroke-linecap: round;
        stroke-linejoin: round;
      }

      .st0, .st5, .st2 {
        fill: #fff;
      }

      .st0, .st3 {
        stroke: #000;
      }

      .st1 {
        stroke: #9ed6f4;
      }

      .st1, .st4 {
        fill: none;
      }

      .st2 {
        stroke-width: 1.5px;
      }

      .st2, .st4 {
        stroke: #00649d;
      }

      .st3 {
        fill: #00aeef;
        stroke-width: 2.3px;
      }

      .st4 {
        stroke-width: 1.5px;
      }
    </style>
  </defs>
  <g>
    <path class="st3" d="M87.7,76.1v4.1c0,3.2-2.6,5.8-5.8,5.8H27.8c-2.9,0-5.1-2.3-5.1-5.2V10.5c0-3.6,2.9-6.5,6.5-6.5h52.1c3.6,0,6.5,2.9,6.5,6.5v65.6"/>
    <path class="st0" d="M19.6,86h0c0-2.4,1.4-4.5,3.6-5.4,3.2-1.3,7.7-4.3,10.5-11.3.9-2.2,1.9-4.4,3.2-6.4,1.3-2,3.3-4.6,4.8-6.9,1.7-2.6,1.9-4.2,0-5.9,0,0,0,0-.1,0-1.6-1.3-4-1-5.3.6-2.1,2.7-4.9,6.6-9.9,10.3-1.6,1.2-3.8,0-3.8-2.1l-.2-20.4-5.4,1.6c-3,.9-5.5,3.2-6.6,6.1-1.9,4.9-4.4,12.6-5.6,18.1-1.5,6.8-2.6,11.2-2.6,21.1"/>
  </g>
  <rect class="st2" x="55.6" y="9.6" width="22" height="20.2"/>
  <polyline class="st1" points="60.7 19.5 66.1 24.4 74 14.8"/>
  <rect class="st2" x="55.6" y="34.6" width="22" height="20.2"/>
  <polyline class="st1" points="60.7 44.5 66.1 49.4 74 39.8"/>
  <rect class="st2" x="55.6" y="59.5" width="22" height="20.2"/>
  <polyline class="st1" points="60.7 69.4 66.1 74.3 74 64.7"/>
  <path class="st5" d="M48.6,23.4h-19.8c-1.2,0-2.3-.8-2.3-1.7s1-1.7,2.3-1.7h19.8c1.2,0,2.3.8,2.3,1.7s-1,1.7-2.3,1.7Z"/>
  <path class="st5" d="M48.6,32.6h-19.8c-1.2,0-2.3-.8-2.3-1.7s1-1.7,2.3-1.7h19.8c1.2,0,2.3.8,2.3,1.7s-1,1.7-2.3,1.7Z"/>
  <path class="st4" d="M30,12.3c0-.5-.4-.8-.8-.8s-.8.4-.8.8.4.8.8.8c.5,0,.8-.4.8-.8Z"/>
  <path class="st4" d="M39.5,12.3c0-.5-.4-.8-.8-.8s-.8.4-.8.8.4.8.8.8c.5,0,.8-.4.8-.8Z"/>
  <circle class="st4" cx="48.2" cy="12.3" r=".8"/>
</svg>