<?xml version="1.0" encoding="UTF-8"?>
<svg id="Layer_1" xmlns="http://www.w3.org/2000/svg" version="1.1" viewBox="0 0 90 90">
  <!-- Generator: Adobe Illustrator 29.5.1, SVG Export Plug-In . SVG Version: 2.1.0 Build 141)  -->
  <defs>
    <style>
      .st0 {
        stroke: #00649d;
        stroke-width: 2px;
      }

      .st0, .st1, .st2, .st3, .st4, .st5, .st6 {
        stroke-linecap: round;
        stroke-linejoin: round;
      }

      .st0, .st1, .st3, .st5 {
        fill: none;
      }

      .st1 {
        stroke-width: 3px;
      }

      .st1, .st2, .st3, .st6 {
        stroke: #000;
      }

      .st7 {
        fill: #9ed6f4;
      }

      .st2 {
        fill: #fff;
      }

      .st2, .st3, .st6 {
        stroke-width: 2.3px;
      }

      .st8 {
        fill: #00649d;
      }

      .st4 {
        fill: #b3d375;
        stroke: #b3d375;
        stroke-width: 5px;
      }

      .st5 {
        stroke: #fff;
        stroke-width: 4px;
      }

      .st6 {
        fill: #00aeef;
      }
    </style>
  </defs>
  <g id="Event_Registration">
    <g>
      <path class="st6" d="M15.7,7H5.8c-2.3,0-4.2,2.1-4.2,4.8v16.6h86.8V11.8c0-2.6-1.9-4.8-4.2-4.8h-9.9"/>
      <path class="st2" d="M88.4,28.4v50.7c0,2.6-1.9,4.8-4.2,4.8H5.8c-2.3,0-4.2-2.1-4.2-4.8V28.4"/>
      <path class="st1" d="M17,13.1c-.2.5-.4,1.1-.4,1.7,0,2.5,2,4.5,4.5,4.5s4.5-2,4.5-4.5-.1-1.2-.4-1.7"/>
      <line class="st1" x1="21.2" y1="14.7" x2="21.2" y2="4.1"/>
      <path class="st1" d="M73,13.1c.2.5.4,1.1.4,1.7,0,2.5-2,4.5-4.5,4.5s-4.5-2-4.5-4.5,0-1.2.4-1.7"/>
      <line class="st1" x1="68.8" y1="14.7" x2="68.8" y2="4.1"/>
      <line class="st3" x1="63.8" y1="7" x2="26.2" y2="7"/>
      <line class="st0" x1="11.2" y1="64.6" x2="78.8" y2="64.6"/>
      <line class="st0" x1="11.2" y1="46" x2="78.8" y2="46"/>
      <line class="st5" x1="57.7" y1="17.3" x2="32.3" y2="17.3"/>
    </g>
    <path class="st4" d="M53.6,73.3c0-.5-.4-.9-.9-.9s-.9.4-.9.9.4.9.9.9c.5,0,.9-.4.9-.9Z"/>
    <circle class="st4" cx="37.3" cy="36.7" r=".9"/>
    <path class="st8" d="M55,36.7c0-1.3-1-2.3-2.3-2.3s-2.3,1-2.3,2.3,1,2.3,2.3,2.3,2.3-1,2.3-2.3Z"/>
    <path class="st8" d="M71.2,36.7c0-1.3-1-2.3-2.3-2.3s-2.3,1-2.3,2.3,1,2.3,2.3,2.3,2.3-1,2.3-2.3Z"/>
    <path class="st8" d="M23.1,36.7c0-1.3-1-2.3-2.3-2.3s-2.3,1-2.3,2.3,1,2.3,2.3,2.3,2.3-1,2.3-2.3Z"/>
    <path class="st8" d="M55,55.7c0-1.3-1-2.3-2.3-2.3s-2.3,1-2.3,2.3,1,2.3,2.3,2.3c1.3,0,2.3-1.1,2.3-2.3Z"/>
    <path class="st8" d="M38.9,55.7c0-1.3-1-2.3-2.3-2.3s-2.3,1-2.3,2.3,1,2.3,2.3,2.3c1.3,0,2.3-1.1,2.3-2.3Z"/>
    <path class="st8" d="M71.2,55.7c0-1.3-1-2.3-2.3-2.3s-2.3,1-2.3,2.3,1,2.3,2.3,2.3c1.3,0,2.3-1.1,2.3-2.3Z"/>
    <path class="st8" d="M23.1,55.7c0-1.3-1-2.3-2.3-2.3s-2.3,1-2.3,2.3,1,2.3,2.3,2.3c1.2,0,2.3-1.1,2.3-2.3Z"/>
    <path class="st8" d="M38.9,73c0-1.3-1-2.3-2.3-2.3s-2.3,1-2.3,2.3,1,2.3,2.3,2.3,2.3-1,2.3-2.3Z"/>
    <path class="st8" d="M71.2,73c0-1.3-1-2.3-2.3-2.3s-2.3,1-2.3,2.3,1,2.3,2.3,2.3,2.3-1,2.3-2.3Z"/>
    <path class="st8" d="M23.1,73c0-1.3-1-2.3-2.3-2.3s-2.3,1-2.3,2.3,1,2.3,2.3,2.3,2.3-1,2.3-2.3Z"/>
  </g>
  <g id="Layer_2">
    <circle class="st7" cx="52.7" cy="73.3" r="3.3"/>
    <circle class="st7" cx="37.4" cy="36.6" r="3.3"/>
  </g>
</svg>