<?xml version="1.0" encoding="UTF-8"?>
<svg id="Event_Registration" xmlns="http://www.w3.org/2000/svg" version="1.1" viewBox="0 0 90 90">
  <!-- Generator: Adobe Illustrator 29.5.1, SVG Export Plug-In . SVG Version: 2.1.0 Build 141)  -->
  <defs>
    <style>
      .st0 {
        stroke: #00649d;
      }

      .st0, .st1 {
        stroke-width: 2.1px;
      }

      .st0, .st1, .st2, .st3, .st4, .st5 {
        stroke-linecap: round;
        stroke-linejoin: round;
      }

      .st0, .st1, .st3, .st4 {
        fill: none;
      }

      .st1 {
        stroke: #00aeef;
      }

      .st6 {
        fill: #9ed6f4;
      }

      .st2 {
        stroke-width: 2.3px;
      }

      .st2, .st3, .st4, .st5 {
        stroke: #000;
      }

      .st2, .st5, .st7 {
        fill: #fff;
      }

      .st3 {
        stroke-width: 2.3px;
      }

      .st4 {
        stroke-width: 2.3px;
      }

      .st8 {
        fill: #00649d;
      }

      .st9 {
        fill: #00aeef;
      }

      .st5 {
        stroke-width: 2.5px;
      }
    </style>
  </defs>
  <path class="st7" d="M34,5.6H11.5c-2.8,0-5.1,2.2-5.1,4.8v73.7c0,2.7,2.3,4.8,5.1,4.8h67c2.8,0,5.1-2.2,5.1-4.8V10.4c0-2.7-2.3-4.8-5.1-4.8h-22.9"/>
  <path class="st9" d="M32.7,8.4H11.3c-2.7,0-4.8,2.1-4.8,4.6v71.2c0,2.6,2.2,4.6,4.8,4.6h63.9c2.7,0,4.8-2.1,4.8-4.6V13.1c0-2.6-2.2-4.6-4.8-4.6h-21.8"/>
  <g>
    <path class="st4" d="M34,5.6H11.5c-2.8,0-5.1,2.2-5.1,4.8v73.7c0,2.7,2.3,4.8,5.1,4.8h67c2.8,0,5.1-2.2,5.1-4.8V10.4c0-2.7-2.3-4.8-5.1-4.8h-22.9"/>
    <polygon class="st2" points="61.7 12.7 76.1 12.7 76.1 71.2 64.9 81.8 13.9 81.8 13.9 12.7 28.3 12.7 61.7 12.7"/>
    <path class="st5" d="M33.8,2.9v11.7c0,1.1.9,2,2,2h.8c1,0,1.8-.8,2-1.8v-.2c.5-3.5,3.4-6.1,6.8-6.1h0c3.5,0,6.4,2.6,6.8,6.1v.2c.2,1,1,1.8,2,1.8h0c1.1,0,2-.9,2-2V2.9c0-.9-.7-1.5-1.5-1.5h-19.2c-.8,0-1.5.7-1.5,1.5Z"/>
    <polyline class="st1" points="35.8 43.1 30.5 48.8 27.9 46.2"/>
    <line class="st0" x1="28.2" y1="34.5" x2="34.5" y2="28.1"/>
    <line class="st0" x1="34.5" y1="34.5" x2="28.2" y2="28.1"/>
    <line class="st0" x1="28.2" y1="64.5" x2="34.5" y2="58.1"/>
    <line class="st0" x1="34.5" y1="64.5" x2="28.2" y2="58.1"/>
    <path class="st8" d="M60.4,33h-18.5c-.8,0-1.4-.6-1.4-1.4s.6-1.4,1.4-1.4h18.5c.8,0,1.4.6,1.4,1.4s-.6,1.4-1.4,1.4Z"/>
    <path class="st8" d="M60.4,63h-18.5c-.8,0-1.4-.6-1.4-1.4s.6-1.4,1.4-1.4h18.5c.8,0,1.4.6,1.4,1.4s-.6,1.4-1.4,1.4Z"/>
    <path class="st6" d="M60.4,47.7h-18.5c-.8,0-1.4-.6-1.4-1.4s.6-1.4,1.4-1.4h18.5c.8,0,1.4.6,1.4,1.4s-.6,1.4-1.4,1.4Z"/>
    <polyline class="st3" points="63.6 78.5 63.6 70.4 72.5 70.4"/>
  </g>
</svg>