<?xml version="1.0" encoding="UTF-8"?>
<svg id="Event_Registration" xmlns="http://www.w3.org/2000/svg" version="1.1" viewBox="0 0 90 90">
  <!-- Generator: Adobe Illustrator 29.5.1, SVG Export Plug-In . SVG Version: 2.1.0 Build 141)  -->
  <defs>
    <style>
      .st0, .st1, .st2, .st3, .st4, .st5 {
        stroke-linecap: round;
        stroke-linejoin: round;
      }

      .st0, .st1, .st4 {
        stroke-width: 2.3px;
      }

      .st0, .st2, .st3, .st5 {
        fill: none;
      }

      .st0, .st5 {
        stroke: #00649d;
      }

      .st1 {
        fill: #fff;
      }

      .st1, .st3, .st4 {
        stroke: #000;
      }

      .st6 {
        fill: #00649d;
      }

      .st2 {
        stroke: #9ed6f4;
        stroke-width: 3px;
      }

      .st3, .st5 {
        stroke-width: 1.5px;
      }

      .st4 {
        fill: #00aeef;
      }
    </style>
  </defs>
  <g>
    <path class="st4" d="M28.5,84c0,2.5,2.3,4.6,5,4.6h46.9c3.4,0,6.2-2.6,6.2-5.7V6.8c0-3.1-2.8-5.7-6.2-5.7h-45.7c-3.4,0-6.2,2.5-6.2,5.7v69.8s0,7.3,0,7.3Z"/>
    <path class="st6" d="M61.3,81.4c0-1.8-1.7-3.4-3.7-3.4s-3.7,1.5-3.7,3.4,1.7,3.4,3.7,3.4,3.7-1.5,3.7-3.4Z"/>
    <line class="st5" x1="51.9" y1="5.8" x2="63.4" y2="5.8"/>
  </g>
  <rect class="st1" x="34.4" y="10.4" width="46.5" height="63.7"/>
  <g>
    <path class="st2" d="M52.2,37.4c0,3.2,3.3,5.7,7.3,5.7s7.3-2.5,7.3-5.7-3-4.6-7.3-5.7c-3.8-1-7.3-2.5-7.3-5.7s3.3-5.7,7.3-5.7,7.3,2.5,7.3,5.7"/>
    <line class="st2" x1="59.6" y1="17.1" x2="59.6" y2="20.4"/>
    <line class="st2" x1="59.6" y1="43.1" x2="59.6" y2="46.3"/>
  </g>
  <g>
    <line class="st0" x1="62.1" y1="66.6" x2="74.6" y2="66.6"/>
    <line class="st0" x1="62.1" y1="61.6" x2="74.6" y2="61.6"/>
  </g>
  <path class="st1" d="M3.2,88.8c0-11.2,2.1-14.3,4.1-21.9,2.6-9.8,8.5-23.1,18.7-28l2.5-1.2v21.8h0c0,2.4,3.1,3.8,5.3,2.4,6.6-4.2,10.4-8.7,13.2-11.8,1.7-1.9,4.9-2.3,7.1-.7,0,0,0,0,.2.1,2.5,1.9,2.3,3.8,0,6.8-2,2.7-4.7,5.7-6.4,7.9-1.7,2.3-3,4.8-4.2,7.3-3.8,8.1-9.8,11.6-14,13-2.9,1-4.8,1.6-4.8,4.3h0"/>
  <path class="st3" d="M42,17.3c0-.5-.4-.8-.9-.8s-.9.4-.9.8.4.8.9.8.9-.4.9-.8Z"/>
  <ellipse class="st3" cx="47.2" cy="17.3" rx=".9" ry=".8"/>
</svg>