<?xml version="1.0" encoding="UTF-8"?>
<svg id="Layer_1" xmlns="http://www.w3.org/2000/svg" version="1.1" viewBox="0 0 160 53">
  <!-- Generator: Adobe Illustrator 29.5.1, SVG Export Plug-In . SVG Version: 2.1.0 Build 141)  -->
  <defs>
    <style>
      .st0 {
        fill: #00649d;
      }

      .st1 {
        fill: #00aeef;
      }
    </style>
  </defs>
  <path class="st0" d="M61.4,45.4c-.5,0-.9-.4-.9-.9V7.9c0-.5.4-.9.9-.9s.9.4.9.9v36.6c0,.5-.4.9-.9.9Z"/>
  <g>
    <path class="st0" d="M27.7,28.5v3.8h-2.5v4.1h-4.6v-4.1h-8.7v-3.4l5.5-11.7h4.8l-5.2,11.3h3.6v-4.1h4.6v4.1h2.5Z"/>
    <path class="st0" d="M33.6,32.5c.4.4.7,1,.7,1.7s-.2,1.3-.7,1.7c-.4.4-1,.7-1.7.7s-1.2-.2-1.7-.7c-.4-.4-.7-1-.7-1.7s.2-1.3.6-1.7,1-.7,1.7-.7c.8.1,1.4.3,1.8.7Z"/>
    <path class="st0" d="M40,32.5c.7.2,1.4.3,2.1.3,1.5,0,2.6-.4,3.3-1.3.7-.9,1.1-2.1,1.1-3.7-1,1.4-2.5,2.1-4.5,2.1s-2.3-.3-3.2-.8-1.6-1.3-2.1-2.2c-.5-.9-.8-2-.8-3.3s.3-2.5.9-3.5c.6-1,1.4-1.8,2.5-2.3s2.3-.8,3.7-.8,3.1.4,4.4,1.2,2.2,1.9,2.8,3.3c.7,1.4,1,3.1,1,5.1s-.4,3.8-1.1,5.3c-.7,1.5-1.7,2.7-3.1,3.5-1.3.8-2.9,1.2-4.6,1.2s-2.1,0-3.2-.4c-1.1-.3-2-.7-2.9-1.2l1.8-3.5c.6.5,1.3.8,1.9,1ZM41.2,21.6c-.5.5-.7,1.1-.7,2s.2,1.5.7,1.9c.5.5,1.1.7,1.9.7s1.6-.3,2.1-.8.8-1.2.8-2-.2-1.4-.7-1.9-1.2-.7-2.1-.7c-.8.1-1.5.4-2,.8Z"/>
  </g>
  <polygon class="st1" points="77.1 33.1 79.1 37.2 83.5 37.8 80.3 40.9 81.1 45.4 77.1 43.3 73.1 45.4 73.9 40.9 70.7 37.8 75.1 37.2 77.1 33.1"/>
  <polygon class="st1" points="124 33.1 126 37.2 130.4 37.8 127.2 40.9 128 45.4 124 43.3 120 45.4 120.8 40.9 117.5 37.8 122 37.2 124 33.1"/>
  <polygon class="st1" points="108.3 33.1 110.3 37.2 114.8 37.8 111.6 40.9 112.3 45.4 108.3 43.3 104.4 45.4 105.1 40.9 101.9 37.8 106.4 37.2 108.3 33.1"/>
  <polygon class="st1" points="92.7 33.1 94.7 37.2 99.2 37.8 95.9 40.9 96.7 45.4 92.7 43.3 88.7 45.4 89.5 40.9 86.3 37.8 90.7 37.2 92.7 33.1"/>
  <polygon class="st1" points="142.6 37.3 141.6 37.2 139.6 33.1 137.6 37.2 133.2 37.8 136.4 40.9 135.6 45.4 139.6 43.3 142.6 44.8 142.6 37.3"/>
  <g>
    <path class="st0" d="M90.8,18.5l-5.1-5.1c-.2-.2-.4-.2-.6,0l-1,1,4.1,4.1c.2.2.2.4,0,.6h0l-4.2,4.2,1,1c.2.2.4.2.6,0l5.2-5.2c.2-.2.2-.4,0-.6"/>
    <path class="st0" d="M82.1,13.8l-.4-.4c-.2-.2-.4-.2-.6,0l-1,1,.7.7,1.3,1.3,1.3-1.3-1.3-1.3h0Z"/>
    <path class="st0" d="M81.9,21.4l-1.3,1.3-.7.7,1,1c.2.2.4.2.6,0l.4-.4,1.3-1.3-1.3-1.3h0Z"/>
    <path class="st0" d="M84.2,18.5c.2.2.2.4,0,.6l-2.2,2.2,1.3,1.3,3.6-3.6c.2-.2.2-.4,0-.6h0l-3.4-3.4-1.3,1.3,2.1,2.1h0Z"/>
    <path class="st0" d="M75.8,18.6l3.6-3.6-1.3-1.3-.4-.4c-.2-.2-.4-.2-.6,0l-5.2,5.2c-.2.2-.2.4,0,.6h0l5.1,5.1c.2.2.4.2.6,0l.4-.4,1.3-1.3-3.4-3.4c-.2-.2-.2-.4,0-.6h0"/>
    <path class="st0" d="M79.8,18.6l1.6-1.6-1.3-1.3-.7-.7-3.5,3.6c-.2.2-.2.4,0,.6h0l3.4,3.4.7-.7,1.3-1.3-1.4-1.5c-.2-.1-.2-.4,0-.6"/>
    <path class="st0" d="M79.8,19.2l1.4,1.5,1.6-1.6c.2-.2.2-.4,0-.6h0l-1.4-1.5-1.6,1.6c-.2.2-.2.4,0,.6"/>
    <path class="st0" d="M94.9,17.4c0-.6.1-1.1.3-1.7.2-.5.5-.9.9-1.3.4-.4.9-.7,1.4-.9.6-.2,1.3-.3,2-.3.8,0,1.5,0,2.2.3.5.2,1,.5,1.4.8.3.3.6.6.7,1,.1.3.2.6.2.9,0,.1,0,.2-.1.3,0,0-.2.1-.3.1h-1.2c0,0-.2,0-.3,0,0,0-.1-.1-.1-.2,0,0,0-.1-.2-.3-.1-.2-.2-.3-.4-.4-.2-.2-.5-.3-.7-.4-.4-.1-.8-.2-1.2-.2-.7,0-1.3.2-1.9.6-.5.4-.7,1-.7,1.7,0,.4,0,.8,0,1.3s0,.9,0,1.3c0,.9.3,1.5.7,1.9.5.4,1.2.6,1.8.6.3,0,.7,0,1.1-.1.3,0,.6-.2.8-.4s.4-.4.5-.7c.1-.4.2-.7.2-1.1h0c0-.1-1.9-.1-1.9-.1-.1,0-.2,0-.3-.1,0,0-.1-.2-.1-.3v-1.1c0-.2.2-.4.4-.4h3.6c.2,0,.4.2.4.4v1.7c0,.6,0,1.2-.3,1.7-.2.5-.5,1-.9,1.3-.4.4-.9.7-1.5.9-1.3.4-2.8.4-4.1,0-.5-.2-1-.5-1.4-.9-.4-.4-.7-.8-.9-1.3-.2-.5-.3-1.1-.3-1.7,0-.2,0-.4,0-.6v-1.5c0-.2,0-.4,0-.6"/>
    <path class="st0" d="M109,17.9c-.3,0-.5,0-.8.1-.2,0-.4.2-.5.3-.1.1-.2.3-.3.5,0,.1-.1.3-.1.5h3.5c0-.2,0-.3-.1-.5,0-.2-.2-.3-.3-.5-.1-.1-.3-.3-.5-.3-.3-.1-.5-.1-.8-.1M105.2,20.2c0-.6,0-1.1.3-1.6.2-.5.4-1,.8-1.3.3-.4.7-.7,1.2-.9.5-.2,1-.3,1.6-.3.5,0,1.1.1,1.6.3.4.2.9.5,1.2.9.3.4.6.8.8,1.2.2.5.3,1,.3,1.5v.7c0,.2-.2.4-.4.4h-5.2c0,.2,0,.4.1.6,0,.2.2.3.4.4.2.1.4.2.6.3.2,0,.4,0,.7,0,.3,0,.5,0,.8-.1.2,0,.3-.1.5-.2,0,0,.2-.1.3-.2,0,0,.2,0,.3,0h1.2c.1,0,.2,0,.3.1,0,0,.1.2.1.3,0,.2-.1.4-.2.6-.2.3-.4.5-.7.7-.3.2-.7.4-1.1.6-.5.2-1,.2-1.5.2-.5,0-1.1-.1-1.6-.3-.4-.2-.9-.5-1.2-.9-.3-.4-.6-.8-.8-1.3-.2-.5-.3-1.1-.3-1.6"/>
    <path class="st0" d="M116.5,21.3c0,.3,0,.6.2.8.2.2.5.3.9.3h.9c.2,0,.4.2.4.4v1c0,.2-.2.4-.4.4h-1.2c-1,0-1.7-.2-2.2-.7s-.8-1.2-.8-2.1v-3.3h-1c-.1,0-.2,0-.3-.1,0,0-.1-.2-.1-.3v-1c0-.1,0-.2.1-.3,0,0,.2-.1.3-.1h1v-2.5c0-.2.2-.4.4-.4h1.2c.2,0,.4.2.4.4v2.5h2c.2,0,.4.2.4.4v1c0,.2-.2.4-.4.4h-2s0,3.3,0,3.3Z"/>
    <path class="st0" d="M126.6,20.2l-1.7-4.4-1.7,4.4h3.4,0ZM125.8,13.4c.1,0,.3,0,.4.1,0,.1.2.2.2.4l3.8,9.8s0,0,0,.1c0,.2-.2.4-.4.4h-1.1c-.1,0-.3,0-.4-.1,0,0-.1-.2-.2-.2l-.7-1.7h-4.9l-.7,1.7c0,.1,0,.2-.2.2-.1.1-.3.1-.4.1h-1.1c-.2,0-.4-.2-.4-.4s0,0,0-.1l3.8-9.8c0-.1.1-.3.2-.4,0,0,.2-.1.4-.1h1.7,0Z"/>
    <path class="st0" d="M136.8,20.6c0-.3,0-.6,0-.9,0-.7-.3-1.1-.6-1.4-.4-.3-.8-.5-1.3-.4-.5,0-.9.1-1.3.4-.4.3-.6.8-.6,1.3,0,.2,0,.4,0,.6,0,.2,0,.4,0,.6,0,.5.2.9.6,1.3.4.3.8.5,1.3.5.5,0,.9-.1,1.3-.4.4-.3.6-.8.6-1.4M135.3,24.4c-.3,0-.6,0-.9,0-.2,0-.4-.1-.7-.2-.2,0-.3-.2-.5-.3-.1,0-.2-.2-.3-.3v3.3c0,.2-.2.4-.4.4h-1.2c-.2,0-.4-.2-.4-.4v-10.1c0-.2.2-.4.4-.4h1.2c.2,0,.4.2.4.4v.4c.1-.1.2-.2.3-.3.1-.1.3-.2.5-.3.2-.1.4-.2.7-.2.3,0,.6,0,.9,0,.5,0,1,.1,1.4.3.4.2.8.5,1.1.8.3.3.5.7.7,1.2.2.4.3.9.3,1.4,0,.1,0,.3,0,.5s0,.4,0,.5c0,.5-.1.9-.3,1.4-.2.4-.4.8-.7,1.2-.3.3-.7.6-1.1.8-.5.2-.9.3-1.4.3"/>
    <path class="st0" d="M145.5,20.6c0-.3,0-.6,0-.9,0-.7-.3-1.1-.6-1.4-.4-.3-.8-.5-1.3-.4-.5,0-.9.1-1.3.4-.4.3-.6.8-.6,1.3,0,.2,0,.4,0,.6,0,.2,0,.4,0,.6,0,.5.2.9.6,1.3.4.3.8.5,1.3.5.5,0,.9-.1,1.3-.4.4-.3.6-.8.6-1.4M144,24.4c-.3,0-.6,0-.9,0-.2,0-.4-.1-.7-.2-.2,0-.3-.2-.5-.3-.1,0-.2-.2-.3-.3v3.3c0,.1,0,.2-.1.3,0,0-.2.1-.3.1h-1.2c-.2,0-.4-.2-.4-.4v-10.1c0-.2.2-.4.4-.4h1.2c.2,0,.4.2.4.4v.4c.1-.1.2-.2.3-.3.1-.1.3-.2.5-.3.2-.1.4-.2.7-.2.3,0,.6,0,.9,0,.5,0,1,.1,1.4.3.4.2.8.5,1.1.8.3.3.5.7.7,1.2.2.4.3.9.3,1.4,0,.1,0,.3,0,.5s0,.4,0,.5c0,.5-.1.9-.3,1.4-.2.4-.4.8-.7,1.2s-.7.6-1.1.8c-.4.2-.9.3-1.4.3"/>
  </g>
</svg>