<?xml version="1.0" encoding="UTF-8"?>
<svg id="Layer_1" xmlns="http://www.w3.org/2000/svg" version="1.1" viewBox="0 0 160 53">
  <!-- Generator: Adobe Illustrator 29.5.1, SVG Export Plug-In . SVG Version: 2.1.0 Build 141)  -->
  <defs>
    <style>
      .st0 {
        fill: #00649d;
      }

      .st1 {
        fill: #00aeef;
      }
    </style>
  </defs>
  <path class="st0" d="M61.4,45.4c-.5,0-.9-.4-.9-.9V7.9c0-.5.4-.9.9-.9s.9.4.9.9v36.6c0,.5-.4.9-.9.9Z"/>
  <polygon class="st1" points="77.1 33.1 79.1 37.2 83.5 37.8 80.3 40.9 81.1 45.4 77.1 43.3 73.1 45.4 73.9 40.9 70.7 37.8 75.1 37.2 77.1 33.1"/>
  <polygon class="st1" points="139.6 33.1 141.6 37.2 146 37.8 142.8 40.9 143.6 45.4 139.6 43.3 135.6 45.4 136.4 40.9 133.2 37.8 137.6 37.2 139.6 33.1"/>
  <polygon class="st1" points="124 33.1 126 37.2 130.4 37.8 127.2 40.9 128 45.4 124 43.3 120 45.4 120.8 40.9 117.5 37.8 122 37.2 124 33.1"/>
  <polygon class="st1" points="108.3 33.1 110.3 37.2 114.8 37.8 111.6 40.9 112.3 45.4 108.3 43.3 104.4 45.4 105.1 40.9 101.9 37.8 106.4 37.2 108.3 33.1"/>
  <polygon class="st1" points="92.7 33.1 94.7 37.2 99.2 37.8 95.9 40.9 96.7 45.4 92.7 43.3 88.7 45.4 89.5 40.9 86.3 37.8 90.7 37.2 92.7 33.1"/>
  <g>
    <path class="st0" d="M23.8,25.4c1.1.5,2,1.2,2.6,2.1s.9,1.9.9,3-.3,2.5-1,3.5-1.6,1.8-2.7,2.3c-1.2.5-2.6.8-4.1.8s-2.6-.2-4-.7-2.6-1-3.6-1.7l1.9-3.6c1.8,1.4,3.5,2.1,5.2,2.1s1.7-.2,2.2-.6c.5-.4.8-1,.8-1.8s-.3-1.3-.8-1.7c-.5-.4-1.3-.6-2.3-.6-2.4,0-4.2,0-5.3.1v-11h12.9v4h-8.3v2.9h1.7c1.5.2,2.8.4,3.9.9Z"/>
    <path class="st0" d="M33.3,33c.4.4.7,1,.7,1.7s-.2,1.3-.7,1.7c-.4.4-1,.7-1.7.7s-1.2-.2-1.7-.7c-.4-.4-.7-1-.7-1.7s.2-1.3.6-1.7,1-.7,1.7-.7,1.4.3,1.8.7Z"/>
    <path class="st0" d="M51,20.1c1.5,1.7,2.2,4.1,2.2,7.2s-.7,5.6-2.2,7.2c-1.5,1.7-3.6,2.5-6.3,2.5s-4.9-.8-6.3-2.5c-1.5-1.7-2.2-4.1-2.2-7.2s.7-5.6,2.2-7.2c1.5-1.7,3.6-2.5,6.3-2.5,2.7-.1,4.8.8,6.3,2.5ZM44.7,33.3c1.2,0,2-.5,2.6-1.4.5-.9.8-2.5.8-4.6s-.3-3.7-.8-4.6-1.4-1.4-2.6-1.4-2.1.4-2.6,1.4c-.5.9-.8,2.5-.8,4.6s.3,3.7.8,4.6,1.4,1.4,2.6,1.4"/>
  </g>
  <g>
    <path class="st0" d="M105.1,20.2c0,2.6-2.1,4.6-4.6,4.6s-4.6-2-4.6-4.6,2.1-4.6,4.6-4.6,4.6,1.9,4.6,4.6ZM103.1,20.2c0-1.6-1.2-2.8-2.6-2.8s-2.6,1.1-2.6,2.8,1.2,2.8,2.6,2.8,2.6-1.1,2.6-2.8Z"/>
    <path class="st0" d="M115.1,20.2c0,2.6-2.1,4.6-4.6,4.6s-4.6-2-4.6-4.6,2.1-4.6,4.6-4.6,4.6,1.9,4.6,4.6ZM113,20.2c0-1.6-1.2-2.8-2.6-2.8s-2.6,1.1-2.6,2.8,1.2,2.8,2.6,2.8,2.6-1.1,2.6-2.8Z"/>
    <path class="st0" d="M124.6,15.9v8.2c0,3.4-2,4.8-4.4,4.8s-3.6-1.5-4.1-2.7l1.8-.7c.3.8,1.1,1.6,2.3,1.6s2.4-.9,2.4-2.7v-.7h0c-.4.6-1.3,1-2.4,1-2.3,0-4.4-2-4.4-4.6s2.1-4.6,4.4-4.6,2,.5,2.4,1h0v-.8s1.9,0,1.9,0ZM122.8,20.2c0-1.6-1.1-2.8-2.4-2.8s-2.6,1.2-2.6,2.8,1.2,2.8,2.6,2.8,2.4-1.2,2.4-2.8Z"/>
    <path class="st0" d="M127.7,11.1v13.4h-2v-13.4h2Z"/>
    <path class="st0" d="M135.4,21.7l1.6,1c-.5.8-1.7,2-3.8,2s-4.6-2-4.6-4.6,2-4.6,4.3-4.6,3.5,1.9,3.9,2.9l.2.5-6.1,2.5c.5.9,1.2,1.4,2.2,1.4s1.7-.5,2.3-1.3h0ZM130.6,20.1l4.1-1.7c-.2-.6-.9-1-1.7-1s-2.4.9-2.4,2.7h0Z"/>
    <path class="st0" d="M88.5,19v-2h6.6c0,.3,0,.7,0,1.2,0,1.5-.4,3.3-1.7,4.6-1.2,1.3-2.8,2-5,2-3.9,0-7.2-3.2-7.2-7.1s3.3-7.1,7.2-7.1,3.7.9,4.9,2l-1.4,1.4c-.8-.8-2-1.4-3.5-1.4-2.9,0-5.1,2.3-5.1,5.2s2.2,5.2,5.1,5.2,2.9-.8,3.6-1.4c.6-.5.9-1.3,1.1-2.4h-4.7Z"/>
  </g>
</svg>