<?xml version="1.0" encoding="UTF-8"?>
<svg id="Layer_1" xmlns="http://www.w3.org/2000/svg" version="1.1" viewBox="0 0 1162.5 1162.5">
  <!-- Generator: Adobe Illustrator 29.5.1, SVG Export Plug-In . SVG Version: 2.1.0 Build 141)  -->
  <defs>
    <style>
      .st0 {
        stroke-miterlimit: 10;
        stroke-width: 15px;
      }

      .st0, .st1, .st2, .st3, .st4 {
        stroke: #000;
      }

      .st0, .st2 {
        fill: #fff;
      }

      .st1 {
        fill: none;
      }

      .st1, .st2, .st3, .st4 {
        stroke-linecap: round;
        stroke-linejoin: round;
      }

      .st1, .st3 {
        stroke-width: 26.1px;
      }

      .st5 {
        fill: #00649d;
      }

      .st2, .st4 {
        stroke-width: 29.3px;
      }

      .st3 {
        fill: #9ed6f4;
      }

      .st4 {
        fill: #00aeef;
      }
    </style>
  </defs>
  <g id="Event_Registration">
    <g>
      <path class="st3" d="M865.3,955l129.7,127.2c14.9,14.6,14.9,38.3,0,53h0c-14.9,14.6-39.1,14.6-54,0l-129.7-127.3"/>
      <path class="st3" d="M141.9,89.5c-9-4.5-26.2-6.5-42.5-7.2-21.1-1-39.1,14.8-40.9,35.5L15.4,624c-2.1,24.5,19.3,44.8,44.2,41.6,32.8-4.1,81.2-6.8,142.2-.8,0,0,115.8,8.6,155.7,24.6s444.9,4,444.9,4c0,0,92.4-20.9,144.4-27.5,66-8.4,118.2-4.7,152.8-.3,24.9,3.1,46.3-17.1,44.2-41.6l-43.1-506.3c-1.8-20.7-19.8-36.4-40.9-35.5-16.2.7-33.5,2.7-42.5,7.2l-468.4,137.4L141.9,89.5Z"/>
      <path class="st2" d="M579.7,172.2S694.6,2.7,1011.1,19.2l48.9,568.6c-47.6-.4-159.3-1.7-214.5,20.4l-544.1-4s-101.1-34.7-201.9-16.4C119.4,343.2,148.4,19.2,148.4,19.2c0,0,271.6-29.2,431.3,153Z"/>
      <path class="st1" d="M606.4,1077.9c182.4,0,330.2-145.1,330.2-324"/>
      <path class="st5" d="M167.6,409.9c21.3-30.8,40-63.2,55.9-97,45.8-97.3,142.8-162.2,252-163.1h5.3c-51.2-36.4-141.4-78.9-284-80l-29.2,340.1Z"/>
      <path class="st5" d="M992,409.9c-21.3-30.8-40-63.2-55.9-97-45.8-97.3-142.8-162.2-252-163.1h-5.3c51.2-36.4,141.4-78.9,284-80l29.2,340.1Z"/>
    </g>
    <line class="st1" x1="578.5" y1="346.2" x2="579.7" y2="172.2"/>
  </g>
  <g id="Layer_2">
    <ellipse class="st4" cx="574.3" cy="722.4" rx="288.4" ry="283"/>
    <path class="st0" d="M649.4,925.3h-141.4v-27.9h41.3v-237.5h-41.3v-27.9h100v265.4h41.3v27.9h.1ZM537.1,541.5c0-10.8,3.8-19.4,11.5-25.7,7.6-6.3,17.4-9.5,29.3-9.5s22.6,3.2,29.9,9.5c7.3,6.3,10.9,14.9,10.9,25.7s-3.6,19.4-10.9,25.7c-7.3,6.3-17.2,9.5-29.9,9.5s-21.7-3.2-29.3-9.5c-7.7-6.3-11.5-14.9-11.5-25.7Z"/>
  </g>
</svg>