<?xml version="1.0" encoding="UTF-8"?>
<svg id="Layer_1" xmlns="http://www.w3.org/2000/svg" version="1.1" viewBox="0 0 200 200.8">
  <!-- Generator: Adobe Illustrator 29.5.1, SVG Export Plug-In . SVG Version: 2.1.0 Build 141)  -->
  <defs>
    <style>
      .st0 {
        fill: #1a8b90;
      }

      .st0, .st1 {
        stroke: #000;
        stroke-width: 7.6px;
      }

      .st2 {
        fill: #9ed6f4;
      }

      .st3 {
        fill: #00649d;
      }

      .st1 {
        fill: #51989d;
      }

      .st4 {
        fill: #00aeef;
      }
    </style>
  </defs>
  <g id="Layer_11" data-name="Layer_1">
    <g>
      <path class="st0" d="M130.8,191.5v-18.7h-.2c-1,6.5-2,13.1-3,19.8-18.1,4.8-36.2,4.8-54.4,0-1-6.7-2-13.3-3-19.8h-.2v18.7c-1.1-.4-2-.6-3-1-3.3-1.3-6.6-2.9-9.7-4.9-.9-.6-1.9-1.3-2.8-2-.3-.2-.4-.7-.4-1,0-6.6,0-13.2.2-19.8.2-4.7,1.1-9.3,3.1-13.5,1.3-2.9,3.2-5.4,5.4-7.5,2.7-2.7,5.9-4.7,9.3-6,3.2-1.3,6.5-2,9.8-2.9,1.7-.5,3.5-.6,5.3-1,1.1-.2,2.1.2,3,.7,3.5,1.7,7.2,2.5,10.9,2.4,3.2-.1,6.5-.7,9.4-2.4,1.9-1.1,3.7-.6,5.5-.2,2.4.4,4.9.9,7.3,1.5,1.8.5,3.7,1.1,5.4,1.9,2.1,1,4.2,2.3,6.2,3.6,3.5,2.4,6.1,5.6,7.7,9.7,1,2.4,1.7,5,2.1,7.6.5,2.6.7,5.2.8,7.8.1,6.3.1,12.7.2,19,0,.6-.1,1-.6,1.3-2.4,1.4-4.7,2.8-7.1,4.1-1.9,1-3.8,1.7-5.8,2.4-.5,0-.9,0-1.4.2"/>
      <path class="st1" d="M178.5,159.1v-18.4h-.2c-.4,3-.8,6-1.3,8.9-.3,2.1-.7,4.1-1,6.2-.1.9-.3,1.8-.4,2.7-.1,1.3-.6,2.1-1.8,2.3-2,.4-4,1-6,1.4-1.8.4-3.6.6-5.4.8-3.4.4-6.8.6-10.2,1-.2-2.1-.4-4.1-.7-6-.2-1.8-.4-3.5-.9-5.2-.7-2.5-1.6-5-2.6-7.4-1.4-3.5-3.6-6.5-6.3-9-3.6-3.5-7.6-6-12.2-7.7-2.5-.9-5.1-1.8-7.7-2.7,6.4-7.1,9.6-15.7,9.3-25.7,1.4-.2,2.7-.4,4-.7,1-.2,1.9.3,2.8.7,3.6,1.8,7.4,2.6,11.3,2.4,3.6-.2,7.1-1.1,10.4-2.9.4-.2,1-.2,1.5,0,3.2.6,6.5,1,9.6,1.9,4.5,1.3,8.9,3.1,12.7,6.1,3.5,2.7,6.1,6,8,10.1,1.3,3,2.1,6.2,2.5,9.5,1,7.8.3,15.6.5,23.4,0,.3-.3.8-.5,1-2.6,1.6-5.2,3.4-7.9,4.8-1.9,1-4,1.8-6.1,2.6-.3-.1-.7-.1-1.4,0"/>
      <path class="st1" d="M78.9,126.1c-1.5.5-2.8.8-4,1.3-2,.7-4,1.3-6,2.2-3.2,1.4-6.2,3.2-8.9,5.6-3.3,2.8-6.1,6.2-8,10.3-1,2.2-2,4.4-2.6,6.7-.7,2.5-1,5.2-1.5,7.8-.2,1.2-.3,2.5-.5,3.8-.9,0-1.9.1-2.9,0-2.6-.2-5.2-.5-7.8-.9-1.8-.2-3.5-.6-5.3-1s-3.6-.9-5.3-1.2c-.7-.2-1-.6-1.1-1.3-.2-1.3-.4-2.6-.6-3.9-.5-3.1-1-6.2-1.5-9.3-.3-1.8-.5-3.5-.9-5.3v18.7c-1.7-.6-3.3-1-4.7-1.7-3.1-1.6-6.2-3.3-9.2-5-.6-.3-1.1-.8-1.7-1.2-.2-.2-.5-.6-.5-.9,0-6.2,0-12.5,0-18.7,0-4.3.8-8.6,2.3-12.6,2.2-5.9,6-10.5,11.2-13.4,2.6-1.5,5.3-2.8,8.1-3.7,3.3-1,6.7-1.5,10.1-2.3.3,0,.5,0,.8,0,1.3-.5,2.4-.2,3.6.4,3.7,1.8,7.6,2.7,11.6,2.4,3.5-.2,6.7-1.2,9.9-2.7.7-.3,1.5-.4,2.3-.3,1.1,0,2.3.4,3.6.6-.2,4.7.5,9.4,2.1,13.9,1.8,4.4,4.2,8.3,7.4,11.8"/>
      <path class="st0" d="M99.9,128.3c-13.3-.2-24-11.8-23.9-26.5,0-14.9,10.7-26.5,24.6-26.4,13.6,0,24,11.6,24.1,26.4,0,14.8-10.8,26.8-24.8,26.5"/>
      <path class="st1" d="M76.7,69.8c0,14.5-10.9,26.5-24.3,26.4-13.6-.2-23.7-11.9-24.2-25.2-.6-16,10.9-28.1,24.9-27.8,12.7.3,23.7,11.5,23.6,26.6"/>
      <path class="st1" d="M172.4,69.7c.1,14.6-10.9,26.5-24.4,26.5-13,0-24.5-11.7-24.1-27.2.3-13.9,10.7-26.1,24.9-25.7,12.7.2,23.7,11.5,23.6,26.4"/>
      <path class="st1" d="M100.2,13.4c9.2-.2,17.2,8.3,17,19-.2,9.8-7.8,18.1-16.9,18.1-9.5,0-17.1-8.1-17.1-18.6,0-10.2,7.5-18.7,17-18.5"/>
      <path class="st1" d="M147.9,37.8c-.2-2-.7-3.9-.6-5.9.1-7.1,2.9-12.6,8.6-16.1,3.9-2.5,8.1-3,12.5-1.8,4.1,1.1,7.3,3.5,9.7,7.2,2.1,3.2,3,6.8,3.1,10.8.1,5.5-1.9,9.8-5.4,13.5-1.3,1.4-3.1,2.3-4.7,3.4-.5.3-.9.2-1.4-.3-3-3.7-6.7-6.5-10.9-8.3-2.9-1.3-6-2.2-9.1-2.1-.5-.2-1-.3-1.8-.4"/>
      <path class="st1" d="M19.5,31.7c.1-6,2.3-10.9,6.6-14.6,3.7-3.1,8-4.4,12.5-3.7,5.6.8,10,4.1,12.8,9.5,1.7,3.2,2.4,6.8,1.9,10.6-.2,1.2-.4,2.5-.6,3.7,0,.2-.3.6-.6.6-.6,0-1.2,0-1.8.2-1.7.3-3.4.4-5,.8-2.7.7-5.2,1.8-7.5,3.4-2.6,1.7-4.9,3.7-6.9,6.2-.5.6-.9.5-1.3.3-2.2-1.1-4.2-2.6-5.8-4.6-1.4-1.7-2.4-3.6-3.2-5.7-.8-2.1-1.3-4.3-1.1-6.7"/>
      <path class="st1" d="M172.9,52.5c2.8.7,5.6,1.3,8.3,2,3.1.8,5.9,2.2,8.4,4.5,2.3,2.1,3.9,4.7,4.9,7.9,1.2,3.7,1.3,7.6,1.4,11.4.1,3.5,0,7,0,10.4s-.2,1-.7,1.3c-2.8,1.8-5.7,3.1-8.7,4.3-.3,0-.6,0-1,0v-12.5h-.2c-.2,1.6-.4,3.2-.7,4.9-.3,2.1-.7,4.3-1,6.4-.1.3-.2.6-.1.9.2,1-.4,1.4-1.2,1.6-2.4.5-4.9.9-7.3,1.3-.5,0-1,0-1.5,0-2.5-.7-4.9-1.4-7.3-2,12-12.1,14.4-26.1,6.7-42.4"/>
      <path class="st1" d="M34.4,94.9c-2.3.6-4.7,1.4-7.1,1.9-1.1.2-2.4.2-3.5,0-1.7-.3-3.5-.7-5.2-1.1-1.1-.2-1.3-.5-1.4-1.7-.2-1.8-.5-3.5-.8-5.3-.4-2.3-.7-4.6-1.2-6.9v12.7c-1-.3-1.9-.5-2.8-.9-2.3-1.1-4.5-2.3-6.7-3.5-.7-.4-1-.9-1-1.9,0-4.3,0-8.7,0-13,0-4.1.7-8.1,2.6-11.8,1.2-2.4,3.1-4.3,5.2-5.9,2.5-1.8,5.4-2.9,8.3-3.7,2.2-.6,4.5-.9,6.8-1.3-7.7,16.3-5.2,30.3,6.7,42.4"/>
      <path class="st1" d="M80.4,78.7c2.1-7.8,1.4-15.1-1.5-22.5,1.3-.5,2.6-1.2,4-1.6,1.4-.5,2.9-.8,4.4-1.2,1.4-.3,2.9-.6,4.4-.7.5,0,1.1.4,1.7.6,2.6,1.3,5.3,1.7,8.2,1.5,2.1-.2,4.2-.6,6.1-1.7,1.3-.8,2.5-.2,3.7,0,3.2.4,6.4,1.3,9.4,2.7.3,0,.6.3,1,.5-2.9,7.2-3.6,14.6-1.4,22.3-11.9-11.5-29-10.9-40,.1"/>
      <path class="st1" d="M80.6,17.3c.2,7.4-5.6,13.2-12.1,13.2-6.6-.1-12-5.6-12-13.2,0-7.3,5.3-13.3,12.2-13.2,6.3,0,12.2,5.7,11.9,13.2"/>
      <path class="st1" d="M144.5,17.2c.3,7.4-5.5,13.3-12,13.2-6.8,0-11.9-5.8-12.1-12.8-.2-7.7,5.6-13.5,12.1-13.6,6.4,0,12.4,5.8,12,13.2"/>
      <path class="st1" d="M142.2,32.7c.3,1.9.5,3.7.8,5.6-1.1.3-2.1.7-3.2,1-3.2.9-6.1,2.6-8.8,4.8-2.4,1.9-4.5,4.1-6.2,6.8-.4.6-.8.7-1.4.5-2.3-.9-4.6-1.7-6.8-2.5-.5-.2-.5-.4-.2-.9,1.2-1.8,2.5-3.6,3.5-5.5,1.2-2.3,1.9-4.8,2.1-7.4,0-2.1.4-2.3,2.4-2.7,2.2-.5,4.1.6,6.1,1.1,2.3.5,4.5.3,6.6-.7,1.7-1,3.4-.4,5.1,0"/>
      <path class="st1" d="M84.4,48.6c-.8.3-1.6.5-2.4.8-1.6.6-3.3,1.3-4.9,1.9-.3,0-.9,0-1.1-.4-2.4-3.7-5.4-6.5-9-8.8-2.6-1.7-5.4-3-8.4-3.5-.3,0-.7-.2-1-.4.2-1.7.4-3.4.7-5,0-.2.2-.5.3-.5,1.7-.4,3.4-1.1,5.1-.3,2.3,1.1,4.7,1.5,7.1.9,1-.2,2-.6,2.9-1,1.4-.6,2.8,0,4.1.2.2,0,.5.5.5.7.3,4.1,1.5,8,3.5,11.4.7,1.5,1.7,2.7,2.6,4"/>
    </g>
    <rect x="31" y="30.6" width="134" height="123"/>
  </g>
  <g id="Layer_21" data-name="Layer_2">
    <g>
      <path class="st4" d="M130.8,191.5v-18.7h-.2c-1,6.5-2,13.1-3,19.8-18.1,4.8-36.2,4.8-54.4,0-1-6.7-2-13.3-3-19.8h-.2v18.7c-1.1-.4-2-.6-3-1-3.3-1.3-6.6-2.9-9.7-4.9-.9-.6-1.9-1.3-2.8-2-.3-.2-.4-.7-.4-1,0-6.6,0-13.2.2-19.8.2-4.7,1.1-9.3,3.1-13.5,1.3-2.9,3.2-5.4,5.4-7.5,2.7-2.7,5.9-4.7,9.3-6,3.2-1.3,6.5-2,9.8-2.9,1.7-.5,3.5-.6,5.3-1,1.1-.2,2.1.2,3,.7,3.5,1.7,7.2,2.5,10.9,2.4,3.2-.1,6.5-.7,9.4-2.4,1.9-1.1,3.7-.6,5.5-.2,2.4.4,4.9.9,7.3,1.5,1.8.5,3.7,1.1,5.4,1.9,2.1,1,4.2,2.3,6.2,3.6,3.5,2.4,6.1,5.6,7.7,9.7,1,2.4,1.7,5,2.1,7.6.5,2.6.7,5.2.8,7.8.1,6.3.1,12.7.2,19,0,.6-.1,1-.6,1.3-2.4,1.4-4.7,2.8-7.1,4.1-1.9,1-3.8,1.7-5.8,2.4-.5,0-.9,0-1.4.2"/>
      <path class="st2" d="M178.5,159.1v-18.4h-.2c-.4,3-.8,6-1.3,8.9-.3,2.1-.7,4.1-1,6.2-.1.9-.3,1.8-.4,2.7-.1,1.3-.6,2.1-1.8,2.3-2,.4-4,1-6,1.4-1.8.4-3.6.6-5.4.8-3.4.4-6.8.6-10.2,1-.2-2.1-.4-4.1-.7-6-.2-1.8-.4-3.5-.9-5.2-.7-2.5-1.6-5-2.6-7.4-1.4-3.5-3.6-6.5-6.3-9-3.6-3.5-7.6-6-12.2-7.7-2.5-.9-5.1-1.8-7.7-2.7,6.4-7.1,9.6-15.7,9.3-25.7,1.4-.2,2.7-.4,4-.7,1-.2,1.9.3,2.8.7,3.6,1.8,7.4,2.6,11.3,2.4,3.6-.2,7.1-1.1,10.4-2.9.4-.2,1-.2,1.5,0,3.2.6,6.5,1,9.6,1.9,4.5,1.3,8.9,3.1,12.7,6.1,3.5,2.7,6.1,6,8,10.1,1.3,3,2.1,6.2,2.5,9.5,1,7.8.3,15.6.5,23.4,0,.3-.3.8-.5,1-2.6,1.6-5.2,3.4-7.9,4.8-1.9,1-4,1.8-6.1,2.6-.3-.1-.7-.1-1.4,0"/>
      <path class="st3" d="M78.9,126.1c-1.5.5-2.8.8-4,1.3-2,.7-4,1.3-6,2.2-3.2,1.4-6.2,3.2-8.9,5.6-3.3,2.8-6.1,6.2-8,10.3-1,2.2-2,4.4-2.6,6.7-.7,2.5-1,5.2-1.5,7.8-.2,1.2-.3,2.5-.5,3.8-.9,0-1.9.1-2.9,0-2.6-.2-5.2-.5-7.8-.9-1.8-.2-3.5-.6-5.3-1s-3.6-.9-5.3-1.2c-.7-.2-1-.6-1.1-1.3-.2-1.3-.4-2.6-.6-3.9-.5-3.1-1-6.2-1.5-9.3-.3-1.8-.5-3.5-.9-5.3v18.7c-1.7-.6-3.3-1-4.7-1.7-3.1-1.6-6.2-3.3-9.2-5-.6-.3-1.1-.8-1.7-1.2-.2-.2-.5-.6-.5-.9,0-6.2,0-12.5,0-18.7,0-4.3.8-8.6,2.3-12.6,2.2-5.9,6-10.5,11.2-13.4,2.6-1.5,5.3-2.8,8.1-3.7,3.3-1,6.7-1.5,10.1-2.3.3,0,.5,0,.8,0,1.3-.5,2.4-.2,3.6.4,3.7,1.8,7.6,2.7,11.6,2.4,3.5-.2,6.7-1.2,9.9-2.7.7-.3,1.5-.4,2.3-.3,1.1,0,2.3.4,3.6.6-.2,4.7.5,9.4,2.1,13.9,1.8,4.4,4.2,8.3,7.4,11.8"/>
      <path class="st4" d="M99.9,128.3c-13.3-.2-24-11.8-23.9-26.5,0-14.9,10.7-26.5,24.6-26.4,13.6,0,24,11.6,24.1,26.4,0,14.8-10.8,26.8-24.8,26.5"/>
      <path class="st3" d="M76.7,69.8c0,14.5-10.9,26.5-24.3,26.4-13.6-.2-23.7-11.9-24.2-25.2-.6-16,10.9-28.1,24.9-27.8,12.7.3,23.7,11.5,23.6,26.6"/>
      <path class="st2" d="M172.4,69.7c.1,14.6-10.9,26.5-24.4,26.5-13,0-24.5-11.7-24.1-27.2.3-13.9,10.7-26.1,24.9-25.7,12.7.2,23.7,11.5,23.6,26.4"/>
      <path class="st3" d="M100.2,13.4c9.2-.2,17.2,8.3,17,19-.2,9.8-7.8,18.1-16.9,18.1-9.5,0-17.1-8.1-17.1-18.6,0-10.2,7.5-18.7,17-18.5"/>
      <path class="st4" d="M147.9,37.8c-.2-2-.7-3.9-.6-5.9.1-7.1,2.9-12.6,8.6-16.1,3.9-2.5,8.1-3,12.5-1.8,4.1,1.1,7.3,3.5,9.7,7.2,2.1,3.2,3,6.8,3.1,10.8.1,5.5-1.9,9.8-5.4,13.5-1.3,1.4-3.1,2.3-4.7,3.4-.5.3-.9.2-1.4-.3-3-3.7-6.7-6.5-10.9-8.3-2.9-1.3-6-2.2-9.1-2.1-.5-.2-1-.3-1.8-.4"/>
      <path class="st2" d="M19.5,31.7c.1-6,2.3-10.9,6.6-14.6,3.7-3.1,8-4.4,12.5-3.7,5.6.8,10,4.1,12.8,9.5,1.7,3.2,2.4,6.8,1.9,10.6-.2,1.2-.4,2.5-.6,3.7,0,.2-.3.6-.6.6-.6,0-1.2,0-1.8.2-1.7.3-3.4.4-5,.8-2.7.7-5.2,1.8-7.5,3.4-2.6,1.7-4.9,3.7-6.9,6.2-.5.6-.9.5-1.3.3-2.2-1.1-4.2-2.6-5.8-4.6-1.4-1.7-2.4-3.6-3.2-5.7-.8-2.1-1.3-4.3-1.1-6.7"/>
      <path class="st4" d="M172.9,52.5c2.8.7,5.6,1.3,8.3,2,3.1.8,5.9,2.2,8.4,4.5,2.3,2.1,3.9,4.7,4.9,7.9,1.2,3.7,1.3,7.6,1.4,11.4.1,3.5,0,7,0,10.4s-.2,1-.7,1.3c-2.8,1.8-5.7,3.1-8.7,4.3-.3,0-.6,0-1,0v-12.5h-.2c-.2,1.6-.4,3.2-.7,4.9-.3,2.1-.7,4.3-1,6.4-.1.3-.2.6-.1.9.2,1-.4,1.4-1.2,1.6-2.4.5-4.9.9-7.3,1.3-.5,0-1,0-1.5,0-2.5-.7-4.9-1.4-7.3-2,12-12.1,14.4-26.1,6.7-42.4"/>
      <path class="st2" d="M34.4,94.9c-2.3.6-4.7,1.4-7.1,1.9-1.1.2-2.4.2-3.5,0-1.7-.3-3.5-.7-5.2-1.1-1.1-.2-1.3-.5-1.4-1.7-.2-1.8-.5-3.5-.8-5.3-.4-2.3-.7-4.6-1.2-6.9v12.7c-1-.3-1.9-.5-2.8-.9-2.3-1.1-4.5-2.3-6.7-3.5-.7-.4-1-.9-1-1.9,0-4.3,0-8.7,0-13,0-4.1.7-8.1,2.6-11.8,1.2-2.4,3.1-4.3,5.2-5.9,2.5-1.8,5.4-2.9,8.3-3.7,2.2-.6,4.5-.9,6.8-1.3-7.7,16.3-5.2,30.3,6.7,42.4"/>
      <path class="st3" d="M80.4,78.7c2.1-7.8,1.4-15.1-1.5-22.5,1.3-.5,2.6-1.2,4-1.6,1.4-.5,2.9-.8,4.4-1.2,1.4-.3,2.9-.6,4.4-.7.5,0,1.1.4,1.7.6,2.6,1.3,5.3,1.7,8.2,1.5,2.1-.2,4.2-.6,6.1-1.7,1.3-.8,2.5-.2,3.7,0,3.2.4,6.4,1.3,9.4,2.7.3,0,.6.3,1,.5-2.9,7.2-3.6,14.6-1.4,22.3-11.9-11.5-29-10.9-40,.1"/>
      <path class="st4" d="M80.6,17.3c.2,7.4-5.6,13.2-12.1,13.2-6.6-.1-12-5.6-12-13.2,0-7.3,5.3-13.3,12.2-13.2,6.3,0,12.2,5.7,11.9,13.2"/>
      <path class="st2" d="M144.5,17.2c.3,7.4-5.5,13.3-12,13.2-6.8,0-11.9-5.8-12.1-12.8-.2-7.7,5.6-13.5,12.1-13.6,6.4,0,12.4,5.8,12,13.2"/>
      <path class="st2" d="M142.2,32.7c.3,1.9.5,3.7.8,5.6-1.1.3-2.1.7-3.2,1-3.2.9-6.1,2.6-8.8,4.8-2.4,1.9-4.5,4.1-6.2,6.8-.4.6-.8.7-1.4.5-2.3-.9-4.6-1.7-6.8-2.5-.5-.2-.5-.4-.2-.9,1.2-1.8,2.5-3.6,3.5-5.5,1.2-2.3,1.9-4.8,2.1-7.4,0-2.1.4-2.3,2.4-2.7,2.2-.5,4.1.6,6.1,1.1,2.3.5,4.5.3,6.6-.7,1.7-1,3.4-.4,5.1,0"/>
      <path class="st4" d="M84.4,48.6c-.8.3-1.6.5-2.4.8-1.6.6-3.3,1.3-4.9,1.9-.3,0-.9,0-1.1-.4-2.4-3.7-5.4-6.5-9-8.8-2.6-1.7-5.4-3-8.4-3.5-.3,0-.7-.2-1-.4.2-1.7.4-3.4.7-5,0-.2.2-.5.3-.5,1.7-.4,3.4-1.1,5.1-.3,2.3,1.1,4.7,1.5,7.1.9,1-.2,2-.6,2.9-1,1.4-.6,2.8,0,4.1.2.2,0,.5.5.5.7.3,4.1,1.5,8,3.5,11.4.7,1.5,1.7,2.7,2.6,4"/>
    </g>
  </g>
</svg>