<?xml version="1.0" encoding="UTF-8"?>
<svg id="Layer_1" xmlns="http://www.w3.org/2000/svg" version="1.1" viewBox="0 0 200 200.8">
  <!-- Generator: Adobe Illustrator 29.5.1, SVG Export Plug-In . SVG Version: 2.1.0 Build 141)  -->
  <defs>
    <style>
      .st0 {
        stroke-width: 3.7px;
      }

      .st0, .st1, .st2, .st3, .st4 {
        fill: none;
      }

      .st0, .st1, .st2, .st3, .st4, .st5, .st6, .st7, .st8 {
        stroke-linecap: round;
        stroke-linejoin: round;
      }

      .st0, .st1, .st2, .st3, .st5, .st6, .st7, .st8 {
        stroke: #000;
      }

      .st1 {
        stroke-width: 4.7px;
      }

      .st2, .st4 {
        stroke-width: 5.3px;
      }

      .st3, .st5, .st8 {
        stroke-width: 5.2px;
      }

      .st4 {
        stroke: #00649d;
      }

      .st9 {
        fill: #00aeef;
      }

      .st10 {
        fill: #fff;
      }

      .st5, .st6, .st7 {
        fill: #9ed6f4;
      }

      .st6 {
        stroke-width: 3.7px;
      }

      .st7 {
        stroke-width: 3.7px;
      }

      .st8 {
        fill: #00649d;
      }
    </style>
  </defs>
  <polygon class="st10" points="21.7 68.5 21.7 196 178.9 196 178.9 68.7 99.5 4.3 21.7 68.5"/>
  <path class="st9" d="M57.1,155.5c1.4,0,2.5-1.2,2.5-2.5v-11.3s-.2-13.6,5.9-16.4c1.5-.7,2.5-2.3,2.2-4v-.2c0,0,0,0,0,0h-27.6c-.2,0-5.9.5-5.9,5.5v29c0,.1,0,.2.2.2l22.8-.2Z"/>
  <path class="st9" d="M143.6,155.5c-1.4,0-2.4-1.1-2.4-2.5v-11.4s.2-13.6-5.9-16.4c-1.5-.7-2.5-2.3-2.2-4v-.3h27.7s5.9.5,5.9,5.5v29.2h-23.1Z"/>
  <g>
    <line class="st2" x1="99.9" y1="4.2" x2="2.9" y2="83"/>
    <line class="st4" x1="99.9" y1="30.6" x2="62.9" y2="60.7"/>
    <line class="st2" x1="99.9" y1="4.2" x2="197" y2="83"/>
    <polyline class="st3" points="178.8 84.2 178.8 197.1 110.4 197.1 21.1 197.1 21.1 84.2"/>
    <line class="st4" x1="99.9" y1="30.6" x2="137" y2="60.7"/>
  </g>
  <g>
    <path class="st8" d="M65.4,184.7v-45.8c0-6.5,5.3-11.8,11.8-11.8h45.4c6.5,0,11.8,5.3,11.8,11.8v45.8"/>
    <line class="st3" x1="119.1" y1="152.8" x2="119.1" y2="184.7"/>
    <line class="st1" x1="80.1" y1="152.8" x2="80.1" y2="184.7"/>
    <circle class="st5" cx="99.8" cy="97.8" r="18.1"/>
    <line class="st3" x1="99.8" y1="127.2" x2="99.8" y2="148.1"/>
  </g>
  <g>
    <line class="st0" x1="158" y1="135.2" x2="158" y2="154.8"/>
    <circle class="st7" cx="146.1" cy="101.3" r="11.2"/>
    <path class="st0" d="M133.9,119.4h26.1c4,0,7.3,3.2,7.3,7.3v28.2"/>
    <line class="st0" x1="146.1" y1="119.4" x2="146.1" y2="132.3"/>
  </g>
  <g>
    <line class="st0" x1="41.5" y1="135.2" x2="41.5" y2="154.8"/>
    <circle class="st6" cx="53.7" cy="101.3" r="11.2"/>
    <path class="st0" d="M32.4,154.8v-28.2c0-4,3.2-7.3,7.3-7.3h27.2"/>
    <line class="st0" x1="53.7" y1="119.4" x2="53.7" y2="132.3"/>
  </g>
</svg>