<?xml version="1.0" encoding="UTF-8"?>
<svg id="Layer_1" xmlns="http://www.w3.org/2000/svg" version="1.1" viewBox="0 0 1162.5 1162.5">
  <!-- Generator: Adobe Illustrator 29.5.1, SVG Export Plug-In . SVG Version: 2.1.0 Build 141)  -->
  <defs>
    <style>
      .st0 {
        fill: #00649d;
      }

      .st1 {
        fill: #fff;
      }

      .st2 {
        fill: #00aeef;
        stroke: #000;
        stroke-linecap: round;
        stroke-linejoin: round;
        stroke-width: 30px;
      }
    </style>
  </defs>
  <path class="st1" d="M215.7,368.7L30.8,501.7s153,573.3,154.3,569.3,212.8-143.7,212.8-143.7l272.7,17.3,180.9-190.2,270-20-202.2-486.8-234.1-8-158.3,165-147.6-30.6-163.6-5.3h0Z"/>
  <g id="D4Es09">
    <g>
      <path d="M168.8,376.1c6.5,10.4,12.7,20.3,18.7,30.4.4.6-.4,2.6-1.2,3.1-19.9,14.4-40,28.6-59.9,43-21.7,15.7-43.4,31.4-65.1,47.1-3.4,2.5-7,4.7-10.2,7.4-1,.8-1.5,3.1-1.2,4.4,5.5,21.2,11.2,42.5,16.9,63.7,5.1,19.1,10.3,38.2,15.5,57.3,5.8,21.5,11.5,42.9,17.2,64.4,5.9,22.3,11.7,44.6,17.6,66.9,2.9,10.8,6.2,21.6,9.1,32.4,6,22.9,11.8,45.9,17.8,68.9,5,19,10.3,37.9,15.4,56.8,9.8,36.7,19.6,73.4,29.4,110.1,1,3.9,2.2,7.8,3.5,12.3,2.5-1.5,4.7-2.8,6.7-4.2,23.5-15.8,46.9-31.7,70.4-47.5,24.1-16.2,48.4-32.3,72.5-48.5,17.6-11.8,35.2-23.6,52.9-35.3,1.5-1,3.6-1.4,5.4-1.3,15,.7,30.1,1.6,45.1,2.5,24,1.4,48.1,2.8,72.1,4.1,22,1.2,44,2.2,66,3.4,20.2,1.2,40.4,2.6,60.6,3.9h2.6c-.6-3-1-5.7-1.8-8.3-5.4-18.6-11-37.1-16.4-55.7-6.7-22.9-13.2-45.9-19.8-68.8-5.8-19.9-11.6-39.8-17.3-59.7-5.8-19.9-11.5-39.8-17.2-59.7-6.1-21.1-12.1-42.2-18.2-63.4-6.2-21.6-12.5-43.2-18.7-64.8-5.7-19.9-11.5-39.8-17.2-59.8-5.3-18.6-10.8-37.2-15.8-55.9-1.3-4.8-3.8-6.4-8.3-7.1-17.7-2.7-35.3-5.7-53.8-8.8,1.4-2.7,2.5-5.2,3.9-7.5,4.7-8.3,9.5-16.5,14.2-24.8,1.3-2.2,2.7-3.3,5.6-2.8,13.2,2.4,26.4,4.4,39.6,6.7,3.1.5,5.3-.3,7.6-2.6,25.4-24.4,51-48.6,76.5-72.9,24.6-23.5,49.1-47,73.7-70.5,4-3.9,8.3-7.4,12.2-11.4,2-2.1,4.1-2.7,6.9-2.5,26.1,1.3,52.2,2.5,78.3,3.7,47.8,2.2,95.7,4.4,143.5,6.6,6.8.3,13.7.5,20.5.6,3.1.1,5,1.3,6.3,4.2,8.6,19.9,17.3,39.7,25.9,59.5,8.2,18.9,16.3,37.8,24.4,56.7,7.1,16.5,14,33.1,21.1,49.6,7.2,16.9,14.4,33.8,21.6,50.7,9.1,21.4,18.1,42.9,27.2,64.3,6.3,14.8,12.8,29.4,19,44.2,8,18.9,15.9,37.9,24,56.8,6,14,12.1,28,18.1,42,4.5,10.6,8.7,21.2,13.2,31.7,5.2,12.2,10.6,24.2,15.8,36.4,3.1,7.1,6,14.3,9.2,22-1.6.4-3,1-4.5,1.1-30,2.4-60,4.7-90,7.1-29.9,2.4-59.7,4.9-89.6,7.4-29,2.4-58.1,4.7-87.2,7.1-6.5.5-13.1.9-19.6,1.6-1.2,0-2.6.8-3.4,1.6-18.9,19.6-37.7,39.3-56.5,59-22.1,23.1-44.3,46.2-66.4,69.2-17.8,18.5-35.6,37.1-53.3,55.7-1.9,2-3.7,2.8-6.4,2.6-50.9-3.1-101.9-6.3-152.8-9.3-37-2.2-74-4.3-111.1-6.3-2,0-4.3.6-6,1.7-21.3,14.3-42.6,28.7-63.9,43-29.8,20-59.8,39.8-89.6,59.8-24.8,16.6-49.6,33.3-74.4,50-1.1.7-2.3,1.3-3.8,2.1-5.4-20.2-10.6-39.9-15.9-59.6-7-26.1-14-52.1-21.1-78.2-3.9-14.5-7.8-29-11.6-43.5-5.3-20.2-10.6-40.4-15.9-60.5-5.6-21.4-11.3-42.7-17-64-5.1-19.1-10.3-38.2-15.5-57.3-3.9-14.4-7.7-28.7-11.5-43.1-5.3-20-10.5-40.1-15.8-60.2-6-21.8-11.8-43.4-17.6-65-5.1-19-10.2-37.9-15.4-56.9-1.9-7.1-3.9-14.2-5.6-21.3-.3-1.1.6-3.1,1.6-3.9,9.9-7.4,20-14.6,30.1-21.8,18.6-13.4,37.2-26.9,55.9-40.3,21.9-15.7,43.7-31.4,65.6-47.1,2.1-1.4,4.2-2.9,6.6-4.6h0ZM679.5,907.8c7.2-7.5,13.6-14.3,20.1-21,18.5-19.3,37-38.5,55.4-57.8,14-14.6,27.9-29.3,41.9-44,15.2-15.9,30.4-31.9,45.8-47.7,1.1-1.1,3-1.9,4.6-2.1,20.7-1.8,41.4-3.4,62.2-5,22.2-1.8,44.5-3.5,66.7-5.3,30.7-2.5,61.3-5.2,92-7.8,8.3-.7,16.6-1.5,25-2,3.7-.2,4.1-1.7,2.8-4.6-1.8-4-3.7-7.9-5.4-11.9-10.8-25.4-21.4-50.8-32.3-76.2-7.7-18-15.9-35.9-23.6-53.9-7.5-17.6-14.7-35.3-22.1-53-6.4-15.3-12.9-30.6-19.5-45.9-9.3-21.5-18.7-42.9-27.9-64.4-10.8-25.3-21.4-50.7-32.2-76-8.1-19.1-16.4-38-24.5-57.1-1-2.4-2.2-3.3-4.8-3.4-7.3-.1-14.5-.4-21.8-.6-62.7-1.7-125.3-3.3-188-5.1-2.9-.1-5,.6-7.2,2.7-27.8,26.6-55.8,53-83.7,79.6-21.2,20.2-42.2,40.5-63.6,60.5-3.1,2.9-3.5,5.5-2.5,9,3.8,13.4,7.7,26.7,11.6,40.1,6.6,22.9,13.2,45.9,19.9,68.8,3.8,13,7.9,25.8,11.6,38.8,3.3,11.6,6.2,23.2,9.5,34.8,4.3,15.3,8.9,30.6,13.3,45.9,4.7,16.1,9.2,32.2,13.9,48.4,5.8,20,11.6,40.1,17.4,60.1,3.8,13.1,7.6,26.2,11.4,39.3,6,20.7,12,41.4,18,62,3.6,12.3,7,24.7,10.6,37,1.6,5.7,3.4,11.4,5.4,17.8Z"/>
      <path class="st0" d="M468.6,726.7c9.6-13.3,18.9-26.3,28.6-39.7,5.4,6.1,10.6,11.8,15.6,17.8.6.7.4,2.9-.2,3.8-8.2,11.5-16.4,23-24.9,34.3-.7.9-3.3,1.6-3.6,1.2-5.4-5.7-10.5-11.7-15.5-17.4h0Z"/>
      <path class="st0" d="M428.6,773c3.4,3.8,7.2,7.8,10.8,12.1,5.8,6.8,6,7.2-.9,12.9-10.1,8.3-20.5,16.1-31,23.9-3.2,2.4-4,1.9-4.8-1.8-1.5-6.6-3.1-13.3-4.4-20-.3-1.3.1-3.5,1-4.2,9.5-7.7,19.2-15.1,29.3-22.9Z"/>
      <path class="st0" d="M349.2,842.5h-20.1c-7.9-.2-15.8-.6-23.7-.7-3.9,0-4.8-1.6-3.8-5.4,1.6-5.9,2.8-11.9,3.9-18,.5-2.7,1.4-3.9,4.5-3.8,9.6.2,19.1,0,28.7,0s4.4,1.4,4.7,2.7c2.2,8,3.8,16.1,5.8,25.1h0Z"/>
      <path class="st0" d="M203.3,823.1c2.7-8.7,5-16.4,7.5-24.2.3-.8,2.1-1.7,2.9-1.5,11.2,2.5,22.3,5.1,33.4,7.9.9.2,2.3,1.6,2.1,2.2-1.7,8.2-3.6,16.4-5.5,25-13.7-3.2-26.8-6.2-40.4-9.4h0Z"/>
      <path class="st0" d="M548.7,653.7c-5.4-6.1-10.6-11.8-15.6-17.7-.7-.8-1-2.7-.5-3.5,6-9.7,12.1-19.3,18.7-29.7,1,3.3,1.8,5.8,2.5,8.3,2,6.9,4.1,13.9,5.9,20.9.4,1.3.5,3.2,0,4.2-3.4,5.8-7.1,11.5-10.9,17.5h-.1Z"/>
      <path class="st0" d="M148,806.4c-4.6-1.7-8.4-3.5-12.5-4.6-3.7-1-5.4-3.1-6.4-6.9-2.2-9-4.8-17.8-7.4-27.3,11.7,4.5,22.7,8.7,34.1,13-2.6,8.8-5.2,17.3-7.8,25.8Z"/>
      <path class="st0" d="M755.6,410.9c-.5,5.4-1.6,12-1.8,18.7,0,3.7-2,4.8-4.9,5.7-7.4,2.2-14.7,4.6-22.1,7-.6.2-1.3.5-1.9.8-5,2.5-8.8,1.3-11.5-3.5-2.5-4.5-5.2-8.9-7.5-13.5-.4-.8,0-2.9.7-3.3,14.1-8.7,29.7-13.1,45.9-16,3.1-.6,3.4-.2,3.1,4.1h0Z"/>
      <path class="st0" d="M848.8,448.3c-8.9-2.9-17.3-5.6-25.7-8.3-3.1-1-6.4-1.4-9.4-2.6-1.1-.4-2.6-2.1-2.6-3.1.4-8,1.2-16,1.9-24.5,2.1.2,4.1.1,5.8.6,12.8,4,25.6,8.3,38.5,12.3,2,.6,3,1.5,2.1,3.4-3.6,7.4-7.1,14.7-10.6,22.2Z"/>
      <path class="st0" d="M939.6,497.4c-9.6-6-18.8-11.7-27.9-17.5-2.7-1.7-5.5-3.1-8-4.9-.8-.5-1.6-2.2-1.4-2.8,3.3-7.4,6.7-14.8,10.4-22.7,6.1,3.6,11.9,6.9,17.5,10.4,6.2,3.9,12.4,7.8,18.5,12,1.1.7,2.2,3.2,1.8,4.1-3.5,7.2-7.2,14.3-10.9,21.4h0Z"/>
      <path class="st0" d="M641.5,516.1c-4.8-6.6-9.2-13-13.9-19.1-1.7-2.3,0-3.6,1-4.9,6.7-7.8,13.5-15.5,20.4-23.1,2.5-2.8,5.3-5.4,8.6-8.6,4.4,7.8,8.7,15.4,12.9,22.9-9.6,10.9-19,21.6-29,32.8Z"/>
      <path class="st0" d="M1029.3,566.1c-14.1-11.5-27.6-22.5-41.5-33.8,3.8-7.5,7.7-15.2,12.2-24,3.2,3.2,7.1,5.6,8.7,9,7.2,15.5,13.7,31.3,20.5,47v1.8h0Z"/>
      <path class="st0" d="M590.5,586.6c-2.9-9.8-6.4-19.2-8-28.9-.5-3.3,3.9-7.5,6.1-11.2,0,0,1.6.4,1.9.9,4.3,5.9,8.6,11.9,12.7,17.9.5.7.9,2.2.6,2.8-3.9,6-7.9,11.9-11.9,17.9,0,.2-.4.2-1.4.6h0Z"/>
    </g>
  </g>
  <path class="st2" d="M315.5,535.5c-2.9-4.8-5.3-8.9-7.8-13-7.7-13-15.4-26-23.2-39-13.7-22.7-27.3-45.5-41.2-68.1-12.6-20.5-25.4-40.9-38.5-61.2-12.1-18.7-25.2-36.8-36.9-55.8-11.5-18.6-19.6-38.8-23.9-60.4-3.9-19.4-4.1-39-1.1-58.4,4.1-26.2,13.8-50.4,29-72.2,16.1-23,36.5-41.3,61.3-54.6,16.2-8.7,33.4-14.5,51.5-17.9,18.1-3.4,36.3-3.5,54.3-1.2,14.3,1.8,28.3,5.6,41.8,11.1,17.1,7.1,32.9,16.3,46.9,28.3,5.8,4.9,11.1,10.4,16.1,16.1,6.3,7.2,12.4,14.5,17.8,22.3,12.5,18.2,20.5,38.4,24.8,60,3.8,18.9,4.6,37.9,2,57.1-2.6,19.4-8.9,37.6-17.4,55.1-8.2,17-19.6,31.9-30,47.5-10.1,15.2-19.8,30.6-29.5,46-10.7,16.9-21.3,33.9-31.7,50.9-13,21.7-25.8,43.3-38.8,64.9-8.3,13.9-16.6,27.7-25.5,42.5h0ZM315.6,287.4c52.3.3,95.5-42,95.3-94.1-.2-52.4-42.2-93.7-95-94.2-52.4-.5-95.5,42.3-95.8,93.9-.3,52.1,44.2,95.2,95.5,94.4h0Z"/>
</svg>