<?xml version="1.0" encoding="UTF-8"?>
<svg id="Layer_1" xmlns="http://www.w3.org/2000/svg" version="1.1" viewBox="0 0 90 90">
  <!-- Generator: Adobe Illustrator 29.5.1, SVG Export Plug-In . SVG Version: 2.1.0 Build 141)  -->
  <defs>
    <style>
      .st0, .st1, .st2, .st3, .st4, .st5, .st6 {
        fill: none;
        stroke-linecap: round;
      }

      .st0, .st3 {
        stroke: #00649d;
      }

      .st0, .st6 {
        stroke-linejoin: round;
        stroke-width: 2.2px;
      }

      .st1 {
        stroke: #000;
      }

      .st1, .st2, .st3, .st4, .st5 {
        stroke-miterlimit: 10;
        stroke-width: 2.3px;
      }

      .st7 {
        fill: #59a8c9;
      }

      .st8 {
        fill: #9ed6f4;
      }

      .st2 {
        stroke: #b3d375;
      }

      .st9 {
        fill: #00aeef;
      }

      .st10 {
        fill: #fff;
      }

      .st4 {
        stroke: #9ed6f4;
      }

      .st11 {
        fill: #82bed6;
      }

      .st5, .st6 {
        stroke: #2b5c78;
      }

      .st12 {
        display: none;
      }
    </style>
  </defs>
  <g id="Event_Registration">
    <rect class="st10" x="32.5" y="42.3" width="24.9" height="46.8"/>
    <rect class="st10" x="1.1" y="42.3" width="24.9" height="46.8"/>
    <rect class="st10" x="63.7" y="42.3" width="24.9" height="46.8"/>
    <path class="st9" d="M88.6,3.2v45.5c0,.8-.8,1.5-1.9,1.5h-21.1c-1,0-1.9-.7-1.9-1.5V2.1c0-.8,6.3-.4,7.3-.4h15.7c1,0,1.9.6,1.9,1.4Z"/>
    <g>
      <line class="st3" x1="70.8" y1="10.7" x2="82.6" y2="10.7"/>
      <g>
        <path class="st1" d="M88.6,4.8v83.9h-24.9V1.8h24.9v3Z"/>
        <line class="st3" x1="82.6" y1="58.4" x2="75.2" y2="58.4"/>
      </g>
      <rect class="st8" x="68.7" y="40" width="14.7" height="4.8"/>
    </g>
    <path class="st4" d="M69.7,58.4c0-.3-.2-.6-.5-.6s-.5.2-.5.6.2.6.5.6.5-.3.5-.6Z"/>
    <line class="st3" x1="82.6" y1="68.5" x2="75.2" y2="68.5"/>
    <path class="st4" d="M69.7,68.5c0-.3-.2-.6-.5-.6s-.5.2-.5.6.2.6.5.6.5-.3.5-.6Z"/>
    <line class="st3" x1="82.6" y1="78.2" x2="75.2" y2="78.2"/>
    <path class="st4" d="M69.7,78.2c0-.3-.2-.6-.5-.6s-.5.2-.5.6.2.6.5.6.5-.2.5-.6Z"/>
    <g>
      <path class="st0" d="M72.7,27.3c0,1.5,1.6,2.7,3.5,2.7s3.5-1.2,3.5-2.7-1.4-2.2-3.5-2.7c-1.8-.5-3.5-1.2-3.5-2.7s1.6-2.7,3.5-2.7,3.5,1.2,3.5,2.7"/>
      <line class="st0" x1="76.2" y1="17.5" x2="76.2" y2="19.1"/>
      <line class="st0" x1="76.2" y1="30" x2="76.2" y2="31.5"/>
    </g>
    <path class="st9" d="M26.1,3.2v45.5c0,.8-.8,1.5-1.9,1.5H3.1c-1,0-1.9-.7-1.9-1.5V2.2c0-.8,6.3-.4,7.3-.4h15.7c1,0,1.9.6,1.9,1.4Z"/>
    <g>
      <line class="st3" x1="8.3" y1="10.7" x2="20.2" y2="10.7"/>
      <g>
        <path class="st1" d="M26.1,4.8v83.9H1.2V1.8h24.9v3Z"/>
        <line class="st3" x1="20.2" y1="58.4" x2="12.7" y2="58.4"/>
      </g>
      <rect class="st8" x="6.2" y="40" width="14.6" height="4.8"/>
    </g>
    <path class="st4" d="M7.2,58.4c0-.3-.2-.6-.5-.6s-.5.2-.5.6.2.6.5.6c.3,0,.5-.3.5-.6Z"/>
    <line class="st3" x1="20.2" y1="68.5" x2="12.7" y2="68.5"/>
    <path class="st4" d="M7.2,68.5c0-.3-.2-.6-.5-.6s-.5.2-.5.6.2.6.5.6c.3,0,.5-.3.5-.6Z"/>
    <line class="st3" x1="20.2" y1="78.2" x2="12.7" y2="78.2"/>
    <path class="st4" d="M7.2,78.2c0-.3-.2-.6-.5-.6s-.5.2-.5.6.2.6.5.6.5-.2.5-.6Z"/>
    <g>
      <path class="st0" d="M10.2,27.3c0,1.5,1.6,2.7,3.5,2.7s3.5-1.2,3.5-2.7-1.4-2.2-3.5-2.7c-1.8-.5-3.5-1.2-3.5-2.7s1.6-2.7,3.5-2.7,3.5,1.2,3.5,2.7"/>
      <line class="st0" x1="13.7" y1="17.5" x2="13.7" y2="19.1"/>
      <line class="st0" x1="13.7" y1="30" x2="13.7" y2="31.5"/>
    </g>
    <path class="st9" d="M57.5,3.2v45.5c0,.8-.8,1.5-1.9,1.5h-21.1c-1,0-1.9-.7-1.9-1.5V2.3c0-.8,6.3-.6,7.3-.6h15.7c1,0,1.9.6,1.9,1.4Z"/>
    <g>
      <line class="st3" x1="39.7" y1="10.7" x2="51.5" y2="10.7"/>
      <g>
        <path class="st1" d="M57.5,4.8v83.9h-24.9V1.8h24.9v3Z"/>
        <line class="st3" x1="51.5" y1="58.4" x2="44" y2="58.4"/>
      </g>
      <rect class="st8" x="37.6" y="40" width="14.6" height="4.8"/>
    </g>
    <path class="st4" d="M38.5,58.4c0-.3-.2-.6-.5-.6s-.5.2-.5.6.2.6.5.6c.3,0,.5-.3.5-.6Z"/>
    <line class="st3" x1="51.5" y1="68.5" x2="44" y2="68.5"/>
    <path class="st4" d="M38.5,68.5c0-.3-.2-.6-.5-.6s-.5.2-.5.6.2.6.5.6c.3,0,.5-.3.5-.6Z"/>
    <line class="st3" x1="51.5" y1="78.2" x2="44" y2="78.2"/>
    <path class="st4" d="M38.5,78.2c0-.3-.2-.6-.5-.6s-.5.2-.5.6.2.6.5.6.5-.2.5-.6Z"/>
    <g>
      <path class="st0" d="M41.5,27.3c0,1.5,1.6,2.7,3.5,2.7s3.5-1.2,3.5-2.7-1.4-2.2-3.5-2.7c-1.8-.5-3.5-1.2-3.5-2.7s1.6-2.7,3.5-2.7,3.5,1.2,3.5,2.7"/>
      <line class="st0" x1="45" y1="17.5" x2="45" y2="19.1"/>
      <line class="st0" x1="45" y1="30" x2="45" y2="31.5"/>
    </g>
  </g>
  <g id="Layer_2" class="st12">
    <path class="st11" d="M88.6,8.2v40.5c0,.8-.8,1.5-1.9,1.5h-21.1c-1,0-1.9-.7-1.9-1.5V13.6c0-.8,6.3-6.9,7.3-6.9h15.7c1,0,1.9.6,1.9,1.4Z"/>
    <g>
      <line class="st5" x1="70.8" y1="15.7" x2="82.6" y2="15.7"/>
      <g>
        <path class="st5" d="M88.6,9.8v70.9h-24.9V15.2l7.3-8.4h17.6v3Z"/>
        <line class="st5" x1="82.6" y1="61.4" x2="75.2" y2="61.4"/>
      </g>
      <rect class="st7" x="68.7" y="42" width="14.7" height="4.8"/>
    </g>
    <path class="st2" d="M69.7,61.4c0-.3-.2-.6-.5-.6s-.5.2-.5.6.2.6.5.6.5-.3.5-.6Z"/>
    <line class="st5" x1="82.6" y1="71.5" x2="75.2" y2="71.5"/>
    <path class="st2" d="M69.7,71.5c0-.3-.2-.6-.5-.6s-.5.2-.5.6.2.6.5.6.5-.3.5-.6Z"/>
    <g>
      <path class="st6" d="M72.7,32.3c0,1.5,1.6,2.7,3.5,2.7s3.5-1.2,3.5-2.7-1.4-2.2-3.5-2.7c-1.8-.5-3.5-1.2-3.5-2.7s1.6-2.7,3.5-2.7,3.5,1.2,3.5,2.7"/>
      <line class="st6" x1="76.2" y1="22.5" x2="76.2" y2="24.1"/>
      <line class="st6" x1="76.2" y1="35" x2="76.2" y2="36.5"/>
    </g>
    <path class="st11" d="M26.1,8.2v40.5c0,.8-.8,1.5-1.9,1.5H3.1c-1,0-1.9-.7-1.9-1.5V13.6c0-.8,6.3-6.9,7.3-6.9h15.7c1,0,1.9.6,1.9,1.4Z"/>
    <g>
      <line class="st5" x1="8.3" y1="15.7" x2="20.2" y2="15.7"/>
      <g>
        <path class="st5" d="M26.1,9.8v70.9H1.2V15.2l7.3-8.4h17.6v3Z"/>
        <line class="st5" x1="20.2" y1="61.4" x2="12.7" y2="61.4"/>
      </g>
      <rect class="st7" x="6.2" y="42" width="14.6" height="4.8"/>
    </g>
    <path class="st2" d="M7.2,61.4c0-.3-.2-.6-.5-.6s-.5.2-.5.6.2.6.5.6c.3,0,.5-.3.5-.6Z"/>
    <line class="st5" x1="20.2" y1="71.5" x2="12.7" y2="71.5"/>
    <path class="st2" d="M7.2,71.5c0-.3-.2-.6-.5-.6s-.5.2-.5.6.2.6.5.6c.3,0,.5-.3.5-.6Z"/>
    <g>
      <path class="st6" d="M10.2,32.3c0,1.5,1.6,2.7,3.5,2.7s3.5-1.2,3.5-2.7-1.4-2.2-3.5-2.7c-1.8-.5-3.5-1.2-3.5-2.7s1.6-2.7,3.5-2.7,3.5,1.2,3.5,2.7"/>
      <line class="st6" x1="13.7" y1="22.5" x2="13.7" y2="24.1"/>
      <line class="st6" x1="13.7" y1="35" x2="13.7" y2="36.5"/>
    </g>
    <path class="st11" d="M59.5,3.2v47.8c0,.9-1,1.7-2.2,1.7h-24.9c-1.2,0-2.2-.8-2.2-1.7V9.7c0-.9,7.4-8.1,8.6-8.1h18.5c1.2,0,2.2.8,2.2,1.7Z"/>
    <g>
      <line class="st5" x1="38.5" y1="12.1" x2="52.5" y2="12.1"/>
      <g>
        <path class="st5" d="M59.5,5.1v83.7h-29.4V11.5L38.8,1.5h20.7v3.5Z"/>
        <line class="st5" x1="52.5" y1="66" x2="43.7" y2="66"/>
      </g>
      <rect class="st7" x="36.1" y="43.1" width="17.3" height="5.7"/>
    </g>
    <path class="st2" d="M37.2,66c0-.4-.2-.7-.5-.7s-.5.3-.5.7.2.7.5.7c.3,0,.5-.3.5-.7Z"/>
    <line class="st5" x1="52.5" y1="77.9" x2="43.7" y2="77.9"/>
    <path class="st2" d="M37.2,77.9c0-.4-.2-.7-.5-.7s-.5.3-.5.7.2.7.5.7c.3,0,.5-.3.5-.7Z"/>
    <g>
      <path class="st6" d="M40.7,31.7c0,1.8,1.8,3.2,4.1,3.2s4.2-1.5,4.2-3.2-1.7-2.6-4.1-3.2c-2.2-.6-4.1-1.5-4.1-3.2s1.8-3.2,4.1-3.2,4.1,1.4,4.1,3.2"/>
      <line class="st6" x1="44.9" y1="20.2" x2="44.9" y2="22"/>
      <line class="st6" x1="44.9" y1="34.9" x2="44.9" y2="36.7"/>
    </g>
  </g>
</svg>