<?xml version="1.0" encoding="UTF-8"?>
<svg id="Layer_1" xmlns="http://www.w3.org/2000/svg" version="1.1" viewBox="0 0 200 191.9">
  <!-- Generator: Adobe Illustrator 29.5.1, SVG Export Plug-In . SVG Version: 2.1.0 Build 141)  -->
  <defs>
    <style>
      .st0 {
        fill: none;
      }

      .st0, .st1 {
        stroke: #00649d;
      }

      .st0, .st1, .st2, .st3, .st4, .st5 {
        stroke-linecap: round;
        stroke-linejoin: round;
      }

      .st0, .st2, .st5 {
        stroke-width: 4.8px;
      }

      .st1 {
        stroke-width: 3.1px;
      }

      .st1, .st6, .st4 {
        fill: #00649d;
      }

      .st2 {
        fill: #fff;
      }

      .st2, .st3, .st4, .st5 {
        stroke: #000;
      }

      .st3 {
        fill: #9ed6f4;
        stroke-width: 3.9px;
      }

      .st4 {
        stroke-width: 4px;
      }

      .st5 {
        fill: #00aeef;
      }
    </style>
  </defs>
  <g>
    <path class="st5" d="M65.2,178.5c0,5.4,4.8,9.7,10.7,9.7h99.3c7.3,0,13.2-5.4,13.2-12V15.2c0-6.6-5.9-12-13.2-12h-96.8c-7.3,0-13.2,5.4-13.2,12v147.7s0,15.6,0,15.6Z"/>
    <path class="st6" d="M134.6,173c0-3.9-3.5-7.1-7.8-7.1s-7.8,3.2-7.8,7.1,3.5,7.1,7.8,7.1,7.8-3.2,7.8-7.1Z"/>
    <line class="st1" x1="114.6" y1="13" x2="139.1" y2="13"/>
  </g>
  <rect class="st2" x="77.6" y="22.6" width="98.5" height="134.8"/>
  <g>
    <line class="st0" x1="121" y1="141.7" x2="162.8" y2="141.7"/>
    <line class="st0" x1="129.2" y1="131" x2="162.8" y2="131"/>
  </g>
  <g>
    <line class="st0" x1="87.1" y1="92.5" x2="125.9" y2="92.5"/>
    <line class="st0" x1="87.1" y1="81.8" x2="125.9" y2="81.8"/>
  </g>
  <path class="st2" d="M11.7,188.8c0-23.6,4.5-30.2,8.7-46.5,5.4-20.7,18-48.9,39.5-59.2l5.3-2.6v46.1h0c0,5.1,6.6,8,11.3,5,14.1-9,22-18.3,27.9-25,3.6-4.1,10.4-4.8,14.9-1.5,0,0,.2,0,.3.2,5.4,4.1,4.8,8,0,14.4-4.3,5.7-10,12-13.6,16.8-3.6,4.9-6.4,10.1-8.9,15.5-8,17.1-20.7,24.5-29.6,27.6-6.2,2.2-10.2,3.4-10.2,9.2h0"/>
  <path class="st1" d="M93.7,37.3c0-1-.9-1.8-1.9-1.8s-1.9.8-1.9,1.8.9,1.8,1.9,1.8,1.9-.8,1.9-1.8Z"/>
  <ellipse class="st1" cx="104.7" cy="37.3" rx="1.9" ry="1.8"/>
  <g id="Event_Registration">
    <g>
      <rect class="st3" x="86.9" y="47.5" width="78.7" height="24.3"/>
      <rect class="st4" x="135.5" y="79.8" width="28.9" height="41"/>
    </g>
  </g>
</svg>