<?xml version="1.0" encoding="UTF-8"?>
<svg id="Layer_1" xmlns="http://www.w3.org/2000/svg" version="1.1" viewBox="0 0 200 191.9">
  <!-- Generator: Adobe Illustrator 29.5.1, SVG Export Plug-In . SVG Version: 2.1.0 Build 141)  -->
  <defs>
    <style>
      .st0, .st1, .st2, .st3, .st4, .st5, .st6, .st7 {
        stroke-linecap: round;
        stroke-linejoin: round;
      }

      .st0, .st1, .st3, .st4, .st5, .st6, .st7, .st8 {
        stroke: #000;
      }

      .st0, .st2, .st8 {
        fill: none;
      }

      .st0, .st3, .st7 {
        stroke-width: 5px;
      }

      .st1 {
        fill: #b4d475;
      }

      .st1, .st2, .st4, .st5, .st6 {
        stroke-width: 3.6px;
      }

      .st9, .st5 {
        fill: #9ed6f4;
      }

      .st2 {
        stroke: #00649d;
      }

      .st10, .st6 {
        fill: #00649d;
      }

      .st3, .st4 {
        fill: #fff;
      }

      .st11, .st7 {
        fill: #00aeef;
      }

      .st8 {
        stroke-miterlimit: 10;
        stroke-width: 3.3px;
      }
    </style>
  </defs>
  <path class="st3" d="M112.9,162.6h24s-.6,6.1.6,12.1c.9,4.6,4.3,8.7,9.3,11.3h0c1.4.7.8,2.4-.9,2.4h-66c-1.7,0-2.3-1.7-.9-2.4h0c5-2.6,8.4-6.7,9.3-11.3,1.2-6,.6-12.1.6-12.1h24Z"/>
  <path class="st11" d="M112.9,172.1h24s-.6-3.4.6,2.6c.9,4.6,4.3,8.7,9.3,11.3h0c1.4.7.8,2.4-.9,2.4h-66c-1.7,0-2.3-1.7-.9-2.4h0c5-2.6,8.4-6.7,9.3-11.3,1.2-6,.6-2.6.6-2.6h24Z"/>
  <g>
    <path class="st0" d="M112.9,162.6h24s-.6,6.1.6,12.1c.9,4.6,4.3,8.7,9.3,11.3h0c1.4.7.8,2.4-.9,2.4h-66c-1.7,0-2.3-1.7-.9-2.4h0c5-2.6,8.4-6.7,9.3-11.3,1.2-6,.6-12.1.6-12.1h24Z"/>
    <path class="st7" d="M184,162.6H40.4c-7.2,0-13.1-5.9-13.1-13.1V16.7c0-7.2,5.9-13.1,13.1-13.1h143.6c7.2,0,13.1,5.9,13.1,13.1v132.8c0,7.3-5.9,13.1-13.1,13.1Z"/>
    <path class="st2" d="M114.3,147.3c0,.7-.6,1.3-1.3,1.3s-1.3-.6-1.3-1.3.6-1.3,1.3-1.3,1.3.5,1.3,1.3Z"/>
    <rect class="st3" x="40.5" y="20" width="144.3" height="111.6"/>
  </g>
  <g>
    <rect class="st8" x="93.7" y="33.2" width="79.5" height="59.6"/>
    <path class="st9" d="M117.1,40h-16.6v16.6c8-2.3,14.3-8.6,16.6-16.6Z"/>
    <path class="st8" d="M173.2,69.9c-5.1-7-17.6-25.6-17.6-25.6l-18.9,25.7-10.8-15.7c-2.9,4.2-5.9,7.5-9,10-6.5,5.4-14.7,8.2-23.2,8.2h0"/>
    <path class="st10" d="M142.1,74.1h0c-2.8,3.8-8.4,3.7-11.1-.2h0l-5.6-8.2c-1.3,1.4-2.7,2.7-4.2,3.9-5.9,4.9-13.1,8.1-20.8,9.2v7.3h65.9v-14c-3.1-4.3-7.5-10.9-11-16l-13.2,18Z"/>
  </g>
  <g>
    <path class="st5" d="M21.1,17.8c-2.7-3.2-7.5-3.7-10.7-1l-5.7,4.7c-3.2,2.7-3.7,7.5-1,10.7l8.2,9.8,17-14.8-7.8-9.4Z"/>
    <path class="st4" d="M71.1,95.4c3.1-2.6,6.8-4.3,10.5-5L29,27.3l-17,14.8,52.3,62.7c1.4-3.6,3.7-6.8,6.8-9.4Z"/>
    <polygon class="st4" points="64.6 104.9 64.3 104.8 64.5 105 64.6 104.9"/>
    <path class="st1" d="M64.3,104.8h0Z"/>
    <path class="st6" d="M81.6,90.3c-3.7.8-7.4,2.4-10.5,5s-5.4,5.9-6.8,9.4h.3c0,0,21,8.9,21,8.9l-4-23.3Z"/>
  </g>
</svg>