<?xml version="1.0" encoding="UTF-8"?>
<svg id="Layer_1" xmlns="http://www.w3.org/2000/svg" version="1.1" viewBox="0 0 200 200.8">
  <!-- Generator: Adobe Illustrator 29.5.1, SVG Export Plug-In . SVG Version: 2.1.0 Build 141)  -->
  <defs>
    <style>
      .st0 {
        fill: none;
      }

      .st0, .st1, .st2, .st3, .st4 {
        stroke: #000;
        stroke-linecap: round;
        stroke-linejoin: round;
      }

      .st0, .st3, .st4 {
        stroke-width: 5.2px;
      }

      .st5 {
        fill: #fff;
      }

      .st1 {
        stroke-width: 5.2px;
      }

      .st1, .st2 {
        fill: #9ed6f4;
      }

      .st2 {
        stroke-width: 5.2px;
      }

      .st3 {
        fill: #00649d;
      }

      .st4 {
        fill: #00aeef;
      }
    </style>
  </defs>
  <path class="st5" d="M55.1,112.7v-46.2s-.4-14,9.9-14.5l-39.7-1.6s-10.1-.5-10.1,10.1-.2,52.2-.2,52.2h40.1Z"/>
  <path class="st5" d="M144.9,112.7v-46.2s.4-14-9.9-14.5l39.7-1.6s10.1-.5,10.1,10.1.2,52.2.2,52.2h-40.1Z"/>
  <g>
    <g>
      <path class="st3" d="M61.7,120v-50.9c0-7.2,5.9-13.1,13.1-13.1h50.4c7.2,0,13.1,5.9,13.1,13.1v50.9"/>
      <line class="st0" x1="121.4" y1="84.6" x2="121.4" y2="120"/>
      <line class="st0" x1="78" y1="84.6" x2="78" y2="120"/>
      <circle class="st1" cx="100" cy="23.5" r="20.1"/>
      <line class="st0" x1="100" y1="56" x2="100" y2="79.4"/>
    </g>
    <g>
      <line class="st0" x1="171.7" y1="72.4" x2="171.7" y2="110.7"/>
      <circle class="st2" cx="155.2" cy="25.2" r="15.5"/>
      <path class="st0" d="M136.3,50.3h38.4c5.6,0,10.1,4.5,10.1,10.1v50.3"/>
      <line class="st0" x1="155.2" y1="50.3" x2="155.2" y2="68.4"/>
    </g>
    <g>
      <line class="st0" x1="27.8" y1="72.4" x2="27.8" y2="110.7"/>
      <circle class="st1" cx="44.8" cy="25.2" r="15.5"/>
      <path class="st0" d="M15.2,110.7v-50.2c0-5.6,4.5-10.1,10.1-10.1h37.9"/>
      <line class="st0" x1="44.8" y1="50.3" x2="44.8" y2="68.4"/>
    </g>
    <path class="st4" d="M180.6,120H19.4c-9,0-16.3,7.3-16.3,16.3v60.1h26.4c3.9,0,7.1-3.2,7.1-7.1v-.5c0-10.2,8.3-18.5,18.5-18.5h89.9c10.2,0,18.5,8.3,18.5,18.5v.5c0,3.9,3.2,7.1,7.1,7.1h26.4v-60.1c-.1-9-7.4-16.3-16.4-16.3Z"/>
    <path class="st5" d="M187.9,136.3c0-4.1-3.3-7.4-7.4-7.4H19.4c-4.1,0-7.4,3.3-7.4,7.4v10.2h175.8v-10.2h0Z"/>
  </g>
</svg>