<?xml version="1.0" encoding="UTF-8"?>
<svg id="Event_Registration" xmlns="http://www.w3.org/2000/svg" version="1.1" viewBox="0 0 1162.5 1162.5">
  <!-- Generator: Adobe Illustrator 29.5.1, SVG Export Plug-In . SVG Version: 2.1.0 Build 141)  -->
  <defs>
    <style>
      .st0 {
        fill: #b4d475;
      }

      .st0, .st1, .st2, .st3, .st4, .st5 {
        stroke: #000;
        stroke-linecap: round;
        stroke-linejoin: round;
      }

      .st0, .st2, .st3, .st4 {
        stroke-width: 28.1px;
      }

      .st1 {
        fill: none;
        stroke-width: 30.3px;
      }

      .st2, .st6 {
        fill: #fff;
      }

      .st3 {
        fill: #9ed6f4;
      }

      .st4 {
        fill: #00649d;
      }

      .st5 {
        fill: #00aeef;
        stroke-width: 28.9px;
      }
    </style>
  </defs>
  <g>
    <path class="st5" d="M221.5,966l-198.7,178.5V371.1c0-105.2,92.3-190.6,206-190.6h703.3c113.7,0,206,85.4,206,190.6v404.4c0,105.2-92.3,190.6-206,190.6H221.5Z"/>
    <line class="st1" x1="171.4" y1="360" x2="733.1" y2="360"/>
    <line class="st1" x1="171.4" y1="661.3" x2="570.5" y2="661.3"/>
    <line class="st1" x1="171.4" y1="511.9" x2="645.3" y2="511.9"/>
  </g>
  <path class="st6" d="M222.2,813.4c0-17.8-14.2-32-32-32s-32,14.2-32,32,14.2,32,32,32,32-14.2,32-32Z"/>
  <path class="st6" d="M374.9,813.4c0-17.8-14.2-32-32-32s-32,14.2-32,32,14.2,32,32,32,32-14.2,32-32Z"/>
  <circle class="st6" cx="489.5" cy="813.1" r="32" transform="translate(-436.6 1020.7) rotate(-71.6)"/>
  <g>
    <path class="st3" d="M1133.2,134.3c15.7-27.5,6.4-62.7-21.2-78.5l-48.4-28c-27.6-15.9-62.6-6.4-78.4,21.2l-48.4,84.2,149.9,82.1,46.5-81h0Z"/>
    <path class="st2" d="M712.8,693c26.9,15.4,48.3,36.8,63.3,61.5l310.4-539.2-149.9-82.1-308.6,535.9c29,.8,58.1,8.4,84.8,23.9Z"/>
    <polygon class="st2" points="627.8 671.6 628 669.2 626.9 671.1 627.8 671.6"/>
    <path class="st0" d="M628,669.1v.2-.2Z"/>
    <path class="st4" d="M776.2,754.4c-15.2-24.6-36.5-46-63.3-61.5s-56-23.2-84.8-23.9h0v2.6l-7.9,172.4,156-89.6Z"/>
  </g>
  <line class="st1" x1="992.5" y1="511.9" x2="966.6" y2="511.9"/>
  <line class="st1" x1="992.5" y1="661.3" x2="892.7" y2="661.3"/>
</svg>