<?xml version="1.0" encoding="UTF-8"?>
<svg id="Event_Registration" xmlns="http://www.w3.org/2000/svg" version="1.1" viewBox="0 0 90 90">
  <!-- Generator: Adobe Illustrator 29.5.1, SVG Export Plug-In . SVG Version: 2.1.0 Build 141)  -->
  <defs>
    <style>
      .st0, .st1 {
        fill: #9ed6f4;
      }

      .st2, .st3, .st1, .st4, .st5, .st6, .st7, .st8 {
        stroke: #000;
        stroke-linecap: round;
        stroke-linejoin: round;
      }

      .st2, .st3, .st9 {
        fill: #fff;
      }

      .st2, .st7 {
        stroke-width: 2.3px;
      }

      .st3, .st1, .st4, .st5, .st8 {
        stroke-width: 2.3px;
      }

      .st4, .st6 {
        fill: none;
      }

      .st5 {
        fill: #00649d;
      }

      .st6 {
        stroke-width: 1.5px;
      }

      .st7, .st8 {
        fill: #00aeef;
      }
    </style>
  </defs>
  <path class="st7" d="M87,9.8c0-2.7-2.2-4.9-4.9-4.9H7.9c-2.7,0-4.9,2.2-4.9,4.9v14.5h84c0,.1,0-14.5,0-14.5Z"/>
  <g>
    <path class="st2" d="M87,64.9V24.4H3v48.4c0,2.7,2.2,4.9,4.9,4.9h47.6l26-.4c3.1,0,5.5-2.5,5.5-5.6v-6.8Z"/>
    <path class="st6" d="M13,14.6c0-.5-.4-.8-.8-.8s-.8.4-.8.8.4.8.8.8c.4,0,.8-.4.8-.8Z"/>
    <path class="st6" d="M22.5,14.6c0-.5-.4-.8-.8-.8s-.8.4-.8.8.4.8.8.8.8-.4.8-.8Z"/>
    <circle class="st6" cx="31.2" cy="14.6" r=".8"/>
    <path class="st9" d="M78.4,16.8h-35.4c-1.2,0-2.1-.9-2.1-2.1s1-2.1,2.1-2.1h35.4c1.2,0,2.1.9,2.1,2.1s-.9,2.1-2.1,2.1Z"/>
    <rect class="st1" x="8.7" y="30" width="72.9" height="15.3"/>
    <rect class="st5" x="62.3" y="51.7" width="19.3" height="19.7"/>
    <line class="st4" x1="55.6" y1="51.7" x2="44.5" y2="51.7"/>
    <line class="st4" x1="55.6" y1="61.6" x2="44.5" y2="61.6"/>
    <line class="st4" x1="55.6" y1="71.4" x2="44.5" y2="71.4"/>
  </g>
  <g>
    <path class="st8" d="M15.9,66.3l-11.1,15.9c-.5.7-.7,1.7-.6,2.6h0c.3,1.9,2.1,3.1,4,2.8h0c.9-.2,1.7-.7,2.2-1.4l11.1-15.9"/>
    <path class="st3" d="M24.4,53.5c-.7-1.8-.6-4.2,0-6s2.3-3.2,3.9-4.2c1.4-.8,2.9-1.3,4.5-1.7,1.9-.5,3.9-1.1,5.8-1.6.2,2,.3,4,.5,6,0,1.6.2,3.2,0,4.8-.4,1.9-1.1,3.9-2.6,5.2-1.5,1.2-3.7,2.1-5.7,2.1"/>
    <path class="st0" d="M34.6,52.4c.3-.5.6-1.2.8-2.5.2-1.1,0-2.4,0-3.8v-1.6c0,0-1.7.4-1.7.4-1.3.4-2.6.7-3.5,1.3-1.1.7-1.7,1.2-2,1.6,2.8.3,5.2,2,6.4,4.6Z"/>
    <path class="st5" d="M30.7,57.9l-3.2-2.2-3.2-2.2c-5.1,2.8-8.3,8-9.6,10.4-.4.7-.2,1.6.5,2l3.5,2.4,3.5,2.4c.7.5,1.6.4,2.1-.2,1.7-2.1,5.5-6.8,6.4-12.6Z"/>
  </g>
</svg>