<?xml version="1.0" encoding="UTF-8"?>
<svg id="Layer_1" xmlns="http://www.w3.org/2000/svg" version="1.1" viewBox="0 0 1162.5 1162.5">
  <!-- Generator: Adobe Illustrator 29.5.1, SVG Export Plug-In . SVG Version: 2.1.0 Build 141)  -->
  <defs>
    <style>
      .st0 {
        fill: #00649d;
      }

      .st0, .st1 {
        fill-rule: evenodd;
        stroke: #000;
        stroke-linecap: round;
        stroke-linejoin: round;
        stroke-width: 30.3px;
      }

      .st1 {
        fill: #00aeef;
      }
    </style>
  </defs>
  <g id="Event_Registration">
    <path class="st0" d="M894.9,379.8c-18.4,0-33.5,15.1-33.5,33.5v217.4c0,63.2-26.1,120.9-67.8,162.5-41.6,41.8-99.3,67.7-162.5,67.7h-99.5c-63.4,0-120.9-25.9-162.7-67.7-41.8-41.6-67.7-99.3-67.7-162.5v-217.4c0-18.4-15.1-33.5-33.7-33.5s-33.5,15.1-33.5,33.5v217.4c0,81.8,33.4,156.2,87.4,210.2,53.9,53.9,128.2,87.4,210.2,87.4h8.6v155.2c-107,2.9-203.1,17-203.1,42.5v15.7c0,2.1,2.9,3.8,6.4,3.8h475.7c3.3,0,6.2-1.7,6.2-3.8v-15.7c0-25.4-96.1-39.6-203-42.5v-155.2h8.6c81.8,0,156.2-33.5,210.2-87.4,53.9-54,87.4-128.4,87.4-210.2v-217.4c0-18.4-15.1-33.5-33.7-33.5h0Z"/>
    <path class="st1" d="M534.5,17.5h93.3c89.3,0,162.2,72.9,162.2,162.2v67.4h-74.5c-12.6,0-22.9,10.2-22.9,22.7s10.3,22.7,22.9,22.7h74.5v43.7h-74.5c-12.6,0-22.9,10.2-22.9,22.7s10.3,22.9,22.9,22.9h74.5v43.5h-74.5c-12.6,0-22.9,10.3-22.9,22.9s10.3,22.7,22.9,22.7h74.5v43.7h-74.5c-12.6,0-22.9,10.2-22.9,22.7s10.3,22.7,22.9,22.7h74.5v67.4c0,89.1-72.9,162.2-162.2,162.2h-93.3c-89.1,0-162.1-73.1-162.1-162.2v-67.4h74.5c12.4,0,22.7-10.2,22.7-22.7s-10.3-22.7-22.7-22.7h-74.5v-43.7h74.5c12.4,0,22.7-10.3,22.7-22.7s-10.3-22.9-22.7-22.9h-74.5v-43.5h74.5c12.4,0,22.7-10.3,22.7-22.9s-10.3-22.7-22.7-22.7h-74.5v-43.7h74.5c12.4,0,22.7-10.2,22.7-22.7s-10.3-22.7-22.7-22.7h-74.5v-67.4c0-89.3,72.9-162.2,162.1-162.2h0Z"/>
  </g>
</svg>