<?xml version="1.0" encoding="UTF-8"?>
<svg id="Layer_1" xmlns="http://www.w3.org/2000/svg" version="1.1" viewBox="0 0 1162.5 1162.5">
  <!-- Generator: Adobe Illustrator 29.5.1, SVG Export Plug-In . SVG Version: 2.1.0 Build 141)  -->
  <defs>
    <style>
      .st0 {
        fill: #9ed6f4;
      }

      .st1 {
        stroke-width: 25px;
      }

      .st1, .st2 {
        fill: none;
      }

      .st1, .st2, .st3 {
        stroke-linecap: round;
      }

      .st1, .st3 {
        stroke: #000;
        stroke-linejoin: round;
      }

      .st4 {
        fill: #00649d;
      }

      .st5 {
        fill: #fff;
      }

      .st2 {
        stroke: #fff;
        stroke-miterlimit: 10;
        stroke-width: 19.2px;
      }

      .st3 {
        fill: #00aeef;
        stroke-width: 30px;
      }
    </style>
  </defs>
  <g id="Layer_2">
    <path class="st4" d="M434.8,1157.8l29.4-201.8s30.3-65.7,58.7-75.3c28.4-9.7,148.1-43.4,148.1-43.4l104.7,149,107.3-147.7,127.7,35.7s65.1,12.8,79.2,95.8c14,83,25.5,181.3,25.5,181.3l-680.6,6.4h0Z"/>
    <path class="st0" d="M665.9,764.5s-93.2,47.2-177.5-44.7c63.8-6.4,93.2-60,98.3-114.9s14-214.5,186.4-214.5,181.3,140.4,191.5,213.2,35.7,106,90.6,116.1c-11.5,40.9-108.6,79.2-171,40.9,17.9-19.2,27.7-45.1,28.1-58.7.4-13.6-8.9-106-8.9-106,0,0-60,3.8-83-20.4-22.9-24.3-43.4-74-85.5-67.7-42.1,6.4-76.6,39.5-88.1,104.7-11.5,65.3-11.5,108.7,19.1,152h0Z"/>
  </g>
  <g id="Event_Registration">
    <g>
      <path class="st1" d="M902.3,598.3c5.6,30.4,10.6,65.3,10.4,90-1.4,28.5-8.8,50.4-28.1,72.4-12.8,14.5-18.1,33.5-15.8,52.1l1.1,8.6c.9,6.6,4.8,12.6,10.8,16.3,2.1,1.3,4.4,2.3,6.9,3l113.5,30.4c14.3,2.9,29.2,10.1,44,21.3,23.1,17.7,39,42.2,44.8,69.3l26.5,185.8"/>
      <path class="st1" d="M776.1,391.7c66.2,0,135.6,34,163.4,91.3,12.2,25.1,17.2,52.8,20.6,80.2,4.9,38.7,7,75.4,27.1,110.3,14.6,25.4,37.1,43.3,72.6,47.2,0,0-43.4,68.6-137.6,53.7"/>
      <path class="st1" d="M776.1,391.7c-66.2,0-135.6,34-163.4,91.3-12.2,25.1-17.2,52.8-20.6,80.2-4.9,38.7-7,75.4-27.1,110.3-14.6,25.4-37.1,43.3-72.6,47.2,0,0,43.4,68.6,137.6,53.7"/>
      <polyline class="st1" points="671.7 837.7 776.1 991.3 880.6 837.7"/>
      <path class="st1" d="M436,1147.4l26.5-185.8c5.9-27.1,21.8-51.6,44.8-69.3,14.8-11.2,29.7-18.4,44-21.3l113.5-30.4c2.5-.7,4.8-1.6,6.9-3,6-3.7,9.9-9.7,10.8-16.3l1.1-8.6c2.3-18.6-3.1-37.5-15.8-52.1-19.3-21.9-26.7-43.9-28.1-72.4-.3-29.4,6.9-72.9,13.4-106.4,6-30.4,27.9-56.1,58.6-68.5h0c24.8-10.1,54-4.2,71.2,15.2l.4.4c12,13.7,20.9,29.7,34.2,42.3,21.6,20.5,54.4,30.5,85,25.8"/>
      <path class="st2" d="M754,458.7c25.7.2,51.1,11.9,66.7,30.8,12.3,14.9,18.7,33.7,33.3,46.7,14.8,13.2,37.1,18.4,56.9,13.5"/>
    </g>
  </g>
  <path class="st3" d="M469.3,545.1c0-41.9-3.4-169.6-3.4-211.6,8.5-.5,578.1-.8,585.6-1.5,18.6-1.8,35.5-7.4,50.3-16.8,21.7-13.8,34.9-31.9,40.2-53.9.9-3.9,1.3-8,1.3-12,0-49.3.6-98.6-.2-147.9-.4-22.8-11.8-42.7-32.2-58-20.5-15.3-45.2-23.2-73.5-23.2-117.5.2-797.1,0-914.5.2-16.9,0-32.9,3.6-47.9,10.6-10.5,4.9-20,10.8-27.8,18-12.9,12-21.4,26-24.1,42-1,5.5-1.2,11.2-1.3,16.8-.1,47,0,94.1-.1,141.1,0,15.2,5.2,29.2,14.8,42,15.3,20.4,37.3,33.7,65.7,39.5,7.3,1.5,15,2.3,22.5,2.4,53.4.2,106.8.2,160.3,0,4.9,0,8.4,1.3,12,4,21.4,15.9,139.8,185.9,158,199.2,4.3,3.1,8.5,6.4,12.7,9.6.6-.2,1.1-.4,1.6-.5h0Z"/>
  <polygon class="st5" points="581.5 214.4 531.1 249.2 548.6 190.5 499.9 153.3 561.2 151.9 581.5 94.1 601.8 151.9 663.1 153.3 614.4 190.5 631.9 249.2 581.5 214.4"/>
  <polygon class="st5" points="778.1 214.4 727.7 249.2 745.2 190.5 696.5 153.3 757.8 151.9 778.1 94.1 798.4 151.9 859.6 153.3 811 190.5 828.5 249.2 778.1 214.4"/>
  <polygon class="st5" points="184.1 214.4 133.7 249.2 151.3 190.5 102.6 153.3 163.8 151.9 184.1 94.1 204.5 151.9 265.7 153.3 217 190.5 234.6 249.2 184.1 214.4"/>
  <polygon class="st5" points="380.7 214.4 330.3 249.2 347.8 190.5 299.2 153.3 360.4 151.9 380.7 94.1 401.1 151.9 462.3 153.3 413.6 190.5 431.1 249.2 380.7 214.4"/>
  <polygon class="st5" points="976.8 214.4 926.3 249.2 943.9 190.5 895.2 153.3 956.4 151.9 976.8 94.1 997.1 151.9 1058.3 153.3 1009.6 190.5 1027.2 249.2 976.8 214.4"/>
</svg>