<?xml version="1.0" encoding="UTF-8"?>
<svg id="Layer_1" xmlns="http://www.w3.org/2000/svg" version="1.1" viewBox="0 0 1162.5 1162.5">
  <!-- Generator: Adobe Illustrator 29.5.1, SVG Export Plug-In . SVG Version: 2.1.0 Build 141)  -->
  <defs>
    <style>
      .st0 {
        fill: #9ed6f4;
      }

      .st1, .st2, .st3 {
        stroke: #000;
      }

      .st1, .st2, .st3, .st4 {
        stroke-linecap: round;
        stroke-width: 30px;
      }

      .st1, .st2, .st4 {
        fill: none;
      }

      .st1, .st3 {
        stroke-linejoin: round;
      }

      .st5 {
        fill: #00649d;
      }

      .st6 {
        fill: #fff;
      }

      .st7 {
        fill: #82bed6;
      }

      .st2, .st4 {
        stroke-miterlimit: 10;
      }

      .st3 {
        fill: #00aeef;
      }

      .st4 {
        stroke: #00649d;
      }
    </style>
  </defs>
  <g id="Layer_2">
    <path class="st0" d="M679.5,979.8s16.7-119.6,67.7-159.2c51-39.6,118.7-58.9,135.4-88.8,16.7-30,33.3-105.7,33.3-105.7,0,0-18.9-40.8,27.9-74.8,0,0-19-40.2,29.3-81.5,5.3-21.9,10.6-38.7,34.3-51.9,8.8,20.2,15.9,52.8,15.9,52.8,0,0-13.2,9.7,1.8,2.6,19.3,36,51.9,146.8,54.5,174.9s-32.6,112.6-32.6,112.6c0,0,39.6-30.8,57.1-12.3-31.6,41.3-94.9,143.3-110.8,156.5s-33.4,30.8-115.2,46.6c-37.8,7.1-58.9,68.6-58.9,68.6l-139.7-40.4Z"/>
    <path class="st5" d="M675.1,1030.8c51.9,23.7,132.7,113.4,132.7,113.4l35.2-106.4-164.4-59.7c0-.1-4.4,29.8-3.5,52.7Z"/>
    <path class="st7" d="M1116.4,966.5"/>
  </g>
  <g id="Event_Registration">
    <g>
      <g>
        <path class="st1" d="M674.7,968.7l17.4-61.6c15.7-55.5,54.9-101.5,107.2-125.8l43.3-20.1c25.6-11.8,44.7-34.3,52.3-61.3l20.9-73.8-1.7-12.4c-3.3-24.9,8.3-49.3,29.5-62.4l1.1-.6"/>
        <path class="st1" d="M887.6,846c3.1.4,6.1.8,9.1,1.1,49.8,4.4,98.2-18.3,128.9-57.6,63.3-81,111.4-30.4,111.4-30.4,0,0-52.2,62.6-87.8,124.3-25.4,44.1-66.4,77.6-115.8,89.9-3.1.8-6.2,1.5-9.3,2.1-32.3,6.6-59.3,27.8-74.3,56.1"/>
        <path class="st1" d="M1089.8,743.9l21.5-98.4-63.2-194.1s-36.3,9.1-26.9,64.5l28.7,126.3-19.6,79.8"/>
        <path class="st1" d="M1025.2,471.8l-17-52.4s-47,17.3-31.1,79.8l26.3,137.1-21,74.2"/>
      </g>
      <polyline class="st1" points="696.3 1097.8 844.2 1143.4 884 1044.1 674.7 968.7 674.7 1019.2"/>
      <line class="st1" x1="866.8" y1="1087" x2="674.7" y2="1019.2"/>
    </g>
    <path class="st1" d="M973.9,471.7l-2.4,1.8c-22.1,16.2-33,43.6-27.9,70.6l15.2,81.3-21.7,75.4"/>
    <path class="st0" d="M478.9,979.8s-16.7-119.6-67.7-159.2c-51-39.6-118.7-58.9-135.4-88.8-16.7-30-33.3-105.7-33.3-105.7,0,0,18.9-40.8-27.9-74.8,0,0,19-40.2-29.3-81.5-5.3-21.9-10.6-38.7-34.3-51.9-8.8,20.2-15.9,52.8-15.9,52.8,0,0,13.2,9.7-1.8,2.6-19.3,36-51.9,146.8-54.5,174.9s32.5,112.5,32.5,112.5c0,0-39.4-30.7-56.9-12.3,31.6,41.3,94.9,143.3,110.8,156.5s33.4,30.8,115.2,46.6c37.8,7.1,58.9,68.6,58.9,68.6l139.6-40.3Z"/>
    <path class="st5" d="M483.4,1030.8c-51.9,23.7-132.7,113.4-132.7,113.4l-35.3-106.4,164.4-59.7c0-.1,4.4,29.8,3.6,52.7Z"/>
    <path class="st7" d="M42,966.5"/>
    <g>
      <g>
        <path class="st1" d="M483.7,968.7l-17.4-61.6c-15.7-55.5-54.9-101.5-107.2-125.8l-43.3-20.1c-25.6-11.8-44.7-34.3-52.3-61.3l-20.9-73.8,1.7-12.4c3.3-24.9-8.3-49.3-29.5-62.4l-1.1-.6"/>
        <path class="st1" d="M270.9,846c-3.1.4-6.1.8-9.1,1.1-49.8,4.4-98.2-18.3-128.9-57.6-63.3-81.1-111.5-30.5-111.5-30.5,0,0,52.2,62.6,87.8,124.3,25.4,44.1,66.4,77.6,115.8,89.9,3.1.8,6.2,1.5,9.3,2.1,32.3,6.6,59.3,27.8,74.3,56.1"/>
        <path class="st1" d="M68.6,743.9l-21.6-98.4,63.3-194.1s36.3,9.1,26.9,64.5l-28.7,126.3,19.5,79.8"/>
        <path class="st1" d="M133.1,471.8l17-52.4s47,17.3,31.1,79.8l-26.2,137.1,21,74.2"/>
      </g>
      <polyline class="st1" points="462.1 1097.8 314.2 1143.4 274.5 1044.1 483.7 968.7 483.7 1019.2"/>
      <line class="st1" x1="291.7" y1="1087" x2="483.7" y2="1019.2"/>
    </g>
    <path class="st1" d="M184.4,471.7l2.4,1.8c22.1,16.2,33,43.6,27.9,70.6l-15.2,81.3,21.7,75.5"/>
  </g>
  <path class="st3" d="M818.1,670.7V240.2c-52.7-44-237.2-203.6-237.2-203.6,0,0-183,164-238.7,210.9v423.2h475.9Z"/>
  <g>
    <polyline class="st2" points="873.7 290 580.9 27.8 288 290"/>
    <polyline class="st2" points="342.2 322.2 342.2 670.7 818.1 670.7 818.1 322.2"/>
    <path class="st4" d="M692.2,228.5c-52.7-46.9-111.3-101-111.3-101l-112.8,101"/>
    <path class="st6" d="M752.2,529.6v-105.5c0-8.8-10.3-16.1-17.6-11.7-48.3,23.4-93.7,35.1-152.3,35.1s-104-13.2-152.3-35.1c-8.8-4.4-17.6,2.9-17.6,11.7v105.4c0,7.3,5.9,13.2,13.2,13.2h316.3c4.4-1.4,10.3-7.3,10.3-13.1Z"/>
  </g>
  <line class="st4" x1="416.8" y1="603.3" x2="740.5" y2="603.3"/>
</svg>