<?xml version="1.0" encoding="UTF-8"?>
<svg id="Layer_1" xmlns="http://www.w3.org/2000/svg" version="1.1" viewBox="0 0 1162.5 1162.5">
  <!-- Generator: Adobe Illustrator 29.5.1, SVG Export Plug-In . SVG Version: 2.1.0 Build 141)  -->
  <defs>
    <style>
      .st0 {
        fill: #00649d;
      }

      .st1, .st2 {
        fill: #00aeef;
      }

      .st3 {
        fill: #fff;
      }

      .st2 {
        stroke: #000;
        stroke-linecap: round;
        stroke-linejoin: round;
        stroke-width: 30.3px;
      }
    </style>
  </defs>
  <g id="u6rp3z">
    <g>
      <path class="st2" d="M218.1,958.1v-268.8c-14.7-1.2-27.9-1.7-40.9-3.3-32.4-3.8-61.5-15.7-87.4-36-37.7-29.5-60.6-68.2-69.7-115.2-1.6-8.4-2.2-17.1-2.2-25.6-.1-105.3-1-210.7.3-316,.6-48.6,20.4-91.2,55.9-123.8,35.6-32.7,78.4-49.6,127.6-49.5,204,.4,407.9,0,611.9.3,29.4.1,57.1,7.9,83.1,22.8,18.1,10.5,34.6,23,48.2,38.5,22.5,25.5,37.1,55.6,41.9,89.8,1.7,11.8,2.2,23.9,2.2,35.8.2,100.5,0,201,0,301.5s-9,62.4-25.6,89.8c-26.5,43.7-64.8,72.1-114.1,84.3-12.7,3.1-26,5-39,5.1-92.7.4-185.5.3-278.2,0-8.5,0-14.5,2.8-20.8,8.5-37.2,34-74.8,67.5-112.3,101.3-20.5,18.5-40.9,37.1-61.3,55.6-31.6,28.5-63.3,57-94.9,85.5-7.5,6.7-14.8,13.6-22.1,20.4-.9-.4-1.8-.7-2.7-1.1h0ZM838.6,448.5c5.5-9.9,11.1-18.1,14.7-27.1,12.2-30.4,14.9-61.8,10.6-94.4-5.5-42.3-26.4-74.1-63.2-94.1-24.7-13.4-51.8-15.5-79.8-11.2-39.9,6.1-69.7,26.9-86,63.2-21.3,47.4-21,96.4,0,144.2,10.8,24.6,29.3,43.2,53.8,53.4,37.8,15.7,76,16.5,113.4-3.3,2.7-1.4,8.4-.1,11,2,7.1,5.9,13,13.3,20.1,19.2,2,1.7,8,1.7,9.7,0,8.1-8.1,15.4-17.1,23.4-26.2-9.8-9.1-19.2-17.8-27.8-25.7h0ZM509.2,228.1c-18.7,0-37.2-.3-55.6.3-2.9.1-7.4,3.3-8.4,6.1-22.2,62-44,124-65.9,186.1-7.7,21.8-15.3,43.7-23.2,66.2h56.9c5.1-15.4,10.5-30.7,15.1-46.1,1.7-5.6,4.1-7.6,9.8-7.5,26,.3,52,.3,78,0,5.8-.1,8.2,1.9,9.8,7.6,4.3,15.5,9.6,30.7,14.3,45.5h59.3c-30-86.4-59.9-171.8-90.1-258.2h0ZM158.3,228.5v258h54.9v-106.7c2.5-.2,3.8-.4,5.2-.4,32.5,0,65-.2,97.5.1,6.8.1,10.1-1.5,9.7-9.1-.5-9.9-.4-19.9,0-29.9.2-6.2-1.9-8.7-8.2-8.5-10.2.4-20.4.1-30.6.1h-73.2v-57h125.8v-46.7h-181.1Z"/>
      <path class="st0" d="M1051.2,210c21.6,10.6,37.7,24.6,52.3,40.4,19.3,20.9,33.5,45.1,41.7,72.6,6.5,22.2,10.5,44.5,8.5,67.9-1.4,15.8-.3,31.7-.3,47.6,0,85.6.9,171.3-.5,256.9-.8,47.7-19.5,88.1-57.3,118.7-30.4,24.6-65.5,36.4-103.2,41.8-19,2.7-38.3,3.9-58,5.8,0-.2-.5.4-.5.9-.8,35.4-1.5,70.9-2.4,106.3-.6,24.7-1.3,49.5-2.1,74.2-.6,20.9-1.2,41.9-2.1,62.8-.7,17.1-1.9,34.2-2.9,52.2-1.3-1-2.5-1.8-3.5-2.8-34.2-35.2-68.3-70.4-102.5-105.7-24.1-24.9-48.1-49.8-72.1-74.8-19.5-20.3-38.9-40.5-58.3-60.9-12-12.6-24.1-25.3-35.7-38.3-4.7-5.3-9.7-7.3-16.8-7.3-62.1-.4-124.3-1.2-186.4-1.9-1.9,0-3.9-.2-9.2-.5,4.7-4,7.5-6.1,9.9-8.6,15.9-17,31.4-34.4,47.7-51.1,20.3-20.9,41-41.6,62.2-61.6,3.9-3.6,11.1-5.1,16.7-5.1,93.7-.3,187.5.8,281.2-.6,52.3-.8,99.5-18.5,136.1-58.1,27.1-29.4,43.4-64.9,50.3-104.3,2.9-16.8,4-34.1,4.1-51.2.5-71.1,0-142.3.3-213.4,0-30.3.8-60.5,1.3-90.8.2-3,.8-5.9,1.5-11.1h0Z"/>
      <path class="st3" d="M838.6,448.5c8.6,7.9,18,16.6,27.7,25.6-8,9.2-15.3,18.1-23.4,26.2-1.7,1.7-7.7,1.7-9.7,0-7.1-5.9-13-13.3-20.1-19.2-2.6-2.1-8.3-3.4-11-2-37.3,19.8-75.5,19-113.4,3.3-24.5-10.2-43-28.8-53.8-53.4-21.1-47.8-21.4-96.8,0-144.2,16.3-36.3,46.1-57.1,86-63.2,28-4.3,55-2.2,79.8,11.2,36.8,20,57.7,51.8,63.2,94.1,4.3,32.6,1.6,64-10.6,94.4-3.5,9.1-9.1,17.2-14.6,27.2h-.1ZM799.2,411.5c14.8-34,15-66.6,5.3-99.5-8.8-29.8-27.4-41.7-50.7-44.2-33.5-3.6-56.7,8.2-68.5,35.5-15.9,36.7-14.6,74,1.8,110.4,13.1,29,56,41.5,81.9,25.7-7.3-7.8-14.7-15.7-21.5-23.1,9.5-9.2,19.3-18.6,30.1-29,5.4,6.2,13,14.6,21.6,24.2h0Z"/>
      <path class="st3" d="M509.2,228.1c30.2,86.3,60,171.7,90.2,258.1h-59.3c-4.7-14.7-9.9-30-14.3-45.5-1.6-5.8-4-7.7-9.8-7.6-26,.3-52,.3-78,0-5.8-.1-8.2,2-9.8,7.5-4.6,15.5-10,30.7-15.1,46.1h-56.9c7.9-22.5,15.5-44.3,23.2-66.2,21.9-62.1,43.7-124.2,65.9-186.1,1-2.8,5.4-6,8.4-6.1,18.4-.4,36.8-.2,55.5-.2h0ZM446.3,387h62.2c-10.2-32.1-20.1-63.4-30.9-97.5-10.9,34.2-21,65.4-31.3,97.5h0Z"/>
      <path class="st3" d="M158.3,228.5h181.1v46.7h-125.8v57h73.2c10.2,0,20.4.3,30.6-.1,6.4-.2,8.4,2.2,8.2,8.5-.4,9.9-.5,19.9,0,29.9.4,7.7-2.9,9.2-9.7,9.1-32.5-.3-65-.1-97.5-.1s-2.7.2-5.2.4v106.7h-54.9V228.5h0Z"/>
      <g>
        <path class="st1" d="M742.6,438.7c-20.8,0-41.3-11.8-48.6-28.1-15.9-35.3-16.5-70.4-1.8-104.3,9.2-21.2,25.7-31.5,50.3-31.5s6.9.2,10.5.6c23.1,2.5,37.2,14.8,44.3,38.8,8.6,29.2,8.4,56.5-.6,83.1l-13.4-15c-1.4-1.5-3.3-2.4-5.4-2.5h-.3c-2,0-3.8.8-5.3,2.1l-30.1,29c-3,2.9-3.1,7.6-.3,10.6l14.3,15.3c-4.2,1.3-8.8,1.9-13.6,1.9h0Z"/>
        <path d="M742.4,282.3h0c3.1,0,6.3.2,9.7.5,9.5,1,17,3.8,22.9,8.6,6.7,5.4,11.6,13.6,14.9,24.9,6.9,23.3,7.9,44.7,3.2,65.7l-4.2-4.8c-2.7-3.1-6.6-4.9-10.7-5.1h-.6c-3.9,0-7.7,1.5-10.5,4.2l-18.1,17.5-12,11.6c-5.9,5.7-6.2,15.2-.6,21.2l4.1,4.4c-17.3-.7-33.7-10.4-39.7-23.6-15-33.2-15.6-66.3-1.7-98.2,8-18.3,21.8-26.9,43.3-26.9M742.4,267.2c-27.4,0-46.7,12-57.2,36.1-15.9,36.7-14.6,74,1.8,110.4,9.2,20.4,33.1,32.6,55.5,32.6s18.7-2.2,26.4-6.9c-7.3-7.8-14.7-15.7-21.5-23.1,9.5-9.2,19.3-18.6,30.1-29,5.5,6.2,13,14.6,21.6,24.2,14.8-34,15-66.6,5.3-99.5-8.8-29.8-27.4-41.7-50.7-44.2-3.9-.4-7.7-.6-11.3-.6h0Z"/>
      </g>
      <g>
        <polygon class="st1" points="456.7 379.5 477.6 314.4 498.2 379.5 456.7 379.5"/>
        <path d="M477.6,339.3l3.5,11,6.8,21.5h-20.8l10.5-32.5M477.7,289.6c-11,34.1-21,65.4-31.3,97.5h62.2c-10.2-32.1-20.1-63.4-30.9-97.5h0Z"/>
      </g>
    </g>
  </g>
</svg>