<?xml version="1.0" encoding="UTF-8"?>
<svg id="Layer_1" xmlns="http://www.w3.org/2000/svg" version="1.1" viewBox="0 0 1162.5 1162.5">
  <!-- Generator: Adobe Illustrator 29.5.1, SVG Export Plug-In . SVG Version: 2.1.0 Build 141)  -->
  <defs>
    <style>
      .st0 {
        stroke-width: 26.7px;
      }

      .st0, .st1, .st2, .st3, .st4 {
        fill: none;
      }

      .st0, .st1, .st2, .st3, .st4, .st5, .st6, .st7, .st8 {
        stroke: #000;
        stroke-linecap: round;
        stroke-linejoin: round;
      }

      .st1 {
        stroke-width: 25px;
      }

      .st2 {
        stroke-width: 30px;
      }

      .st3, .st5, .st8 {
        stroke-width: 29.4px;
      }

      .st4 {
        stroke-width: 21.3px;
      }

      .st9, .st8 {
        fill: #00649d;
      }

      .st10 {
        fill: #00aeef;
      }

      .st11 {
        fill: #fff;
      }

      .st5, .st6, .st7 {
        fill: #9ed6f4;
      }

      .st6 {
        stroke-width: 21.3px;
      }

      .st7 {
        stroke-width: 21.3px;
      }
    </style>
  </defs>
  <path class="st11" d="M834.9,1001.5l119.7-90.8,98.8-95.8s40.6-15.9,55.2,9c-29.3,32.9-207.6,211.5-207.6,211.5l-161.9,44.9-52.9-63.8,97.8-13,50.9-2Z"/>
  <path class="st11" d="M89.7,962.6l-19,4,10.1,58.7,154.5-15.4-6.7-52.5s77.9,1.4,131.1,68.6,161.9,90.2,183.9,90.2,215.5,23.7,228.4,28.3c3-25.3,9-45.3-7-64.2-19,0-251.4-30.9-251.4-30.9l-114.7-76.8-80.8-77.8-87.8,2-25.9,14-114.7,51.8Z"/>
  <path class="st10" d="M181.1,703.5s165.2-58.6,250.3-19.5c85.1,39.2,155.4,113.4,205.1,114.7,49.7,1.4,158.4-27.9,158.4-27.9,0,0,39.8-51.8,115.1-14.2,0,0,39-51.4,124.6-17,31.8-7.9,56.9-12.3,89.8,9.3-20.1,24.9-57.3,55.8-57.3,55.8,0,0-21.3-10.5-2.2,4-33.5,49-154.2,165.2-188.7,187.5s-166.7,33.6-166.7,33.6c0,0,66.1,30.3,54.2,65.3-74.4-13-248.1-26.1-275.8-37.7-27.7-11.6-62-22.4-137.2-117-34.4-43.9-127.7-29.8-127.7-29.8l-41.9-207.1Z"/>
  <path class="st9" d="M32.8,706.2c4.3,82.7,37.9,275.3,37.9,275.3l145.2-28.6-31.5-292.6c.2,0-122.7,29.4-151.6,45.9Z"/>
  <g id="Event_Registration">
    <g>
      <g>
        <path class="st1" d="M192.1,690l91-18.8c82-17,167.5,2.6,233.8,53.8l54.9,42.2c32.3,25,74.1,34.5,114.1,26.3l109-22.6,14.9-10.5c29.8-20.9,69-22.4,100.1-3.8l1.5.9"/>
        <path class="st1" d="M492.8,881.7c1.5,4.3,3.1,8.4,4.7,12.4,27.7,67.1,89.4,114.1,160.6,127.4,146.7,27.2,113.8,123,113.8,123,0,0-115.5-25.2-218.9-29.7-73.7-3.1-144.4-33.6-193.4-88.8-3.1-3.4-6.1-6.9-9-10.6-30.2-37.2-75.5-57.8-122.1-58"/>
        <path class="st1" d="M759.8,1073.7l141.2-38.3,207.6-211.5s-36-40.7-101.1,8.6l-143.3,121.7-115.9,28.3"/>
        <path class="st1" d="M1066.9,808.1l56.1-57s-53.7-48.9-123.7,13.5l-158.8,125.8-109.6,22.7"/>
      </g>
      <polyline class="st1" points="30.8 694.2 80.8 1025.3 235.4 1009.9 184.4 660.3 30.8 694.2"/>
      <line class="st1" x1="168.6" y1="1016.5" x2="116.6" y2="688.2"/>
    </g>
    <path class="st2" d="M1032.6,742.1l-3.9-1.9c-35.7-17.6-78.3-13.2-109.6,11.4l-94.4,74.1-111.7,22.7"/>
  </g>
  <path class="st11" d="M420.6,450.5c8,0,14.3-6.9,14.3-14.3v-64.5s-1.1-77.6,33.7-93.6c8.6-4,14.3-13.1,12.6-22.8v-1.1c0-.5-.6-.6-.6-.6h-157.6c-1.1,0-33.7,2.9-33.7,31.4v165.5c0,.6.6,1.1,1.1,1.1l130.2-1.1Z"/>
  <path class="st11" d="M914.4,450.5c-8,0-13.7-6.3-13.7-14.3v-65.1s1.1-77.6-33.7-93.6c-8.6-4-14.3-13.1-12.6-22.8l.6-1.7h157.6s33.7,2.9,33.7,31.4v166.7l-131.9-.6Z"/>
  <g>
    <path class="st8" d="M468,617.2v-261.5c0-37.1,30.3-67.4,67.4-67.4h259.2c37.1,0,67.4,30.3,67.4,67.4v261.4"/>
    <line class="st3" x1="774.6" y1="435.1" x2="774.6" y2="617.2"/>
    <line class="st0" x1="551.9" y1="435.1" x2="551.9" y2="617.2"/>
    <circle class="st5" cx="664.4" cy="121.1" r="103.3"/>
    <line class="st3" x1="664.4" y1="288.9" x2="664.4" y2="408.2"/>
  </g>
  <g>
    <line class="st4" x1="996.6" y1="334.6" x2="996.6" y2="446.5"/>
    <circle class="st6" cx="928.7" cy="141.1" r="63.9"/>
    <path class="st4" d="M859,244.4h149c22.8,0,41.7,18.3,41.7,41.7v161"/>
    <line class="st4" x1="928.7" y1="244.4" x2="928.7" y2="318.1"/>
  </g>
  <g>
    <line class="st4" x1="331.6" y1="334.6" x2="331.6" y2="446.5"/>
    <circle class="st7" cx="401.2" cy="141.1" r="63.9"/>
    <path class="st4" d="M279.6,446.5v-161c0-22.8,18.3-41.7,41.7-41.7h155.3"/>
    <line class="st4" x1="401.2" y1="244.4" x2="401.2" y2="318.1"/>
  </g>
</svg>