<?xml version="1.0" encoding="UTF-8"?>
<svg id="Layer_1" xmlns="http://www.w3.org/2000/svg" version="1.1" viewBox="0 0 1162.5 1162.5">
  <!-- Generator: Adobe Illustrator 29.5.1, SVG Export Plug-In . SVG Version: 2.1.0 Build 141)  -->
  <defs>
    <style>
      .st0 {
        fill: #00649d;
      }

      .st1 {
        fill: #00aeef;
      }

      .st2 {
        fill: #fff;
      }

      .st3 {
        fill: #9ed6f4;
        stroke: #000;
        stroke-linecap: round;
        stroke-linejoin: round;
        stroke-width: 29.8px;
      }
    </style>
  </defs>
  <circle class="st3" cx="581.7" cy="581.3" r="563.2"/>
  <g>
    <path class="st1" d="M395.9,840.1c-28.4,0-51.4-23.1-51.4-51.4v-292.3c0-28.4,23.1-51.4,51.4-51.4h22.3c7.5-81.8,76.6-146.1,160.3-146.1s152.9,64.3,160.4,146.1h22.3c28.4,0,51.4,23.1,51.4,51.4v292.3c0,28.4-23.1,51.4-51.4,51.4h-365.3ZM600.2,737.3v-68.4c0-5.4,2.9-10.3,7.5-13,18.1-10.3,29-28.9,29-49.9,0-32.1-26.1-58.2-58.2-58.2s-58.1,26.2-58.1,58.2,10.8,39.6,29,49.9c4.7,2.6,7.5,7.6,7.5,13v68.4h43.3ZM672.1,445c-7.2-45.2-46.4-79.8-93.5-79.8s-86.4,34.6-93.5,79.8h187Z"/>
    <path class="st0" d="M578.6,313.8c80.7,0,146.1,65.4,146.1,146.1h36.5c20.1,0,36.5,16.4,36.5,36.5v292.3c0,20.1-16.4,36.5-36.5,36.5h-365.3c-20.1,0-36.5-16.4-36.5-36.5v-292.3c0-20.1,16.4-36.5,36.5-36.5h36.5c.1-80.7,65.4-146.1,146.2-146.1M469,459.9h219.2c0-60.3-49.3-109.6-109.6-109.6s-109.6,49.3-109.6,109.6M542.1,752.2h73.1v-83.3c21.9-12.4,36.5-35.8,36.5-62.8,0-40.2-32.9-73.1-73.1-73.1s-73.1,32.9-73.1,73.1,14.6,50.4,36.5,62.8v83.3M578.6,284c-23.7,0-46.8,4.7-68.5,13.8-21,8.9-39.8,21.5-55.9,37.7-16.1,16.1-28.8,35-37.7,55.9-5.3,12.5-9.1,25.4-11.3,38.7h-9.2c-36.6,0-66.3,29.8-66.3,66.3v292.3c0,36.6,29.8,66.3,66.3,66.3h365.3c36.6,0,66.3-29.8,66.3-66.3v-292.3c0-36.6-29.8-66.3-66.3-66.3h-9.3c-2.3-13.3-6-26.2-11.3-38.7-8.9-21-21.5-39.8-37.7-55.9-16.1-16.1-35-28.8-55.9-37.7-21.7-9.2-44.8-13.8-68.5-13.8h0ZM504.6,430.1c4-9.8,9.9-18.8,17.7-26.5,15.1-15.1,35.1-23.5,56.3-23.5s41.2,8.3,56.3,23.5c7.7,7.7,13.7,16.8,17.7,26.5h-148ZM571.8,722.4v-53.5c0-10.7-5.8-20.6-15.1-25.9-13.4-7.6-21.4-21.4-21.4-36.9s4.5-22.3,12.7-30.5,19.1-12.7,30.5-12.7,22.3,4.5,30.5,12.7,12.7,19.1,12.7,30.5-8,29.3-21.4,36.9c-9.3,5.3-15.1,15.2-15.1,25.9v53.5h-13.4Z"/>
  </g>
  <g>
    <path class="st2" d="M552,742.2v-79.1l-5-2.9c-19.7-11.2-31.5-31.4-31.5-54.2,0-34.8,28.3-63.1,63.1-63.1s63.1,28.3,63.1,63.1-11.8,43-31.5,54.2l-5,2.9v79.1h-53.2Z"/>
    <path class="st0" d="M578.6,552.8c14.1,0,27.5,5.6,37.6,15.6,10.1,10.1,15.6,23.4,15.6,37.6s-9.9,36.2-26.5,45.6l-10.1,5.7v75h-33.3v-75l-10.1-5.7c-16.6-9.4-26.5-26.4-26.5-45.6s5.6-27.5,15.6-37.6c10.2-10,23.5-15.6,37.7-15.6M578.6,533c-40.2,0-73.1,32.9-73.1,73.1s14.6,50.4,36.5,62.8v83.3h73.1v-83.3c21.9-12.4,36.5-35.8,36.5-62.8,0-40.3-32.8-73.1-73-73.1h0Z"/>
  </g>
</svg>