<?xml version="1.0" encoding="UTF-8"?>
<svg id="Layer_1" xmlns="http://www.w3.org/2000/svg" version="1.1" viewBox="0 0 160 53">
  <!-- Generator: Adobe Illustrator 29.5.1, SVG Export Plug-In . SVG Version: 2.1.0 Build 141)  -->
  <defs>
    <style>
      .st0 {
        fill: #00649d;
      }

      .st1 {
        fill: #00aeef;
      }
    </style>
  </defs>
  <g id="Normal-Registered">
    <path id="Fill-1" class="st0" d="M143.9,15.4c0-.4.4-.8.8-.8h5.8c.4,0,.8.4.8.8v2.8c0,.4-.4.8-.8.8h-.6c-.4,0-1.1.2-1.5.4l-2.1,1.2c-.4.2-.5,0-.4-.3l.2-.5c.2-.4,0-.7-.5-.7h-1.1c-.4,0-.8-.4-.8-.8v-2.8"/>
    <path id="Fill-21" class="st0" d="M143.9,22.8s0,0,.1,0,0,0,0-.1,0,0,0,0,0,0,0,0,0,0,0,0h-.2v.2h.2,0ZM143.9,22.4c.1,0,.2,0,.3,0s.1.1.1.2,0,.1,0,.2-.1,0-.2,0l.2.4h-.2l-.2-.4h0v.4h-.2v-1h.4,0ZM143.3,23.1c0,0,0,.1.1.2s.1.1.2.1c0,0,.2,0,.2,0s.2,0,.2,0c0,0,.1,0,.2-.1s.1-.1.1-.2,0-.2,0-.2,0-.2,0-.2c0,0,0-.1-.1-.2s-.1-.1-.2-.1c0,0-.2,0-.2,0s-.2,0-.2,0c0,0-.1,0-.2.1s-.1.1-.1.2,0,.2,0,.2,0,.2,0,.2ZM143.1,22.5c0-.1.1-.2.2-.3,0,0,.2-.1.3-.2s.2,0,.3,0,.2,0,.3,0,.2.1.3.2.1.2.2.3c0,.1,0,.2,0,.3s0,.2,0,.3-.1.2-.2.3c0,0-.2.1-.3.2-.1,0-.2,0-.3,0s-.2,0-.3,0-.2-.1-.3-.2-.1-.2-.2-.3c0-.1,0-.2,0-.3s0-.2,0-.3Z"/>
    <path id="Fill-19" class="st0" d="M141,20.2h-1.3c-.1,0-.1,0-.1-.1v-.2c0-.3.4-.6.8-.6s.7.2.8.6v.2c0,0,0,.1-.1.1ZM140.3,18c-1.4,0-2.4,1-2.4,2.1v1.5c0,1.3.9,2.1,2.4,2.1s1.3-.3,1.7-.7c.2-.2.3-.4.5-.6,0-.1,0-.2,0-.3l-1.2-.6c0,0-.1,0-.2.1-.2.4-.4.6-.8.6s-.7-.3-.7-.7v-.3c0,0,0-.1.1-.1h2.8c0,0,.1,0,.1-.1v-1c0-1.1-1-2.1-2.4-2.1h0Z"/>
    <path id="Fill-18" class="st0" d="M135.2,19.4c.4,0,.6.2.8.7,0,0,.1.1.2,0l1.1-.5c0,0,.1-.1,0-.2-.1-.2-.2-.5-.4-.7-.4-.5-1-.8-1.9-.8-1.5,0-2.3.9-2.3,2.1v1.4c0,1.3.9,2.1,2.3,2.1s1.4-.2,1.8-.7c.2-.2.4-.5.5-.8,0-.1,0-.1,0-.2l-1.1-.5c0,0-.1,0-.2,0-.2.5-.5.7-.8.7s-.7-.3-.7-.7v-1.5c0-.4.3-.7.7-.7"/>
    <path id="Fill-17" class="st0" d="M131.9,18.2h-1.4c0,0-.1,0-.1.1v5.2c0,0,0,.1.1.1h1.4c0,0,.1,0,.1-.1v-5.2c0-.1,0-.1-.1-.1"/>
    <path id="Fill-20" class="st0" d="M131.2,15.9c-.4,0-.8.4-.8.8s.4.8.8.8.8-.4.8-.8c0-.5-.4-.8-.8-.8"/>
    <path id="Fill-16" class="st0" d="M129.6,18.2h-1.5c0,0-.1,0-.1.1l-.9,2.5c0,.1-.1.4-.1.6h0c0-.1,0-.4-.1-.6l-.9-2.5s0,0-.1,0h-1.5c-.1,0-.1,0-.1.2l2.1,5.2s0,0,.1,0h1.1c0,0,.1,0,.1,0l2.1-5.2c0-.1,0-.2-.1-.2"/>
    <path id="Fill-15" class="st0" d="M121.9,21.6c0,.4-.3.7-.7.7s-.7-.3-.7-.7v-1.4c0-.4.3-.7.7-.7s.7.3.7.7v1.4ZM123.4,16.2h-1.4c0,0-.1,0-.1.1v1.6c0,.2,0,.5,0,.5-.2-.2-.6-.3-.9-.3-1.3,0-2.2.9-2.2,2.1v1.2c0,1.4.8,2.1,2.2,2.1s.7-.1,1-.3c0,0,.2,0,.2,0v.2s0,0,0,0h1.1c0,0,.1,0,.1-.1v-7.2c0,0,0-.1-.1-.1h0Z"/>
    <path id="Fill-14" class="st0" d="M115.8,21.1h-.7c-.1,0-.2,0-.1-.1l.2-1c.1-.4.2-1,.2-1.3h0c0,.3,0,.8.2,1.3l.2,1s0,.1-.1.1ZM116.1,16.3s0,0-.1,0h-1.1c0,0,0,0-.1,0l-2.3,7.2c0,.1,0,.1.1.1h1.5c0,0,0,0,.1,0l.3-1.1s0,0,.1,0h1.5c0,0,.1,0,.1,0l.3,1.1s0,0,.1,0h1.5c.1,0,.2,0,.1-.1l-2.3-7.2h0Z"/>
    <path id="Fill-13" class="st0" d="M108.3,20.2h-1.3c0,0-.1,0-.1-.1v-.2c0-.3.4-.6.8-.6s.7.2.8.6v.2c0,0,0,.1-.1.1ZM107.6,18c-1.4,0-2.4,1-2.4,2.1v1.5c0,1.3.9,2.1,2.4,2.1s1.3-.3,1.7-.7c.2-.2.3-.4.5-.6,0-.1,0-.2,0-.3l-1.2-.6c0,0-.1,0-.2.1-.2.4-.4.6-.8.6s-.7-.3-.7-.7v-.3c0,0,0-.1.1-.1h2.8c0,0,.1,0,.1-.1v-1c0-1.1-1-2.1-2.3-2.1h0Z"/>
    <path id="Fill-12" class="st0" d="M104.5,18.2c0,0-.2,0-.3,0-.4,0-.9.2-1.1.5,0,0-.2,0-.2,0v-.3c0,0,0-.1-.1-.1h-1.1c0,0-.1,0-.1.1v5.2c0,0,0,.1.1.1h1.4c0,0,.1,0,.1-.1v-3.1c0-.4.3-.7.7-.7s.3,0,.5,0c.1,0,.2,0,.2-.1v-1.3s0-.1-.1-.1"/>
    <path id="Fill-11" class="st0" d="M98.3,22.4h-.4c-.2,0-.4-.1-.4-.5s.2-.4.4-.4h1c0,0,0,.1,0,.2,0,.4-.4.7-.7.7h0ZM98.3,18c-.7,0-1.3.2-1.7.6-.2.2-.4.4-.6.7,0,.1,0,.2,0,.3l1.2.6c0,0,.1,0,.2-.1.2-.4.4-.6.8-.6s.7.3.7.7h0c0,.1,0,.2-.1.2h-1c-1,0-1.9.6-1.9,1.5h0c0,1.1.8,1.7,1.8,1.7h.4c.3,0,.7-.1.9-.3,0,0,.1,0,.1,0v.2c0,0,0,.1.2.1h1.2c0,0,.1,0,.1-.1v-3.3c0-1.3-.9-2.2-2.3-2.2h0Z"/>
    <path id="Fill-10" class="st0" d="M95.5,18.2h-1.4c0,0-.1,0-.1.1l-.5,2.2c0,.2-.1.6-.1.9h0c0-.2,0-.6-.1-.9l-.5-2.2s0-.1-.1-.1h-1.2c0,0-.1,0-.1.1l-.5,2.2c0,.2-.1.6-.1.8h0c0-.2,0-.5-.1-.8l-.6-2.2s0-.1-.1-.1h-1.4c-.1,0-.1,0-.1.1l1.7,5.2s0,0,.1,0h1c0,0,.1,0,.1,0l.6-2.4c0-.3.1-.7.1-.7h0s0,.5.1.7l.6,2.4s0,.1.1.1h1c0,0,0,0,.1,0l1.7-5.2c0,0,0-.1-.1-.1"/>
    <path id="Fill-9" class="st0" d="M87.6,18.2h-.8c-.1,0-.1,0-.1-.1v-.7c0,0,0-.1-.1-.1h-.7s-.1,0-.1,0l-1.5,1.5v.8c0,0,0,.1.1.1h.6c.1,0,.1,0,.1.1v1.8c0,1.4.9,2.1,2,2.1h.5c.1,0,.2,0,.2-.1v-1.2c0,0,0-.1-.1-.1h-.2c-.5,0-.7-.3-.7-.8v-1.7c0,0,0-.1.1-.1h.8c0,0,.1,0,.1-.1v-1.2c0,0,0-.1-.1-.1"/>
    <path id="Fill-8" class="st0" d="M84.1,16.2c-.2,0-.5,0-.8,0-1.7,0-2.4,1.2-2.4,2.2v.3c0,0,0,.1-.1.1h-.3c0,0-.1,0-.1.1v1.2c0,0,0,.1.1.1h.3c.1,0,.1,0,.1.1v3.3c0,0,0,.1.1.1h1.4c0,0,.1,0,.1-.1v-3.3c0,0,0-.1.1-.1h.8c0,0,.1,0,.1-.1v-1.2c0,0,0-.1-.1-.1h-.8c0,0-.1,0-.1-.1v-.3c0-.4.3-.7.7-.7s.3,0,.4,0c0,0,.1,0,.2,0l.4-1.2c0,0,0-.1-.1-.2"/>
    <path id="Fill-7" class="st0" d="M78,21.6c0,.4-.3.7-.7.7s-.7-.3-.7-.7v-1.5c0-.4.3-.7.7-.7s.7.3.7.7v1.5ZM77.3,18c-1.4,0-2.4.9-2.4,2.1v1.4c0,1.3.9,2.1,2.4,2.1s2.3-.9,2.3-2.1v-1.4c0-1.3-.9-2.1-2.3-2.1Z"/>
    <path id="Fill-4" class="st0" d="M72.4,19.2c-.6-.2-1.3-.4-1.3-1s.3-.7.7-.7h.2c.4,0,.7.2.8.6,0,.1.1.1.2.1l1.2-.6c0,0,.1-.2,0-.3,0-.2-.2-.4-.4-.5-.4-.5-1-.8-1.9-.8h-.2c-1.5,0-2.4.9-2.4,2.2s.9,1.9,1.9,2.3c.7.3,1.3.4,1.3,1s-.4.7-.8.7h-.3c-.4,0-.7-.2-.8-.6,0-.1-.1-.1-.2-.1l-1.2.6c0,0-.1.2,0,.3.1.2.2.4.4.5.4.5,1,.8,1.8.8h.4c1.5,0,2.4-.9,2.4-2.2s-.8-1.9-1.9-2.4"/>
  </g>
  <path class="st0" d="M61.4,45.4c-.5,0-.9-.4-.9-.9V7.9c0-.5.4-.9.9-.9s.9.4.9.9v36.6c0,.5-.4.9-.9.9Z"/>
  <g>
    <path class="st0" d="M27.7,28.5v3.8h-2.5v4.1h-4.6v-4.1h-8.7v-3.4l5.5-11.7h4.8l-5.2,11.3h3.6v-4.1h4.6v4.1h2.5Z"/>
    <path class="st0" d="M33.6,32.5c.4.4.7,1,.7,1.7s-.2,1.3-.7,1.7c-.4.4-1,.7-1.7.7s-1.2-.2-1.7-.7c-.4-.4-.7-1-.7-1.7s.2-1.3.6-1.7,1-.7,1.7-.7c.8.1,1.4.3,1.8.7Z"/>
    <path class="st0" d="M40,32.5c.7.2,1.4.3,2.1.3,1.5,0,2.6-.4,3.3-1.3.7-.9,1.1-2.1,1.1-3.7-1,1.4-2.5,2.1-4.5,2.1s-2.3-.3-3.2-.8-1.6-1.3-2.1-2.2c-.5-.9-.8-2-.8-3.3s.3-2.5.9-3.5c.6-1,1.4-1.8,2.5-2.3s2.3-.8,3.7-.8,3.1.4,4.4,1.2,2.2,1.9,2.8,3.3c.7,1.4,1,3.1,1,5.1s-.4,3.8-1.1,5.3c-.7,1.5-1.7,2.7-3.1,3.5-1.3.8-2.9,1.2-4.6,1.2s-2.1,0-3.2-.4c-1.1-.3-2-.7-2.9-1.2l1.8-3.5c.6.5,1.3.8,1.9,1ZM41.2,21.6c-.5.5-.7,1.1-.7,2s.2,1.5.7,1.9c.5.5,1.1.7,1.9.7s1.6-.3,2.1-.8.8-1.2.8-2-.2-1.4-.7-1.9-1.2-.7-2.1-.7c-.8.1-1.5.4-2,.8Z"/>
  </g>
  <polygon class="st1" points="77.1 33.1 79.1 37.2 83.5 37.8 80.3 40.9 81.1 45.4 77.1 43.3 73.1 45.4 73.9 40.9 70.7 37.8 75.1 37.2 77.1 33.1"/>
  <polygon class="st1" points="124 33.1 126 37.2 130.4 37.8 127.2 40.9 128 45.4 124 43.3 120 45.4 120.8 40.9 117.5 37.8 122 37.2 124 33.1"/>
  <polygon class="st1" points="108.3 33.1 110.3 37.2 114.8 37.8 111.6 40.9 112.3 45.4 108.3 43.3 104.4 45.4 105.1 40.9 101.9 37.8 106.4 37.2 108.3 33.1"/>
  <polygon class="st1" points="92.7 33.1 94.7 37.2 99.2 37.8 95.9 40.9 96.7 45.4 92.7 43.3 88.7 45.4 89.5 40.9 86.3 37.8 90.7 37.2 92.7 33.1"/>
  <polygon class="st1" points="142.6 37.3 141.6 37.2 139.6 33.1 137.6 37.2 133.2 37.8 136.4 40.9 135.6 45.4 139.6 43.3 142.6 44.8 142.6 37.3"/>
</svg>